{
    "accessors": [
        {
            "bufferView": 3,
            "byteOffset": 0,
            "componentType": 5123,
            "count": 36,
            "max": [
                1245
            ],
            "min": [
                11
            ],
            "name": "accessor_buffer_model_1",
            "type": "SCALAR"
        },
        {
            "bufferView": 1,
            "byteOffset": 0,
            "componentType": 5126,
            "count": 1251,
            "max": [
                0.9999924898147583,
                0.999905526638031,
                0.9991548657417297
            ],
            "min": [
                -0.9999924302101135,
                -0.9999054670333862,
                -0.9991549253463745
            ],
            "name": "accessor_buffer_model_NORMAL_0",
            "type": "VEC3"
        },
        {
            "bufferView": 5,
            "byteOffset": 0,
            "componentType": 5123,
            "count": 138,
            "max": [
                1238
            ],
            "min": [
                5
            ],
            "name": "accessor_buffer_model_3",
            "type": "SCALAR"
        },
        {
            "bufferView": 9,
            "byteOffset": 0,
            "componentType": 5123,
            "count": 864,
            "max": [
                1249
            ],
            "min": [
                2
            ],
            "name": "accessor_buffer_model_7",
            "type": "SCALAR"
        },
        {
            "bufferView": 2,
            "byteOffset": 0,
            "componentType": 5123,
            "count": 132,
            "max": [
                1250
            ],
            "min": [
                15
            ],
            "name": "accessor_buffer_model_0",
            "type": "SCALAR"
        },
        {
            "bufferView": 7,
            "byteOffset": 0,
            "componentType": 5123,
            "count": 12,
            "max": [
                1205
            ],
            "min": [
                19
            ],
            "name": "accessor_buffer_model_5",
            "type": "SCALAR"
        },
        {
            "bufferView": 0,
            "byteOffset": 0,
            "componentType": 5126,
            "count": 1251,
            "max": [
                0.6826894283294678,
                0.5586567521095276,
                0.29863208532333374
            ],
            "min": [
                -0.5085841417312622,
                -0.0019326359033584595,
                -0.22219398617744446
            ],
            "name": "accessor_buffer_model_POSITION_0",
            "type": "VEC3"
        },
        {
            "bufferView": 4,
            "byteOffset": 0,
            "componentType": 5123,
            "count": 63,
            "max": [
                1228
            ],
            "min": [
                22
            ],
            "name": "accessor_buffer_model_2",
            "type": "SCALAR"
        },
        {
            "bufferView": 8,
            "byteOffset": 0,
            "componentType": 5123,
            "count": 204,
            "max": [
                1246
            ],
            "min": [
                1
            ],
            "name": "accessor_buffer_model_6",
            "type": "SCALAR"
        },
        {
            "bufferView": 6,
            "byteOffset": 0,
            "componentType": 5123,
            "count": 168,
            "max": [
                1237
            ],
            "min": [
                0
            ],
            "name": "accessor_buffer_model_4",
            "type": "SCALAR"
        }
    ],
    "asset": {
        "copyright": "",
        "generator": "blendergltf v1.2.0",
        "version": "2.0"
    },
    "bufferViews": [
        {
            "buffer": 0,
            "byteLength": 15012,
            "byteOffset": 0,
            "byteStride": 12,
            "name": "bufferView_buffer_model_POSITION_0",
            "target": 34962
        },
        {
            "buffer": 0,
            "byteLength": 15012,
            "byteOffset": 15012,
            "byteStride": 12,
            "name": "bufferView_buffer_model_NORMAL_0",
            "target": 34962
        },
        {
            "buffer": 0,
            "byteLength": 268,
            "byteOffset": 30024,
            "name": "bufferView_buffer_model_0",
            "target": 34963
        },
        {
            "buffer": 0,
            "byteLength": 76,
            "byteOffset": 30292,
            "name": "bufferView_buffer_model_1",
            "target": 34963
        },
        {
            "buffer": 0,
            "byteLength": 128,
            "byteOffset": 30368,
            "name": "bufferView_buffer_model_2",
            "target": 34963
        },
        {
            "buffer": 0,
            "byteLength": 280,
            "byteOffset": 30496,
            "name": "bufferView_buffer_model_3",
            "target": 34963
        },
        {
            "buffer": 0,
            "byteLength": 340,
            "byteOffset": 30776,
            "name": "bufferView_buffer_model_4",
            "target": 34963
        },
        {
            "buffer": 0,
            "byteLength": 28,
            "byteOffset": 31116,
            "name": "bufferView_buffer_model_5",
            "target": 34963
        },
        {
            "buffer": 0,
            "byteLength": 412,
            "byteOffset": 31144,
            "name": "bufferView_buffer_model_6",
            "target": 34963
        },
        {
            "buffer": 0,
            "byteLength": 1732,
            "byteOffset": 31556,
            "name": "bufferView_buffer_model_7",
            "target": 34963
        }
    ],
    "buffers": [
        {
            "byteLength": 33288,
            "name": "buffer_computer",
            "uri": "buffer_computer.bin"
        }
    ],
    "materials": [
        {
            "alphaMode": "OPAQUE",
            "doubleSided": false,
            "emissiveFactor": [
                0.0,
                0.0,
                0.0
            ],
            "name": "mat15",
            "pbrMetallicRoughness": {
                "baseColorFactor": [
                    0.6480000019073486,
                    0.6800000071525574,
                    0.6880000233650208,
                    1.0
                ],
                "metallicFactor": 0.0,
                "roughnessFactor": 1.0
            }
        },
        {
            "alphaMode": "OPAQUE",
            "doubleSided": false,
            "emissiveFactor": [
                0.0,
                0.0,
                0.0
            ],
            "name": "mat17",
            "pbrMetallicRoughness": {
                "baseColorFactor": [
                    0.2160000056028366,
                    0.2800000011920929,
                    0.31200000643730164,
                    1.0
                ],
                "metallicFactor": 0.0,
                "roughnessFactor": 1.0
            }
        },
        {
            "alphaMode": "OPAQUE",
            "doubleSided": false,
            "emissiveFactor": [
                0.0,
                0.0,
                0.0
            ],
            "name": "mat20",
            "pbrMetallicRoughness": {
                "baseColorFactor": [
                    0.3760000169277191,
                    0.2640000283718109,
                    0.2240000069141388,
                    1.0
                ],
                "metallicFactor": 0.0,
                "roughnessFactor": 1.0
            }
        },
        {
            "alphaMode": "OPAQUE",
            "doubleSided": false,
            "emissiveFactor": [
                0.0,
                0.0,
                0.0
            ],
            "name": "mat21",
            "pbrMetallicRoughness": {
                "baseColorFactor": [
                    0.800000011920929,
                    0.800000011920929,
                    0.800000011920929,
                    1.0
                ],
                "metallicFactor": 0.0,
                "roughnessFactor": 1.0
            }
        },
        {
            "alphaMode": "OPAQUE",
            "doubleSided": false,
            "emissiveFactor": [
                0.0,
                0.0,
                0.0
            ],
            "name": "mat22",
            "pbrMetallicRoughness": {
                "baseColorFactor": [
                    0.4960000216960907,
                    0.4960000216960907,
                    0.4960000216960907,
                    1.0
                ],
                "metallicFactor": 0.0,
                "roughnessFactor": 1.0
            }
        },
        {
            "alphaMode": "OPAQUE",
            "doubleSided": false,
            "emissiveFactor": [
                0.0,
                0.0,
                0.0
            ],
            "name": "mat23",
            "pbrMetallicRoughness": {
                "baseColorFactor": [
                    0.08000000566244125,
                    0.08000000566244125,
                    0.08000000566244125,
                    1.0
                ],
                "metallicFactor": 0.0,
                "roughnessFactor": 1.0
            }
        },
        {
            "alphaMode": "OPAQUE",
            "doubleSided": false,
            "emissiveFactor": [
                0.0,
                0.0,
                0.0
            ],
            "name": "mat3",
            "pbrMetallicRoughness": {
                "baseColorFactor": [
                    0.4000000059604645,
                    0.6960000395774841,
                    0.7360000014305115,
                    1.0
                ],
                "metallicFactor": 0.0,
                "roughnessFactor": 1.0
            }
        },
        {
            "alphaMode": "OPAQUE",
            "doubleSided": false,
            "emissiveFactor": [
                0.0,
                0.0,
                0.0
            ],
            "name": "mat8",
            "pbrMetallicRoughness": {
                "baseColorFactor": [
                    0.7680000066757202,
                    0.20799998939037323,
                    0.1679999977350235,
                    1.0
                ],
                "metallicFactor": 0.0,
                "roughnessFactor": 1.0
            }
        }
    ],
    "meshes": [
        {
            "name": "model",
            "primitives": [
                {
                    "attributes": {
                        "NORMAL": 1,
                        "POSITION": 6
                    },
                    "indices": 4,
                    "material": 4,
                    "mode": 4
                },
                {
                    "attributes": {
                        "NORMAL": 1,
                        "POSITION": 6
                    },
                    "indices": 0,
                    "material": 1,
                    "mode": 4
                },
                {
                    "attributes": {
                        "NORMAL": 1,
                        "POSITION": 6
                    },
                    "indices": 7,
                    "material": 5,
                    "mode": 4
                },
                {
                    "attributes": {
                        "NORMAL": 1,
                        "POSITION": 6
                    },
                    "indices": 2,
                    "material": 0,
                    "mode": 4
                },
                {
                    "attributes": {
                        "NORMAL": 1,
                        "POSITION": 6
                    },
                    "indices": 9,
                    "material": 7,
                    "mode": 4
                },
                {
                    "attributes": {
                        "NORMAL": 1,
                        "POSITION": 6
                    },
                    "indices": 5,
                    "material": 2,
                    "mode": 4
                },
                {
                    "attributes": {
                        "NORMAL": 1,
                        "POSITION": 6
                    },
                    "indices": 8,
                    "material": 3,
                    "mode": 4
                },
                {
                    "attributes": {
                        "NORMAL": 1,
                        "POSITION": 6
                    },
                    "indices": 3,
                    "material": 6,
                    "mode": 4
                }
            ]
        }
    ],
    "nodes": [
        {
            "mesh": 0,
            "name": "model",
            "rotation": [
                0.0,
                0.0,
                0.0,
                1.0
            ],
            "scale": [
                1.0,
                1.0,
                1.0
            ],
            "translation": [
                0.0,
                0.0,
                0.0
            ]
        }
    ],
    "scene": 0,
    "scenes": [
        {
            "extras": {
                "background_color": [
                    0.05087608844041824,
                    0.05087608844041824,
                    0.05087608844041824
                ],
                "frames_per_second": 24
            },
            "name": "Scene",
            "nodes": [
                0
            ]
        }
    ]
}
