{
    "accessors": [
        {
            "bufferView": 2,
            "byteOffset": 0,
            "componentType": 5126,
            "count": 302,
            "max": [
                1.0299999713897705,
                1.0
            ],
            "min": [
                0.0010000000474974513,
                0.0
            ],
            "name": "accessor_buffer_Cylinder001_TEXCOORD_0_0",
            "type": "VEC2"
        },
        {
            "bufferView": 3,
            "byteOffset": 0,
            "componentType": 5123,
            "count": 69,
            "max": [
                295
            ],
            "min": [
                42
            ],
            "name": "accessor_buffer_Cylinder001_0",
            "type": "SCALAR"
        },
        {
            "bufferView": 5,
            "byteOffset": 0,
            "componentType": 5126,
            "count": 440,
            "max": [
                -0.24337968230247498,
                0.2408963143825531,
                0.31606218218803406
            ],
            "min": [
                -0.31534358859062195,
                -0.1110638901591301,
                0.24395614862442017
            ],
            "name": "accessor_buffer_Cylinder004_POSITION_0",
            "type": "VEC3"
        },
        {
            "bufferView": 4,
            "byteOffset": 0,
            "componentType": 5123,
            "count": 519,
            "max": [
                301
            ],
            "min": [
                0
            ],
            "name": "accessor_buffer_Cylinder001_1",
            "type": "SCALAR"
        },
        {
            "bufferView": 18,
            "byteOffset": 0,
            "componentType": 5126,
            "count": 440,
            "max": [
                0.992118239402771,
                1.0,
                0.9980257749557495
            ],
            "min": [
                -0.9999995231628418,
                -1.0,
                -0.9980250597000122
            ],
            "name": "accessor_buffer_Cylinder007_NORMAL_0",
            "type": "VEC3"
        },
        {
            "bufferView": 7,
            "byteOffset": 0,
            "componentType": 5126,
            "count": 440,
            "max": [
                1.0299999713897705,
                1.0
            ],
            "min": [
                0.0010000000474974513,
                0.0
            ],
            "name": "accessor_buffer_Cylinder004_TEXCOORD_0_0",
            "type": "VEC2"
        },
        {
            "bufferView": 0,
            "byteOffset": 0,
            "componentType": 5126,
            "count": 302,
            "max": [
                0.4252580404281616,
                0.24881689250469208,
                0.44521406292915344
            ],
            "min": [
                -0.4702349305152893,
                0.22108878195285797,
                -0.45204928517341614
            ],
            "name": "accessor_buffer_Cylinder001_POSITION_0",
            "type": "VEC3"
        },
        {
            "bufferView": 17,
            "byteOffset": 0,
            "componentType": 5126,
            "count": 440,
            "max": [
                0.27250680327415466,
                0.24089621007442474,
                -0.2549498975276947
            ],
            "min": [
                0.2005428969860077,
                -0.11106397211551666,
                -0.3270559310913086
            ],
            "name": "accessor_buffer_Cylinder007_POSITION_0",
            "type": "VEC3"
        },
        {
            "bufferView": 20,
            "byteOffset": 0,
            "componentType": 5123,
            "count": 2238,
            "max": [
                439
            ],
            "min": [
                0
            ],
            "name": "accessor_buffer_Cylinder007_0",
            "type": "SCALAR"
        },
        {
            "bufferView": 8,
            "byteOffset": 0,
            "componentType": 5123,
            "count": 2238,
            "max": [
                439
            ],
            "min": [
                0
            ],
            "name": "accessor_buffer_Cylinder004_0",
            "type": "SCALAR"
        },
        {
            "bufferView": 15,
            "byteOffset": 0,
            "componentType": 5126,
            "count": 440,
            "max": [
                1.0299999713897705,
                1.0
            ],
            "min": [
                0.0010000000474974513,
                0.0
            ],
            "name": "accessor_buffer_Cylinder006_TEXCOORD_0_0",
            "type": "VEC2"
        },
        {
            "bufferView": 13,
            "byteOffset": 0,
            "componentType": 5126,
            "count": 440,
            "max": [
                -0.2433796375989914,
                0.24089621007442474,
                -0.2549498975276947
            ],
            "min": [
                -0.3153435289859772,
                -0.11106397211551666,
                -0.3270559310913086
            ],
            "name": "accessor_buffer_Cylinder006_POSITION_0",
            "type": "VEC3"
        },
        {
            "bufferView": 19,
            "byteOffset": 0,
            "componentType": 5126,
            "count": 440,
            "max": [
                1.0299999713897705,
                1.0
            ],
            "min": [
                0.0010000000474974513,
                0.0
            ],
            "name": "accessor_buffer_Cylinder007_TEXCOORD_0_0",
            "type": "VEC2"
        },
        {
            "bufferView": 10,
            "byteOffset": 0,
            "componentType": 5126,
            "count": 440,
            "max": [
                0.9921185970306396,
                1.0,
                0.9980252981185913
            ],
            "min": [
                -0.9999993443489075,
                -1.0,
                -0.9980258941650391
            ],
            "name": "accessor_buffer_Cylinder005_NORMAL_0",
            "type": "VEC3"
        },
        {
            "bufferView": 14,
            "byteOffset": 0,
            "componentType": 5126,
            "count": 440,
            "max": [
                0.9921181797981262,
                1.0,
                0.9980257749557495
            ],
            "min": [
                -0.999999463558197,
                -1.0,
                -0.9980250597000122
            ],
            "name": "accessor_buffer_Cylinder006_NORMAL_0",
            "type": "VEC3"
        },
        {
            "bufferView": 1,
            "byteOffset": 0,
            "componentType": 5126,
            "count": 302,
            "max": [
                0.992114782333374,
                1.0,
                0.9980268478393555
            ],
            "min": [
                -1.0,
                -1.0,
                -0.9980267286300659
            ],
            "name": "accessor_buffer_Cylinder001_NORMAL_0",
            "type": "VEC3"
        },
        {
            "bufferView": 6,
            "byteOffset": 0,
            "componentType": 5126,
            "count": 440,
            "max": [
                0.9921188354492188,
                1.0,
                0.9980251789093018
            ],
            "min": [
                -0.9999995231628418,
                -1.0,
                -0.9980259537696838
            ],
            "name": "accessor_buffer_Cylinder004_NORMAL_0",
            "type": "VEC3"
        },
        {
            "bufferView": 11,
            "byteOffset": 0,
            "componentType": 5126,
            "count": 440,
            "max": [
                1.0299999713897705,
                1.0
            ],
            "min": [
                0.0010000000474974513,
                0.0
            ],
            "name": "accessor_buffer_Cylinder005_TEXCOORD_0_0",
            "type": "VEC2"
        },
        {
            "bufferView": 9,
            "byteOffset": 0,
            "componentType": 5126,
            "count": 440,
            "max": [
                0.2725067734718323,
                0.2408963143825531,
                0.31606224179267883
            ],
            "min": [
                0.2005428969860077,
                -0.1110638752579689,
                0.24395620822906494
            ],
            "name": "accessor_buffer_Cylinder005_POSITION_0",
            "type": "VEC3"
        },
        {
            "bufferView": 12,
            "byteOffset": 0,
            "componentType": 5123,
            "count": 2238,
            "max": [
                439
            ],
            "min": [
                0
            ],
            "name": "accessor_buffer_Cylinder005_0",
            "type": "SCALAR"
        },
        {
            "bufferView": 16,
            "byteOffset": 0,
            "componentType": 5123,
            "count": 2238,
            "max": [
                439
            ],
            "min": [
                0
            ],
            "name": "accessor_buffer_Cylinder006_0",
            "type": "SCALAR"
        }
    ],
    "asset": {
        "copyright": "",
        "generator": "blendergltf v1.2.0",
        "version": "2.0"
    },
    "bufferViews": [
        {
            "buffer": 0,
            "byteLength": 3624,
            "byteOffset": 0,
            "byteStride": 12,
            "name": "bufferView_buffer_Cylinder001_POSITION_0",
            "target": 34962
        },
        {
            "buffer": 0,
            "byteLength": 3624,
            "byteOffset": 3624,
            "byteStride": 12,
            "name": "bufferView_buffer_Cylinder001_NORMAL_0",
            "target": 34962
        },
        {
            "buffer": 0,
            "byteLength": 2416,
            "byteOffset": 7248,
            "byteStride": 8,
            "name": "bufferView_buffer_Cylinder001_TEXCOORD_0_0",
            "target": 34962
        },
        {
            "buffer": 0,
            "byteLength": 140,
            "byteOffset": 9664,
            "name": "bufferView_buffer_Cylinder001_0",
            "target": 34963
        },
        {
            "buffer": 0,
            "byteLength": 1040,
            "byteOffset": 9804,
            "name": "bufferView_buffer_Cylinder001_1",
            "target": 34963
        },
        {
            "buffer": 0,
            "byteLength": 5280,
            "byteOffset": 10844,
            "byteStride": 12,
            "name": "bufferView_buffer_Cylinder004_POSITION_0",
            "target": 34962
        },
        {
            "buffer": 0,
            "byteLength": 5280,
            "byteOffset": 16124,
            "byteStride": 12,
            "name": "bufferView_buffer_Cylinder004_NORMAL_0",
            "target": 34962
        },
        {
            "buffer": 0,
            "byteLength": 3520,
            "byteOffset": 21404,
            "byteStride": 8,
            "name": "bufferView_buffer_Cylinder004_TEXCOORD_0_0",
            "target": 34962
        },
        {
            "buffer": 0,
            "byteLength": 4480,
            "byteOffset": 24924,
            "name": "bufferView_buffer_Cylinder004_0",
            "target": 34963
        },
        {
            "buffer": 0,
            "byteLength": 5280,
            "byteOffset": 29404,
            "byteStride": 12,
            "name": "bufferView_buffer_Cylinder005_POSITION_0",
            "target": 34962
        },
        {
            "buffer": 0,
            "byteLength": 5280,
            "byteOffset": 34684,
            "byteStride": 12,
            "name": "bufferView_buffer_Cylinder005_NORMAL_0",
            "target": 34962
        },
        {
            "buffer": 0,
            "byteLength": 3520,
            "byteOffset": 39964,
            "byteStride": 8,
            "name": "bufferView_buffer_Cylinder005_TEXCOORD_0_0",
            "target": 34962
        },
        {
            "buffer": 0,
            "byteLength": 4480,
            "byteOffset": 43484,
            "name": "bufferView_buffer_Cylinder005_0",
            "target": 34963
        },
        {
            "buffer": 0,
            "byteLength": 5280,
            "byteOffset": 47964,
            "byteStride": 12,
            "name": "bufferView_buffer_Cylinder006_POSITION_0",
            "target": 34962
        },
        {
            "buffer": 0,
            "byteLength": 5280,
            "byteOffset": 53244,
            "byteStride": 12,
            "name": "bufferView_buffer_Cylinder006_NORMAL_0",
            "target": 34962
        },
        {
            "buffer": 0,
            "byteLength": 3520,
            "byteOffset": 58524,
            "byteStride": 8,
            "name": "bufferView_buffer_Cylinder006_TEXCOORD_0_0",
            "target": 34962
        },
        {
            "buffer": 0,
            "byteLength": 4480,
            "byteOffset": 62044,
            "name": "bufferView_buffer_Cylinder006_0",
            "target": 34963
        },
        {
            "buffer": 0,
            "byteLength": 5280,
            "byteOffset": 66524,
            "byteStride": 12,
            "name": "bufferView_buffer_Cylinder007_POSITION_0",
            "target": 34962
        },
        {
            "buffer": 0,
            "byteLength": 5280,
            "byteOffset": 71804,
            "byteStride": 12,
            "name": "bufferView_buffer_Cylinder007_NORMAL_0",
            "target": 34962
        },
        {
            "buffer": 0,
            "byteLength": 3520,
            "byteOffset": 77084,
            "byteStride": 8,
            "name": "bufferView_buffer_Cylinder007_TEXCOORD_0_0",
            "target": 34962
        },
        {
            "buffer": 0,
            "byteLength": 4480,
            "byteOffset": 80604,
            "name": "bufferView_buffer_Cylinder007_0",
            "target": 34963
        }
    ],
    "buffers": [
        {
            "byteLength": 85084,
            "name": "buffer_round_table",
            "uri": "buffer_round_table.bin"
        }
    ],
    "materials": [
        {
            "alphaMode": "BLEND",
            "doubleSided": false,
            "emissiveFactor": [
                0.0,
                0.0,
                0.0
            ],
            "name": "02___Default",
            "pbrMetallicRoughness": {
                "baseColorFactor": [
                    0.12160000205039978,
                    0.03139999881386757,
                    0.015699999406933784,
                    1.0
                ],
                "metallicFactor": 0.0,
                "roughnessFactor": 1.0
            }
        },
        {
            "alphaMode": "BLEND",
            "doubleSided": false,
            "emissiveFactor": [
                0.0,
                0.0,
                0.0
            ],
            "name": "_crayfishdiffuse",
            "pbrMetallicRoughness": {
                "baseColorFactor": [
                    0.40779998898506165,
                    0.3725000023841858,
                    0.36469998955726624,
                    1.0
                ],
                "metallicFactor": 0.0,
                "roughnessFactor": 1.0
            }
        }
    ],
    "meshes": [
        {
            "name": "Cylinder001",
            "primitives": [
                {
                    "attributes": {
                        "NORMAL": 15,
                        "POSITION": 6,
                        "TEXCOORD_0": 0
                    },
                    "indices": 1,
                    "material": 1,
                    "mode": 4
                },
                {
                    "attributes": {
                        "NORMAL": 15,
                        "POSITION": 6,
                        "TEXCOORD_0": 0
                    },
                    "indices": 3,
                    "material": 0,
                    "mode": 4
                }
            ]
        },
        {
            "name": "Cylinder004",
            "primitives": [
                {
                    "attributes": {
                        "NORMAL": 16,
                        "POSITION": 2,
                        "TEXCOORD_0": 5
                    },
                    "indices": 9,
                    "material": 0,
                    "mode": 4
                }
            ]
        },
        {
            "name": "Cylinder005",
            "primitives": [
                {
                    "attributes": {
                        "NORMAL": 13,
                        "POSITION": 18,
                        "TEXCOORD_0": 17
                    },
                    "indices": 19,
                    "material": 0,
                    "mode": 4
                }
            ]
        },
        {
            "name": "Cylinder006",
            "primitives": [
                {
                    "attributes": {
                        "NORMAL": 14,
                        "POSITION": 11,
                        "TEXCOORD_0": 10
                    },
                    "indices": 20,
                    "material": 0,
                    "mode": 4
                }
            ]
        },
        {
            "name": "Cylinder007",
            "primitives": [
                {
                    "attributes": {
                        "NORMAL": 4,
                        "POSITION": 7,
                        "TEXCOORD_0": 12
                    },
                    "indices": 8,
                    "material": 0,
                    "mode": 4
                }
            ]
        }
    ],
    "nodes": [
        {
            "mesh": 0,
            "name": "Cylinder001",
            "rotation": [
                0.0,
                0.0,
                0.0,
                1.0
            ],
            "scale": [
                1.0,
                1.0,
                1.0
            ],
            "translation": [
                0.0,
                0.0,
                0.0
            ]
        },
        {
            "mesh": 1,
            "name": "Cylinder004",
            "rotation": [
                0.0,
                0.0,
                0.0,
                1.0
            ],
            "scale": [
                1.0,
                1.0,
                1.0
            ],
            "translation": [
                0.0,
                0.0,
                0.0
            ]
        },
        {
            "mesh": 2,
            "name": "Cylinder005",
            "rotation": [
                0.0,
                0.0,
                0.0,
                1.0
            ],
            "scale": [
                1.0,
                1.0,
                1.0
            ],
            "translation": [
                0.0,
                0.0,
                0.0
            ]
        },
        {
            "mesh": 3,
            "name": "Cylinder006",
            "rotation": [
                0.0,
                0.0,
                0.0,
                1.0
            ],
            "scale": [
                1.0,
                1.0,
                1.0
            ],
            "translation": [
                0.0,
                0.0,
                0.0
            ]
        },
        {
            "mesh": 4,
            "name": "Cylinder007",
            "rotation": [
                0.0,
                0.0,
                0.0,
                1.0
            ],
            "scale": [
                1.0,
                1.0,
                1.0
            ],
            "translation": [
                0.0,
                0.0,
                0.0
            ]
        }
    ],
    "scene": 0,
    "scenes": [
        {
            "extras": {
                "background_color": [
                    0.05087608844041824,
                    0.05087608844041824,
                    0.05087608844041824
                ],
                "frames_per_second": 24
            },
            "name": "Scene",
            "nodes": [
                2,
                1,
                3,
                4,
                0
            ]
        }
    ]
}
