{
    "asset" : {
        "generator" : "Khronos glTF Blender I/O v1.1.46",
        "version" : "2.0"
    },
    "scene" : 0,
    "scenes" : [
        {
            "name" : "Scene",
            "nodes" : [
                0,
                1,
                2
            ]
        }
    ],
    "nodes" : [
        {
            "name" : "Light",
            "rotation" : [
                0.16907575726509094,
                0.7558803558349609,
                -0.27217137813568115,
                0.570947527885437
            ],
            "scale" : [
                4.22155237197876,
                4.221552848815918,
                4.221554279327393
            ],
            "translation" : [
                4.928452014923096,
                13.259115219116211,
                -10.602139472961426
            ]
        },
        {
            "name" : "Camera",
            "rotation" : [
                0.483536034822464,
                0.33687159419059753,
                -0.20870360732078552,
                0.7804827094078064
            ],
            "scale" : [
                4.221552848815918,
                4.221552848815918,
                4.221552848815918
            ],
            "translation" : [
                18.786317825317383,
                9.267409324645996,
                22.880035400390625
            ]
        },
        {
            "mesh" : 0,
            "name" : "I-Zen2",
            "rotation" : [
                0.7071067690849304,
                0,
                0,
                0.7071067690849304
            ],
            "translation" : [
                -2.049875497817993,
                4.39149284362793,
                0.9696604609489441
            ]
        }
    ],
    "materials" : [
        {
            "doubleSided" : true,
            "emissiveFactor" : [
                0,
                0,
                0
            ],
            "name" : "Color_D01",
            "pbrMetallicRoughness" : {
                "baseColorFactor" : [
                    0.5,
                    0.3700000047683716,
                    0,
                    1
                ],
                "metallicFactor" : 0,
                "roughnessFactor" : 0.8114382028579712
            }
        },
        {
            "doubleSided" : true,
            "emissiveFactor" : [
                0,
                0,
                0
            ],
            "name" : "Color_008",
            "pbrMetallicRoughness" : {
                "baseColorFactor" : [
                    0.05999999865889549,
                    0.05999999865889549,
                    0.05999999865889549,
                    1
                ],
                "metallicFactor" : 0,
                "roughnessFactor" : 0.8114382028579712
            }
        },
        {
            "doubleSided" : true,
            "emissiveFactor" : [
                0,
                0,
                0
            ],
            "name" : "Default",
            "pbrMetallicRoughness" : {
                "baseColorFactor" : [
                    0.5,
                    0.5,
                    0.5,
                    1
                ],
                "metallicFactor" : 0,
                "roughnessFactor" : 0.8114382028579712
            }
        },
        {
            "doubleSided" : true,
            "emissiveFactor" : [
                0,
                0,
                0
            ],
            "name" : "Color_002",
            "pbrMetallicRoughness" : {
                "baseColorFactor" : [
                    0.38999998569488525,
                    0.38999998569488525,
                    0.38999998569488525,
                    1
                ],
                "metallicFactor" : 0,
                "roughnessFactor" : 0.8114382028579712
            }
        },
        {
            "doubleSided" : true,
            "emissiveFactor" : [
                0,
                0,
                0
            ],
            "name" : "Color_006",
            "pbrMetallicRoughness" : {
                "baseColorFactor" : [
                    0.17000000178813934,
                    0.17000000178813934,
                    0.17000000178813934,
                    1
                ],
                "metallicFactor" : 0,
                "roughnessFactor" : 0.8114382028579712
            }
        },
        {
            "doubleSided" : true,
            "emissiveFactor" : [
                0,
                0,
                0
            ],
            "name" : "Color_005",
            "pbrMetallicRoughness" : {
                "baseColorFactor" : [
                    0.2199999988079071,
                    0.2199999988079071,
                    0.2199999988079071,
                    1
                ],
                "metallicFactor" : 0,
                "roughnessFactor" : 0.8114382028579712
            }
        },
        {
            "doubleSided" : true,
            "emissiveFactor" : [
                0,
                0,
                0
            ],
            "name" : "Color_003",
            "pbrMetallicRoughness" : {
                "baseColorFactor" : [
                    0.33000001311302185,
                    0.33000001311302185,
                    0.33000001311302185,
                    1
                ],
                "metallicFactor" : 0,
                "roughnessFactor" : 0.8114382028579712
            }
        },
        {
            "doubleSided" : true,
            "emissiveFactor" : [
                0,
                0,
                0
            ],
            "name" : "Color_A07",
            "pbrMetallicRoughness" : {
                "baseColorFactor" : [
                    0.44999998807907104,
                    0.07999999821186066,
                    0,
                    1
                ],
                "metallicFactor" : 0,
                "roughnessFactor" : 0.8114382028579712
            }
        },
        {
            "doubleSided" : true,
            "emissiveFactor" : [
                0,
                0,
                0
            ],
            "name" : "Color_I01",
            "pbrMetallicRoughness" : {
                "baseColorFactor" : [
                    0,
                    0.14000000059604645,
                    0.3400000035762787,
                    1
                ],
                "metallicFactor" : 0,
                "roughnessFactor" : 0.8114382028579712
            }
        },
        {
            "doubleSided" : true,
            "emissiveFactor" : [
                0,
                0,
                0
            ],
            "name" : "Translucent_Glass_Safety",
            "pbrMetallicRoughness" : {
                "baseColorFactor" : [
                    0.4000000059604645,
                    0.12999999523162842,
                    0.029999999329447746,
                    1
                ],
                "metallicFactor" : 0,
                "roughnessFactor" : 0.8114382028579712
            }
        },
        {
            "doubleSided" : true,
            "emissiveFactor" : [
                0,
                0,
                0
            ],
            "name" : "Color_007",
            "pbrMetallicRoughness" : {
                "baseColorFactor" : [
                    0.10999999940395355,
                    0.10999999940395355,
                    0.10999999940395355,
                    1
                ],
                "metallicFactor" : 0,
                "roughnessFactor" : 0.8114382028579712
            }
        },
        {
            "doubleSided" : true,
            "emissiveFactor" : [
                0,
                0,
                0
            ],
            "name" : "Color_G12",
            "pbrMetallicRoughness" : {
                "baseColorFactor" : [
                    0.09000000357627869,
                    0.07000000029802322,
                    0.019999999552965164,
                    1
                ],
                "metallicFactor" : 0,
                "roughnessFactor" : 0.8114382028579712
            }
        }
    ],
    "meshes" : [
        {
            "name" : "I-Zen2",
            "primitives" : [
                {
                    "attributes" : {
                        "POSITION" : 0,
                        "NORMAL" : 1
                    },
                    "indices" : 2,
                    "material" : 0
                },
                {
                    "attributes" : {
                        "POSITION" : 3,
                        "NORMAL" : 4
                    },
                    "indices" : 5,
                    "material" : 1
                },
                {
                    "attributes" : {
                        "POSITION" : 6,
                        "NORMAL" : 7
                    },
                    "indices" : 8,
                    "material" : 2
                },
                {
                    "attributes" : {
                        "POSITION" : 9,
                        "NORMAL" : 10
                    },
                    "indices" : 11,
                    "material" : 3
                },
                {
                    "attributes" : {
                        "POSITION" : 12,
                        "NORMAL" : 13
                    },
                    "indices" : 14,
                    "material" : 4
                },
                {
                    "attributes" : {
                        "POSITION" : 15,
                        "NORMAL" : 16
                    },
                    "indices" : 17,
                    "material" : 5
                },
                {
                    "attributes" : {
                        "POSITION" : 18,
                        "NORMAL" : 19
                    },
                    "indices" : 20,
                    "material" : 6
                },
                {
                    "attributes" : {
                        "POSITION" : 21,
                        "NORMAL" : 22
                    },
                    "indices" : 23,
                    "material" : 7
                },
                {
                    "attributes" : {
                        "POSITION" : 24,
                        "NORMAL" : 25
                    },
                    "indices" : 26,
                    "material" : 8
                },
                {
                    "attributes" : {
                        "POSITION" : 27,
                        "NORMAL" : 28
                    },
                    "indices" : 29,
                    "material" : 9
                },
                {
                    "attributes" : {
                        "POSITION" : 30,
                        "NORMAL" : 31
                    },
                    "indices" : 32,
                    "material" : 10
                },
                {
                    "attributes" : {
                        "POSITION" : 33,
                        "NORMAL" : 34
                    },
                    "indices" : 35,
                    "material" : 11
                }
            ]
        }
    ],
    "accessors" : [
        {
            "bufferView" : 0,
            "componentType" : 5126,
            "count" : 8312,
            "max" : [
                8.051336288452148,
                3.606971502304077,
                3.118252754211426
            ],
            "min" : [
                -9.43961238861084,
                -3.6069817543029785,
                -5.423091411590576
            ],
            "type" : "VEC3"
        },
        {
            "bufferView" : 1,
            "componentType" : 5126,
            "count" : 8312,
            "type" : "VEC3"
        },
        {
            "bufferView" : 2,
            "componentType" : 5123,
            "count" : 10050,
            "type" : "SCALAR"
        },
        {
            "bufferView" : 3,
            "componentType" : 5126,
            "count" : 11481,
            "max" : [
                6.4201483726501465,
                6.35439395904541,
                6.796599388122559
            ],
            "min" : [
                -3.368461847305298,
                -6.354405403137207,
                -5.423091411590576
            ],
            "type" : "VEC3"
        },
        {
            "bufferView" : 4,
            "componentType" : 5126,
            "count" : 11481,
            "type" : "VEC3"
        },
        {
            "bufferView" : 5,
            "componentType" : 5123,
            "count" : 12960,
            "type" : "SCALAR"
        },
        {
            "bufferView" : 6,
            "componentType" : 5126,
            "count" : 2140,
            "max" : [
                7.878152370452881,
                6.046593189239502,
                4.514726638793945
            ],
            "min" : [
                -7.828250885009766,
                -6.046606540679932,
                -3.423068046569824
            ],
            "type" : "VEC3"
        },
        {
            "bufferView" : 7,
            "componentType" : 5126,
            "count" : 2140,
            "type" : "VEC3"
        },
        {
            "bufferView" : 8,
            "componentType" : 5123,
            "count" : 2742,
            "type" : "SCALAR"
        },
        {
            "bufferView" : 9,
            "componentType" : 5126,
            "count" : 7170,
            "max" : [
                3.940624475479126,
                6.428796291351318,
                5.397286415100098
            ],
            "min" : [
                -1.969149112701416,
                -6.428805828094482,
                -5.652994155883789
            ],
            "type" : "VEC3"
        },
        {
            "bufferView" : 10,
            "componentType" : 5126,
            "count" : 7170,
            "type" : "VEC3"
        },
        {
            "bufferView" : 11,
            "componentType" : 5123,
            "count" : 8904,
            "type" : "SCALAR"
        },
        {
            "bufferView" : 12,
            "componentType" : 5126,
            "count" : 3762,
            "max" : [
                8.645405769348145,
                6.097886085510254,
                3.9857277870178223
            ],
            "min" : [
                -3.8442373275756836,
                -6.097897529602051,
                -5.350867748260498
            ],
            "type" : "VEC3"
        },
        {
            "bufferView" : 13,
            "componentType" : 5126,
            "count" : 3762,
            "type" : "VEC3"
        },
        {
            "bufferView" : 14,
            "componentType" : 5123,
            "count" : 4374,
            "type" : "SCALAR"
        },
        {
            "bufferView" : 15,
            "componentType" : 5126,
            "count" : 3408,
            "max" : [
                7.795386791229248,
                3.6331942081451416,
                2.993199110031128
            ],
            "min" : [
                0.43493685126304626,
                -3.633204460144043,
                -4.828394412994385
            ],
            "type" : "VEC3"
        },
        {
            "bufferView" : 16,
            "componentType" : 5126,
            "count" : 3408,
            "type" : "VEC3"
        },
        {
            "bufferView" : 17,
            "componentType" : 5123,
            "count" : 4968,
            "type" : "SCALAR"
        },
        {
            "bufferView" : 18,
            "componentType" : 5126,
            "count" : 40474,
            "max" : [
                8.760987281799316,
                6.103995323181152,
                5.712799072265625
            ],
            "min" : [
                -7.93961238861084,
                -6.104005336761475,
                -3.7068512439727783
            ],
            "type" : "VEC3"
        },
        {
            "bufferView" : 19,
            "componentType" : 5126,
            "count" : 40474,
            "type" : "VEC3"
        },
        {
            "bufferView" : 20,
            "componentType" : 5123,
            "count" : 46620,
            "type" : "SCALAR"
        },
        {
            "bufferView" : 21,
            "componentType" : 5126,
            "count" : 16016,
            "max" : [
                8.415108680725098,
                4.861007213592529,
                4.662810802459717
            ],
            "min" : [
                -7.93961238861084,
                -4.861016750335693,
                -4.21722936630249
            ],
            "type" : "VEC3"
        },
        {
            "bufferView" : 22,
            "componentType" : 5126,
            "count" : 16016,
            "type" : "VEC3"
        },
        {
            "bufferView" : 23,
            "componentType" : 5123,
            "count" : 17238,
            "type" : "SCALAR"
        },
        {
            "bufferView" : 24,
            "componentType" : 5126,
            "count" : 1589,
            "max" : [
                10.47250747680664,
                4.456768989562988,
                4.405628204345703
            ],
            "min" : [
                -7.93961238861084,
                -4.456782341003418,
                -4.908077716827393
            ],
            "type" : "VEC3"
        },
        {
            "bufferView" : 25,
            "componentType" : 5126,
            "count" : 1589,
            "type" : "VEC3"
        },
        {
            "bufferView" : 26,
            "componentType" : 5123,
            "count" : 2346,
            "type" : "SCALAR"
        },
        {
            "bufferView" : 27,
            "componentType" : 5126,
            "count" : 136,
            "max" : [
                8.611968040466309,
                1.6447802782058716,
                3.433140516281128
            ],
            "min" : [
                6.624187469482422,
                -1.6447902917861938,
                -2.5855884552001953
            ],
            "type" : "VEC3"
        },
        {
            "bufferView" : 28,
            "componentType" : 5126,
            "count" : 136,
            "type" : "VEC3"
        },
        {
            "bufferView" : 29,
            "componentType" : 5123,
            "count" : 144,
            "type" : "SCALAR"
        },
        {
            "bufferView" : 30,
            "componentType" : 5126,
            "count" : 968,
            "max" : [
                6.272960662841797,
                3.722788095474243,
                3.3097989559173584
            ],
            "min" : [
                -3.4692373275756836,
                -3.7227983474731445,
                -2.5108110904693604
            ],
            "type" : "VEC3"
        },
        {
            "bufferView" : 31,
            "componentType" : 5126,
            "count" : 968,
            "type" : "VEC3"
        },
        {
            "bufferView" : 32,
            "componentType" : 5123,
            "count" : 1332,
            "type" : "SCALAR"
        },
        {
            "bufferView" : 33,
            "componentType" : 5126,
            "count" : 72,
            "max" : [
                8.578210830688477,
                0.9767333269119263,
                0.7152228355407715
            ],
            "min" : [
                8.09305477142334,
                -0.9767433404922485,
                -1.1744588613510132
            ],
            "type" : "VEC3"
        },
        {
            "bufferView" : 34,
            "componentType" : 5126,
            "count" : 72,
            "type" : "VEC3"
        },
        {
            "bufferView" : 35,
            "componentType" : 5123,
            "count" : 72,
            "type" : "SCALAR"
        }
    ],
    "bufferViews" : [
        {
            "buffer" : 0,
            "byteLength" : 99744,
            "byteOffset" : 0
        },
        {
            "buffer" : 0,
            "byteLength" : 99744,
            "byteOffset" : 99744
        },
        {
            "buffer" : 0,
            "byteLength" : 20100,
            "byteOffset" : 199488
        },
        {
            "buffer" : 0,
            "byteLength" : 137772,
            "byteOffset" : 219588
        },
        {
            "buffer" : 0,
            "byteLength" : 137772,
            "byteOffset" : 357360
        },
        {
            "buffer" : 0,
            "byteLength" : 25920,
            "byteOffset" : 495132
        },
        {
            "buffer" : 0,
            "byteLength" : 25680,
            "byteOffset" : 521052
        },
        {
            "buffer" : 0,
            "byteLength" : 25680,
            "byteOffset" : 546732
        },
        {
            "buffer" : 0,
            "byteLength" : 5484,
            "byteOffset" : 572412
        },
        {
            "buffer" : 0,
            "byteLength" : 86040,
            "byteOffset" : 577896
        },
        {
            "buffer" : 0,
            "byteLength" : 86040,
            "byteOffset" : 663936
        },
        {
            "buffer" : 0,
            "byteLength" : 17808,
            "byteOffset" : 749976
        },
        {
            "buffer" : 0,
            "byteLength" : 45144,
            "byteOffset" : 767784
        },
        {
            "buffer" : 0,
            "byteLength" : 45144,
            "byteOffset" : 812928
        },
        {
            "buffer" : 0,
            "byteLength" : 8748,
            "byteOffset" : 858072
        },
        {
            "buffer" : 0,
            "byteLength" : 40896,
            "byteOffset" : 866820
        },
        {
            "buffer" : 0,
            "byteLength" : 40896,
            "byteOffset" : 907716
        },
        {
            "buffer" : 0,
            "byteLength" : 9936,
            "byteOffset" : 948612
        },
        {
            "buffer" : 0,
            "byteLength" : 485688,
            "byteOffset" : 958548
        },
        {
            "buffer" : 0,
            "byteLength" : 485688,
            "byteOffset" : 1444236
        },
        {
            "buffer" : 0,
            "byteLength" : 93240,
            "byteOffset" : 1929924
        },
        {
            "buffer" : 0,
            "byteLength" : 192192,
            "byteOffset" : 2023164
        },
        {
            "buffer" : 0,
            "byteLength" : 192192,
            "byteOffset" : 2215356
        },
        {
            "buffer" : 0,
            "byteLength" : 34476,
            "byteOffset" : 2407548
        },
        {
            "buffer" : 0,
            "byteLength" : 19068,
            "byteOffset" : 2442024
        },
        {
            "buffer" : 0,
            "byteLength" : 19068,
            "byteOffset" : 2461092
        },
        {
            "buffer" : 0,
            "byteLength" : 4692,
            "byteOffset" : 2480160
        },
        {
            "buffer" : 0,
            "byteLength" : 1632,
            "byteOffset" : 2484852
        },
        {
            "buffer" : 0,
            "byteLength" : 1632,
            "byteOffset" : 2486484
        },
        {
            "buffer" : 0,
            "byteLength" : 288,
            "byteOffset" : 2488116
        },
        {
            "buffer" : 0,
            "byteLength" : 11616,
            "byteOffset" : 2488404
        },
        {
            "buffer" : 0,
            "byteLength" : 11616,
            "byteOffset" : 2500020
        },
        {
            "buffer" : 0,
            "byteLength" : 2664,
            "byteOffset" : 2511636
        },
        {
            "buffer" : 0,
            "byteLength" : 864,
            "byteOffset" : 2514300
        },
        {
            "buffer" : 0,
            "byteLength" : 864,
            "byteOffset" : 2515164
        },
        {
            "buffer" : 0,
            "byteLength" : 144,
            "byteOffset" : 2516028
        }
    ],
    "buffers" : [
        {
            "byteLength" : 2516172,
            "uri" : "toytruck.bin"
        }
    ]
}
