{
    "asset" : {
        "generator" : "Khronos glTF Blender I/O v1.1.46",
        "version" : "2.0"
    },
    "scene" : 0,
    "scenes" : [
        {
            "name" : "Scene",
            "nodes" : [
                0
            ]
        }
    ],
    "nodes" : [
        {
            "mesh" : 0,
            "name" : "I-Zen2"
        }
    ],
    "materials" : [
        {
            "doubleSided" : true,
            "emissiveFactor" : [
                0,
                0,
                0
            ],
            "name" : "Color_D01",
            "pbrMetallicRoughness" : {
                "baseColorFactor" : [
                    0.5,
                    0.3700000047683716,
                    0,
                    1
                ],
                "metallicFactor" : 0,
                "roughnessFactor" : 0.8114382028579712
            }
        },
        {
            "doubleSided" : true,
            "emissiveFactor" : [
                0,
                0,
                0
            ],
            "name" : "Color_008",
            "pbrMetallicRoughness" : {
                "baseColorFactor" : [
                    0.05999999865889549,
                    0.05999999865889549,
                    0.05999999865889549,
                    1
                ],
                "metallicFactor" : 0,
                "roughnessFactor" : 0.8114382028579712
            }
        },
        {
            "doubleSided" : true,
            "emissiveFactor" : [
                0,
                0,
                0
            ],
            "name" : "Default",
            "pbrMetallicRoughness" : {
                "baseColorFactor" : [
                    0.5,
                    0.5,
                    0.5,
                    1
                ],
                "metallicFactor" : 0,
                "roughnessFactor" : 0.8114382028579712
            }
        },
        {
            "doubleSided" : true,
            "emissiveFactor" : [
                0,
                0,
                0
            ],
            "name" : "Color_002",
            "pbrMetallicRoughness" : {
                "baseColorFactor" : [
                    0.38999998569488525,
                    0.38999998569488525,
                    0.38999998569488525,
                    1
                ],
                "metallicFactor" : 0,
                "roughnessFactor" : 0.8114382028579712
            }
        },
        {
            "doubleSided" : true,
            "emissiveFactor" : [
                0,
                0,
                0
            ],
            "name" : "Color_006",
            "pbrMetallicRoughness" : {
                "baseColorFactor" : [
                    0.17000000178813934,
                    0.17000000178813934,
                    0.17000000178813934,
                    1
                ],
                "metallicFactor" : 0,
                "roughnessFactor" : 0.8114382028579712
            }
        },
        {
            "doubleSided" : true,
            "emissiveFactor" : [
                0,
                0,
                0
            ],
            "name" : "Color_005",
            "pbrMetallicRoughness" : {
                "baseColorFactor" : [
                    0.2199999988079071,
                    0.2199999988079071,
                    0.2199999988079071,
                    1
                ],
                "metallicFactor" : 0,
                "roughnessFactor" : 0.8114382028579712
            }
        },
        {
            "doubleSided" : true,
            "emissiveFactor" : [
                0,
                0,
                0
            ],
            "name" : "Color_003",
            "pbrMetallicRoughness" : {
                "baseColorFactor" : [
                    0.33000001311302185,
                    0.33000001311302185,
                    0.33000001311302185,
                    1
                ],
                "metallicFactor" : 0,
                "roughnessFactor" : 0.8114382028579712
            }
        },
        {
            "doubleSided" : true,
            "emissiveFactor" : [
                0,
                0,
                0
            ],
            "name" : "Color_A07",
            "pbrMetallicRoughness" : {
                "baseColorFactor" : [
                    0.44999998807907104,
                    0.07999999821186066,
                    0,
                    1
                ],
                "metallicFactor" : 0,
                "roughnessFactor" : 0.8114382028579712
            }
        },
        {
            "doubleSided" : true,
            "emissiveFactor" : [
                0,
                0,
                0
            ],
            "name" : "Color_I01",
            "pbrMetallicRoughness" : {
                "baseColorFactor" : [
                    0,
                    0.14000000059604645,
                    0.3400000035762787,
                    1
                ],
                "metallicFactor" : 0,
                "roughnessFactor" : 0.8114382028579712
            }
        },
        {
            "doubleSided" : true,
            "emissiveFactor" : [
                0,
                0,
                0
            ],
            "name" : "Translucent_Glass_Safety",
            "pbrMetallicRoughness" : {
                "baseColorFactor" : [
                    0.4000000059604645,
                    0.12999999523162842,
                    0.029999999329447746,
                    1
                ],
                "metallicFactor" : 0,
                "roughnessFactor" : 0.8114382028579712
            }
        },
        {
            "doubleSided" : true,
            "emissiveFactor" : [
                0,
                0,
                0
            ],
            "name" : "Color_007",
            "pbrMetallicRoughness" : {
                "baseColorFactor" : [
                    0.10999999940395355,
                    0.10999999940395355,
                    0.10999999940395355,
                    1
                ],
                "metallicFactor" : 0,
                "roughnessFactor" : 0.8114382028579712
            }
        },
        {
            "doubleSided" : true,
            "emissiveFactor" : [
                0,
                0,
                0
            ],
            "name" : "Color_G12",
            "pbrMetallicRoughness" : {
                "baseColorFactor" : [
                    0.09000000357627869,
                    0.07000000029802322,
                    0.019999999552965164,
                    1
                ],
                "metallicFactor" : 0,
                "roughnessFactor" : 0.8114382028579712
            }
        }
    ],
    "meshes" : [
        {
            "name" : "I-Zen2",
            "primitives" : [
                {
                    "attributes" : {
                        "POSITION" : 0,
                        "NORMAL" : 1
                    },
                    "indices" : 2,
                    "material" : 0
                },
                {
                    "attributes" : {
                        "POSITION" : 3,
                        "NORMAL" : 4
                    },
                    "indices" : 5,
                    "material" : 1
                },
                {
                    "attributes" : {
                        "POSITION" : 6,
                        "NORMAL" : 7
                    },
                    "indices" : 8,
                    "material" : 2
                },
                {
                    "attributes" : {
                        "POSITION" : 9,
                        "NORMAL" : 10
                    },
                    "indices" : 11,
                    "material" : 3
                },
                {
                    "attributes" : {
                        "POSITION" : 12,
                        "NORMAL" : 13
                    },
                    "indices" : 14,
                    "material" : 4
                },
                {
                    "attributes" : {
                        "POSITION" : 15,
                        "NORMAL" : 16
                    },
                    "indices" : 17,
                    "material" : 5
                },
                {
                    "attributes" : {
                        "POSITION" : 18,
                        "NORMAL" : 19
                    },
                    "indices" : 20,
                    "material" : 6
                },
                {
                    "attributes" : {
                        "POSITION" : 21,
                        "NORMAL" : 22
                    },
                    "indices" : 23,
                    "material" : 7
                },
                {
                    "attributes" : {
                        "POSITION" : 24,
                        "NORMAL" : 25
                    },
                    "indices" : 26,
                    "material" : 8
                },
                {
                    "attributes" : {
                        "POSITION" : 27,
                        "NORMAL" : 28
                    },
                    "indices" : 29,
                    "material" : 9
                },
                {
                    "attributes" : {
                        "POSITION" : 30,
                        "NORMAL" : 31
                    },
                    "indices" : 32,
                    "material" : 10
                },
                {
                    "attributes" : {
                        "POSITION" : 33,
                        "NORMAL" : 34
                    },
                    "indices" : 35,
                    "material" : 11
                }
            ]
        }
    ],
    "accessors" : [
        {
            "bufferView" : 0,
            "componentType" : 5126,
            "count" : 9775,
            "max" : [
                0.15509958565235138,
                0.09802036732435226,
                0.06963229179382324
            ],
            "min" : [
                -0.18292465806007385,
                -0.06704685091972351,
                -0.06978220492601395
            ],
            "type" : "VEC3"
        },
        {
            "bufferView" : 1,
            "componentType" : 5126,
            "count" : 9775,
            "type" : "VEC3"
        },
        {
            "bufferView" : 2,
            "componentType" : 5123,
            "count" : 10050,
            "type" : "SCALAR"
        },
        {
            "bufferView" : 3,
            "componentType" : 5126,
            "count" : 12891,
            "max" : [
                0.12357577681541443,
                0.09802036732435226,
                0.12272807210683823
            ],
            "min" : [
                -0.06559562683105469,
                -0.13813342154026031,
                -0.1228780671954155
            ],
            "type" : "VEC3"
        },
        {
            "bufferView" : 4,
            "componentType" : 5126,
            "count" : 12891,
            "type" : "VEC3"
        },
        {
            "bufferView" : 5,
            "componentType" : 5123,
            "count" : 12960,
            "type" : "SCALAR"
        },
        {
            "bufferView" : 6,
            "componentType" : 5126,
            "count" : 2712,
            "max" : [
                0.15175268054008484,
                0.05936858430504799,
                0.11677958816289902
            ],
            "min" : [
                -0.1517840176820755,
                -0.09403469413518906,
                -0.11692964285612106
            ],
            "type" : "VEC3"
        },
        {
            "bufferView" : 7,
            "componentType" : 5126,
            "count" : 2712,
            "type" : "VEC3"
        },
        {
            "bufferView" : 8,
            "componentType" : 5123,
            "count" : 2742,
            "type" : "SCALAR"
        },
        {
            "bufferView" : 9,
            "componentType" : 5126,
            "count" : 8829,
            "max" : [
                0.07565733045339584,
                0.10246338695287704,
                0.12416591495275497
            ],
            "min" : [
                -0.03855297714471817,
                -0.11109074205160141,
                -0.12431588768959045
            ],
            "type" : "VEC3"
        },
        {
            "bufferView" : 10,
            "componentType" : 5126,
            "count" : 8829,
            "type" : "VEC3"
        },
        {
            "bufferView" : 11,
            "componentType" : 5123,
            "count" : 8904,
            "type" : "SCALAR"
        },
        {
            "bufferView" : 12,
            "componentType" : 5126,
            "count" : 4329,
            "max" : [
                0.16658036410808563,
                0.09662459045648575,
                0.11777087301015854
            ],
            "min" : [
                -0.07479030638933182,
                -0.0838114321231842,
                -0.1179208755493164
            ],
            "type" : "VEC3"
        },
        {
            "bufferView" : 13,
            "componentType" : 5126,
            "count" : 4329,
            "type" : "VEC3"
        },
        {
            "bufferView" : 14,
            "componentType" : 5123,
            "count" : 4374,
            "type" : "SCALAR"
        },
        {
            "bufferView" : 15,
            "componentType" : 5126,
            "count" : 4828,
            "max" : [
                0.15015318989753723,
                0.08652744442224503,
                0.07013905793428421
            ],
            "min" : [
                0.007907581515610218,
                -0.06463012844324112,
                -0.07028897106647491
            ],
            "type" : "VEC3"
        },
        {
            "bufferView" : 16,
            "componentType" : 5126,
            "count" : 4828,
            "type" : "VEC3"
        },
        {
            "bufferView" : 17,
            "componentType" : 5123,
            "count" : 4968,
            "type" : "SCALAR"
        },
        {
            "bufferView" : 18,
            "componentType" : 5126,
            "count" : 45326,
            "max" : [
                0.1688140630722046,
                0.06485287845134735,
                0.11788894236087799
            ],
            "min" : [
                -0.15393614768981934,
                -0.1171882301568985,
                -0.11803890764713287
            ],
            "type" : "VEC3"
        },
        {
            "bufferView" : 19,
            "componentType" : 5126,
            "count" : 45326,
            "type" : "VEC3"
        },
        {
            "bufferView" : 20,
            "componentType" : 5123,
            "count" : 46620,
            "type" : "SCALAR"
        },
        {
            "bufferView" : 21,
            "componentType" : 5126,
            "count" : 17154,
            "max" : [
                0.1621297150850296,
                0.07471628487110138,
                0.09386733919382095
            ],
            "min" : [
                -0.15393614768981934,
                -0.09689648449420929,
                -0.09401731193065643
            ],
            "type" : "VEC3"
        },
        {
            "bufferView" : 22,
            "componentType" : 5126,
            "count" : 17154,
            "type" : "VEC3"
        },
        {
            "bufferView" : 23,
            "componentType" : 5123,
            "count" : 17238,
            "type" : "SCALAR"
        },
        {
            "bufferView" : 24,
            "componentType" : 5126,
            "count" : 2219,
            "max" : [
                0.20189031958580017,
                0.08806739002466202,
                0.08605518192052841
            ],
            "min" : [
                -0.15393614768981934,
                -0.09192629158496857,
                -0.08620522171258926
            ],
            "type" : "VEC3"
        },
        {
            "bufferView" : 25,
            "componentType" : 5126,
            "count" : 2219,
            "type" : "VEC3"
        },
        {
            "bufferView" : 26,
            "componentType" : 5123,
            "count" : 2346,
            "type" : "SCALAR"
        },
        {
            "bufferView" : 27,
            "componentType" : 5126,
            "count" : 144,
            "max" : [
                0.16593416035175323,
                0.04318372532725334,
                0.0317116342484951
            ],
            "min" : [
                0.12751898169517517,
                -0.07313229143619537,
                -0.031861528754234314
            ],
            "type" : "VEC3"
        },
        {
            "bufferView" : 28,
            "componentType" : 5126,
            "count" : 144,
            "type" : "VEC3"
        },
        {
            "bufferView" : 29,
            "componentType" : 5123,
            "count" : 144,
            "type" : "SCALAR"
        },
        {
            "bufferView" : 30,
            "componentType" : 5126,
            "count" : 1306,
            "max" : [
                0.12073127925395966,
                0.04173861816525459,
                0.07187053561210632
            ],
            "min" : [
                -0.06754318624734879,
                -0.07074862718582153,
                -0.07202042639255524
            ],
            "type" : "VEC3"
        },
        {
            "bufferView" : 31,
            "componentType" : 5126,
            "count" : 1306,
            "type" : "VEC3"
        },
        {
            "bufferView" : 32,
            "componentType" : 5123,
            "count" : 1332,
            "type" : "SCALAR"
        },
        {
            "bufferView" : 33,
            "componentType" : 5126,
            "count" : 72,
            "max" : [
                0.1652817726135254,
                0.01591268740594387,
                0.018801162019371986
            ],
            "min" : [
                0.1559058129787445,
                -0.02060668170452118,
                -0.018951086327433586
            ],
            "type" : "VEC3"
        },
        {
            "bufferView" : 34,
            "componentType" : 5126,
            "count" : 72,
            "type" : "VEC3"
        },
        {
            "bufferView" : 35,
            "componentType" : 5123,
            "count" : 72,
            "type" : "SCALAR"
        }
    ],
    "bufferViews" : [
        {
            "buffer" : 0,
            "byteLength" : 117300,
            "byteOffset" : 0
        },
        {
            "buffer" : 0,
            "byteLength" : 117300,
            "byteOffset" : 117300
        },
        {
            "buffer" : 0,
            "byteLength" : 20100,
            "byteOffset" : 234600
        },
        {
            "buffer" : 0,
            "byteLength" : 154692,
            "byteOffset" : 254700
        },
        {
            "buffer" : 0,
            "byteLength" : 154692,
            "byteOffset" : 409392
        },
        {
            "buffer" : 0,
            "byteLength" : 25920,
            "byteOffset" : 564084
        },
        {
            "buffer" : 0,
            "byteLength" : 32544,
            "byteOffset" : 590004
        },
        {
            "buffer" : 0,
            "byteLength" : 32544,
            "byteOffset" : 622548
        },
        {
            "buffer" : 0,
            "byteLength" : 5484,
            "byteOffset" : 655092
        },
        {
            "buffer" : 0,
            "byteLength" : 105948,
            "byteOffset" : 660576
        },
        {
            "buffer" : 0,
            "byteLength" : 105948,
            "byteOffset" : 766524
        },
        {
            "buffer" : 0,
            "byteLength" : 17808,
            "byteOffset" : 872472
        },
        {
            "buffer" : 0,
            "byteLength" : 51948,
            "byteOffset" : 890280
        },
        {
            "buffer" : 0,
            "byteLength" : 51948,
            "byteOffset" : 942228
        },
        {
            "buffer" : 0,
            "byteLength" : 8748,
            "byteOffset" : 994176
        },
        {
            "buffer" : 0,
            "byteLength" : 57936,
            "byteOffset" : 1002924
        },
        {
            "buffer" : 0,
            "byteLength" : 57936,
            "byteOffset" : 1060860
        },
        {
            "buffer" : 0,
            "byteLength" : 9936,
            "byteOffset" : 1118796
        },
        {
            "buffer" : 0,
            "byteLength" : 543912,
            "byteOffset" : 1128732
        },
        {
            "buffer" : 0,
            "byteLength" : 543912,
            "byteOffset" : 1672644
        },
        {
            "buffer" : 0,
            "byteLength" : 93240,
            "byteOffset" : 2216556
        },
        {
            "buffer" : 0,
            "byteLength" : 205848,
            "byteOffset" : 2309796
        },
        {
            "buffer" : 0,
            "byteLength" : 205848,
            "byteOffset" : 2515644
        },
        {
            "buffer" : 0,
            "byteLength" : 34476,
            "byteOffset" : 2721492
        },
        {
            "buffer" : 0,
            "byteLength" : 26628,
            "byteOffset" : 2755968
        },
        {
            "buffer" : 0,
            "byteLength" : 26628,
            "byteOffset" : 2782596
        },
        {
            "buffer" : 0,
            "byteLength" : 4692,
            "byteOffset" : 2809224
        },
        {
            "buffer" : 0,
            "byteLength" : 1728,
            "byteOffset" : 2813916
        },
        {
            "buffer" : 0,
            "byteLength" : 1728,
            "byteOffset" : 2815644
        },
        {
            "buffer" : 0,
            "byteLength" : 288,
            "byteOffset" : 2817372
        },
        {
            "buffer" : 0,
            "byteLength" : 15672,
            "byteOffset" : 2817660
        },
        {
            "buffer" : 0,
            "byteLength" : 15672,
            "byteOffset" : 2833332
        },
        {
            "buffer" : 0,
            "byteLength" : 2664,
            "byteOffset" : 2849004
        },
        {
            "buffer" : 0,
            "byteLength" : 864,
            "byteOffset" : 2851668
        },
        {
            "buffer" : 0,
            "byteLength" : 864,
            "byteOffset" : 2852532
        },
        {
            "buffer" : 0,
            "byteLength" : 144,
            "byteOffset" : 2853396
        }
    ],
    "buffers" : [
        {
            "byteLength" : 2853540,
            "uri" : "toytruck.bin"
        }
    ]
}
