{
    "asset" : {
        "generator" : "Khronos glTF Blender I/O v1.1.46",
        "version" : "2.0"
    },
    "scene" : 0,
    "scenes" : [
        {
            "name" : "Scene",
            "nodes" : [
                0,
                1,
                2,
                3,
                4
            ]
        }
    ],
    "nodes" : [
        {
            "name" : "Light",
            "rotation" : [
                0.16907575726509094,
                0.7558803558349609,
                -0.27217137813568115,
                0.570947527885437
            ],
            "translation" : [
                4.076245307922363,
                5.903861999511719,
                -1.0054539442062378
            ]
        },
        {
            "name" : "Camera",
            "rotation" : [
                0.483536034822464,
                0.33687159419059753,
                -0.20870360732078552,
                0.7804827094078064
            ],
            "translation" : [
                7.358891487121582,
                4.958309173583984,
                6.925790786743164
            ]
        },
        {
            "name" : "Light.001",
            "rotation" : [
                0.5232755541801453,
                0.34203407168388367,
                -0.7269423007965088,
                0.284166157245636
            ],
            "scale" : [
                4.221552848815918,
                4.221555233001709,
                4.221553325653076
            ],
            "translation" : [
                4.928452014923096,
                13.25911808013916,
                -10.60213851928711
            ]
        },
        {
            "name" : "Camera.001",
            "rotation" : [
                0.8937963247299194,
                0.09062855690717697,
                -0.3857799172401428,
                0.20997287333011627
            ],
            "scale" : [
                4.221553325653076,
                4.221553325653076,
                4.221552848815918
            ],
            "translation" : [
                18.786317825317383,
                9.267407417297363,
                22.88003921508789
            ]
        },
        {
            "mesh" : 0,
            "name" : "I-Zen2",
            "translation" : [
                -0.06865048408508301,
                1.7997941970825195,
                0.03174185752868652
            ]
        }
    ],
    "materials" : [
        {
            "doubleSided" : true,
            "emissiveFactor" : [
                0,
                0,
                0
            ],
            "name" : "Color_D01",
            "pbrMetallicRoughness" : {
                "baseColorFactor" : [
                    0.5,
                    0.3700000047683716,
                    0,
                    1
                ],
                "metallicFactor" : 0,
                "roughnessFactor" : 0.8114382028579712
            }
        },
        {
            "doubleSided" : true,
            "emissiveFactor" : [
                0,
                0,
                0
            ],
            "name" : "Color_008",
            "pbrMetallicRoughness" : {
                "baseColorFactor" : [
                    0.05999999865889549,
                    0.05999999865889549,
                    0.05999999865889549,
                    1
                ],
                "metallicFactor" : 0,
                "roughnessFactor" : 0.8114382028579712
            }
        },
        {
            "doubleSided" : true,
            "emissiveFactor" : [
                0,
                0,
                0
            ],
            "name" : "Default",
            "pbrMetallicRoughness" : {
                "baseColorFactor" : [
                    0.5,
                    0.5,
                    0.5,
                    1
                ],
                "metallicFactor" : 0,
                "roughnessFactor" : 0.8114382028579712
            }
        },
        {
            "doubleSided" : true,
            "emissiveFactor" : [
                0,
                0,
                0
            ],
            "name" : "Color_002",
            "pbrMetallicRoughness" : {
                "baseColorFactor" : [
                    0.38999998569488525,
                    0.38999998569488525,
                    0.38999998569488525,
                    1
                ],
                "metallicFactor" : 0,
                "roughnessFactor" : 0.8114382028579712
            }
        },
        {
            "doubleSided" : true,
            "emissiveFactor" : [
                0,
                0,
                0
            ],
            "name" : "Color_006",
            "pbrMetallicRoughness" : {
                "baseColorFactor" : [
                    0.17000000178813934,
                    0.17000000178813934,
                    0.17000000178813934,
                    1
                ],
                "metallicFactor" : 0,
                "roughnessFactor" : 0.8114382028579712
            }
        },
        {
            "doubleSided" : true,
            "emissiveFactor" : [
                0,
                0,
                0
            ],
            "name" : "Color_005",
            "pbrMetallicRoughness" : {
                "baseColorFactor" : [
                    0.2199999988079071,
                    0.2199999988079071,
                    0.2199999988079071,
                    1
                ],
                "metallicFactor" : 0,
                "roughnessFactor" : 0.8114382028579712
            }
        },
        {
            "doubleSided" : true,
            "emissiveFactor" : [
                0,
                0,
                0
            ],
            "name" : "Color_003",
            "pbrMetallicRoughness" : {
                "baseColorFactor" : [
                    0.33000001311302185,
                    0.33000001311302185,
                    0.33000001311302185,
                    1
                ],
                "metallicFactor" : 0,
                "roughnessFactor" : 0.8114382028579712
            }
        },
        {
            "doubleSided" : true,
            "emissiveFactor" : [
                0,
                0,
                0
            ],
            "name" : "Color_A07",
            "pbrMetallicRoughness" : {
                "baseColorFactor" : [
                    0.44999998807907104,
                    0.07999999821186066,
                    0,
                    1
                ],
                "metallicFactor" : 0,
                "roughnessFactor" : 0.8114382028579712
            }
        },
        {
            "doubleSided" : true,
            "emissiveFactor" : [
                0,
                0,
                0
            ],
            "name" : "Color_I01",
            "pbrMetallicRoughness" : {
                "baseColorFactor" : [
                    0,
                    0.14000000059604645,
                    0.3400000035762787,
                    1
                ],
                "metallicFactor" : 0,
                "roughnessFactor" : 0.8114382028579712
            }
        },
        {
            "doubleSided" : true,
            "emissiveFactor" : [
                0,
                0,
                0
            ],
            "name" : "Translucent_Glass_Safety",
            "pbrMetallicRoughness" : {
                "baseColorFactor" : [
                    0.4000000059604645,
                    0.12999999523162842,
                    0.029999999329447746,
                    1
                ],
                "metallicFactor" : 0,
                "roughnessFactor" : 0.8114382028579712
            }
        },
        {
            "doubleSided" : true,
            "emissiveFactor" : [
                0,
                0,
                0
            ],
            "name" : "Color_007",
            "pbrMetallicRoughness" : {
                "baseColorFactor" : [
                    0.10999999940395355,
                    0.10999999940395355,
                    0.10999999940395355,
                    1
                ],
                "metallicFactor" : 0,
                "roughnessFactor" : 0.8114382028579712
            }
        },
        {
            "doubleSided" : true,
            "emissiveFactor" : [
                0,
                0,
                0
            ],
            "name" : "Color_G12",
            "pbrMetallicRoughness" : {
                "baseColorFactor" : [
                    0.09000000357627869,
                    0.07000000029802322,
                    0.019999999552965164,
                    1
                ],
                "metallicFactor" : 0,
                "roughnessFactor" : 0.8114382028579712
            }
        }
    ],
    "meshes" : [
        {
            "name" : "I-Zen2",
            "primitives" : [
                {
                    "attributes" : {
                        "POSITION" : 0,
                        "NORMAL" : 1
                    },
                    "indices" : 2,
                    "material" : 0
                },
                {
                    "attributes" : {
                        "POSITION" : 3,
                        "NORMAL" : 4
                    },
                    "indices" : 5,
                    "material" : 1
                },
                {
                    "attributes" : {
                        "POSITION" : 6,
                        "NORMAL" : 7
                    },
                    "indices" : 8,
                    "material" : 2
                },
                {
                    "attributes" : {
                        "POSITION" : 9,
                        "NORMAL" : 10
                    },
                    "indices" : 11,
                    "material" : 3
                },
                {
                    "attributes" : {
                        "POSITION" : 12,
                        "NORMAL" : 13
                    },
                    "indices" : 14,
                    "material" : 4
                },
                {
                    "attributes" : {
                        "POSITION" : 15,
                        "NORMAL" : 16
                    },
                    "indices" : 17,
                    "material" : 5
                },
                {
                    "attributes" : {
                        "POSITION" : 18,
                        "NORMAL" : 19
                    },
                    "indices" : 20,
                    "material" : 6
                },
                {
                    "attributes" : {
                        "POSITION" : 21,
                        "NORMAL" : 22
                    },
                    "indices" : 23,
                    "material" : 7
                },
                {
                    "attributes" : {
                        "POSITION" : 24,
                        "NORMAL" : 25
                    },
                    "indices" : 26,
                    "material" : 8
                },
                {
                    "attributes" : {
                        "POSITION" : 27,
                        "NORMAL" : 28
                    },
                    "indices" : 29,
                    "material" : 9
                },
                {
                    "attributes" : {
                        "POSITION" : 30,
                        "NORMAL" : 31
                    },
                    "indices" : 32,
                    "material" : 10
                },
                {
                    "attributes" : {
                        "POSITION" : 33,
                        "NORMAL" : 34
                    },
                    "indices" : 35,
                    "material" : 11
                }
            ]
        }
    ],
    "accessors" : [
        {
            "bufferView" : 0,
            "componentType" : 5126,
            "count" : 9265,
            "max" : [
                1.0226675271987915,
                0.634006917476654,
                0.4628608226776123
            ],
            "min" : [
                -1.223731279373169,
                -0.46297574043273926,
                -0.4636422395706177
            ],
            "type" : "VEC3"
        },
        {
            "bufferView" : 1,
            "componentType" : 5126,
            "count" : 9265,
            "type" : "VEC3"
        },
        {
            "bufferView" : 2,
            "componentType" : 5123,
            "count" : 10050,
            "type" : "SCALAR"
        },
        {
            "bufferView" : 3,
            "componentType" : 5126,
            "count" : 12733,
            "max" : [
                0.8131706714630127,
                0.634006917476654,
                0.8157179951667786
            ],
            "min" : [
                -0.444000780582428,
                -0.9353936910629272,
                -0.8164998292922974
            ],
            "type" : "VEC3"
        },
        {
            "bufferView" : 4,
            "componentType" : 5126,
            "count" : 12733,
            "type" : "VEC3"
        },
        {
            "bufferView" : 5,
            "componentType" : 5123,
            "count" : 12960,
            "type" : "SCALAR"
        },
        {
            "bufferView" : 6,
            "componentType" : 5126,
            "count" : 2618,
            "max" : [
                1.000425100326538,
                0.3771398067474365,
                0.7761863470077515
            ],
            "min" : [
                -1.0167807340621948,
                -0.6423279643058777,
                -0.7769685387611389
            ],
            "type" : "VEC3"
        },
        {
            "bufferView" : 7,
            "componentType" : 5126,
            "count" : 2618,
            "type" : "VEC3"
        },
        {
            "bufferView" : 8,
            "componentType" : 5123,
            "count" : 2742,
            "type" : "SCALAR"
        },
        {
            "bufferView" : 9,
            "componentType" : 5126,
            "count" : 8533,
            "max" : [
                0.49472030997276306,
                0.6635338068008423,
                0.8252735137939453
            ],
            "min" : [
                -0.2642841637134552,
                -0.7556769251823425,
                -0.8260551691055298
            ],
            "type" : "VEC3"
        },
        {
            "bufferView" : 10,
            "componentType" : 5126,
            "count" : 8533,
            "type" : "VEC3"
        },
        {
            "bufferView" : 11,
            "componentType" : 5123,
            "count" : 8904,
            "type" : "SCALAR"
        },
        {
            "bufferView" : 12,
            "componentType" : 5126,
            "count" : 4255,
            "max" : [
                1.098965048789978,
                0.6247310638427734,
                0.7827740907669067
            ],
            "min" : [
                -0.5051056146621704,
                -0.5743875503540039,
                -0.7835559844970703
            ],
            "type" : "VEC3"
        },
        {
            "bufferView" : 13,
            "componentType" : 5126,
            "count" : 4255,
            "type" : "VEC3"
        },
        {
            "bufferView" : 14,
            "componentType" : 5123,
            "count" : 4374,
            "type" : "SCALAR"
        },
        {
            "bufferView" : 15,
            "componentType" : 5126,
            "count" : 4624,
            "max" : [
                0.9897953867912292,
                0.5576287508010864,
                0.4662286639213562
            ],
            "min" : [
                0.044477567076683044,
                -0.446914941072464,
                -0.4670100510120392
            ],
            "type" : "VEC3"
        },
        {
            "bufferView" : 16,
            "componentType" : 5126,
            "count" : 4624,
            "type" : "VEC3"
        },
        {
            "bufferView" : 17,
            "componentType" : 5123,
            "count" : 4968,
            "type" : "SCALAR"
        },
        {
            "bufferView" : 18,
            "componentType" : 5126,
            "count" : 44326,
            "max" : [
                1.1138094663619995,
                0.41358664631843567,
                0.78355872631073
            ],
            "min" : [
                -1.031083106994629,
                -0.796198844909668,
                -0.7843403816223145
            ],
            "type" : "VEC3"
        },
        {
            "bufferView" : 19,
            "componentType" : 5126,
            "count" : 44326,
            "type" : "VEC3"
        },
        {
            "bufferView" : 20,
            "componentType" : 5123,
            "count" : 46620,
            "type" : "SCALAR"
        },
        {
            "bufferView" : 21,
            "componentType" : 5126,
            "count" : 16984,
            "max" : [
                1.0693875551223755,
                0.4791356027126312,
                0.6239190697669983
            ],
            "min" : [
                -1.031083106994629,
                -0.6613465547561646,
                -0.6247007250785828
            ],
            "type" : "VEC3"
        },
        {
            "bufferView" : 22,
            "componentType" : 5126,
            "count" : 16984,
            "type" : "VEC3"
        },
        {
            "bufferView" : 23,
            "componentType" : 5123,
            "count" : 17238,
            "type" : "SCALAR"
        },
        {
            "bufferView" : 24,
            "componentType" : 5126,
            "count" : 2095,
            "max" : [
                1.3336235284805298,
                0.5678626894950867,
                0.5720019936561584
            ],
            "min" : [
                -1.031083106994629,
                -0.6283162236213684,
                -0.5727841258049011
            ],
            "type" : "VEC3"
        },
        {
            "bufferView" : 25,
            "componentType" : 5126,
            "count" : 2095,
            "type" : "VEC3"
        },
        {
            "bufferView" : 26,
            "componentType" : 5123,
            "count" : 2346,
            "type" : "SCALAR"
        },
        {
            "bufferView" : 27,
            "componentType" : 5126,
            "count" : 142,
            "max" : [
                1.0946706533432007,
                0.26958054304122925,
                0.2108525186777115
            ],
            "min" : [
                0.8393758535385132,
                -0.5034174919128418,
                -0.21163389086723328
            ],
            "type" : "VEC3"
        },
        {
            "bufferView" : 28,
            "componentType" : 5126,
            "count" : 142,
            "type" : "VEC3"
        },
        {
            "bufferView" : 29,
            "componentType" : 5123,
            "count" : 144,
            "type" : "SCALAR"
        },
        {
            "bufferView" : 30,
            "componentType" : 5126,
            "count" : 1228,
            "max" : [
                0.7942670583724976,
                0.2599768042564392,
                0.4777354300022125
            ],
            "min" : [
                -0.4569436013698578,
                -0.4875764548778534,
                -0.4785167872905731
            ],
            "type" : "VEC3"
        },
        {
            "bufferView" : 31,
            "componentType" : 5126,
            "count" : 1228,
            "type" : "VEC3"
        },
        {
            "bufferView" : 32,
            "componentType" : 5123,
            "count" : 1332,
            "type" : "SCALAR"
        },
        {
            "bufferView" : 33,
            "componentType" : 5126,
            "count" : 72,
            "max" : [
                1.0903350114822388,
                0.08834617584943771,
                0.1250537931919098
            ],
            "min" : [
                1.028025507926941,
                -0.15434958040714264,
                -0.12583528459072113
            ],
            "type" : "VEC3"
        },
        {
            "bufferView" : 34,
            "componentType" : 5126,
            "count" : 72,
            "type" : "VEC3"
        },
        {
            "bufferView" : 35,
            "componentType" : 5123,
            "count" : 72,
            "type" : "SCALAR"
        }
    ],
    "bufferViews" : [
        {
            "buffer" : 0,
            "byteLength" : 111180,
            "byteOffset" : 0
        },
        {
            "buffer" : 0,
            "byteLength" : 111180,
            "byteOffset" : 111180
        },
        {
            "buffer" : 0,
            "byteLength" : 20100,
            "byteOffset" : 222360
        },
        {
            "buffer" : 0,
            "byteLength" : 152796,
            "byteOffset" : 242460
        },
        {
            "buffer" : 0,
            "byteLength" : 152796,
            "byteOffset" : 395256
        },
        {
            "buffer" : 0,
            "byteLength" : 25920,
            "byteOffset" : 548052
        },
        {
            "buffer" : 0,
            "byteLength" : 31416,
            "byteOffset" : 573972
        },
        {
            "buffer" : 0,
            "byteLength" : 31416,
            "byteOffset" : 605388
        },
        {
            "buffer" : 0,
            "byteLength" : 5484,
            "byteOffset" : 636804
        },
        {
            "buffer" : 0,
            "byteLength" : 102396,
            "byteOffset" : 642288
        },
        {
            "buffer" : 0,
            "byteLength" : 102396,
            "byteOffset" : 744684
        },
        {
            "buffer" : 0,
            "byteLength" : 17808,
            "byteOffset" : 847080
        },
        {
            "buffer" : 0,
            "byteLength" : 51060,
            "byteOffset" : 864888
        },
        {
            "buffer" : 0,
            "byteLength" : 51060,
            "byteOffset" : 915948
        },
        {
            "buffer" : 0,
            "byteLength" : 8748,
            "byteOffset" : 967008
        },
        {
            "buffer" : 0,
            "byteLength" : 55488,
            "byteOffset" : 975756
        },
        {
            "buffer" : 0,
            "byteLength" : 55488,
            "byteOffset" : 1031244
        },
        {
            "buffer" : 0,
            "byteLength" : 9936,
            "byteOffset" : 1086732
        },
        {
            "buffer" : 0,
            "byteLength" : 531912,
            "byteOffset" : 1096668
        },
        {
            "buffer" : 0,
            "byteLength" : 531912,
            "byteOffset" : 1628580
        },
        {
            "buffer" : 0,
            "byteLength" : 93240,
            "byteOffset" : 2160492
        },
        {
            "buffer" : 0,
            "byteLength" : 203808,
            "byteOffset" : 2253732
        },
        {
            "buffer" : 0,
            "byteLength" : 203808,
            "byteOffset" : 2457540
        },
        {
            "buffer" : 0,
            "byteLength" : 34476,
            "byteOffset" : 2661348
        },
        {
            "buffer" : 0,
            "byteLength" : 25140,
            "byteOffset" : 2695824
        },
        {
            "buffer" : 0,
            "byteLength" : 25140,
            "byteOffset" : 2720964
        },
        {
            "buffer" : 0,
            "byteLength" : 4692,
            "byteOffset" : 2746104
        },
        {
            "buffer" : 0,
            "byteLength" : 1704,
            "byteOffset" : 2750796
        },
        {
            "buffer" : 0,
            "byteLength" : 1704,
            "byteOffset" : 2752500
        },
        {
            "buffer" : 0,
            "byteLength" : 288,
            "byteOffset" : 2754204
        },
        {
            "buffer" : 0,
            "byteLength" : 14736,
            "byteOffset" : 2754492
        },
        {
            "buffer" : 0,
            "byteLength" : 14736,
            "byteOffset" : 2769228
        },
        {
            "buffer" : 0,
            "byteLength" : 2664,
            "byteOffset" : 2783964
        },
        {
            "buffer" : 0,
            "byteLength" : 864,
            "byteOffset" : 2786628
        },
        {
            "buffer" : 0,
            "byteLength" : 864,
            "byteOffset" : 2787492
        },
        {
            "buffer" : 0,
            "byteLength" : 144,
            "byteOffset" : 2788356
        }
    ],
    "buffers" : [
        {
            "byteLength" : 2788500,
            "uri" : "toytruck.bin"
        }
    ]
}
