{
    "asset" : {
        "generator" : "Khronos glTF Blender I/O v1.1.46",
        "version" : "2.0"
    },
    "scene" : 0,
    "scenes" : [
        {
            "name" : "Scene",
            "nodes" : [
                0,
                1,
                2
            ]
        }
    ],
    "nodes" : [
        {
            "name" : "Light",
            "rotation" : [
                0.16907575726509094,
                0.7558803558349609,
                -0.27217137813568115,
                0.570947527885437
            ],
            "scale" : [
                4.22155237197876,
                4.221552848815918,
                4.221554279327393
            ],
            "translation" : [
                4.928452014923096,
                13.259115219116211,
                -10.602139472961426
            ]
        },
        {
            "name" : "Camera",
            "rotation" : [
                0.483536034822464,
                0.33687159419059753,
                -0.20870360732078552,
                0.7804827094078064
            ],
            "scale" : [
                4.221552848815918,
                4.221552848815918,
                4.221552848815918
            ],
            "translation" : [
                18.786317825317383,
                9.267409324645996,
                22.880035400390625
            ]
        },
        {
            "mesh" : 0,
            "name" : "I-Zen2",
            "rotation" : [
                0.7071067690849304,
                0,
                0,
                0.7071067690849304
            ],
            "translation" : [
                -2.049875497817993,
                4.39149284362793,
                0.9696604609489441
            ]
        }
    ],
    "materials" : [
        {
            "doubleSided" : true,
            "emissiveFactor" : [
                0,
                0,
                0
            ],
            "name" : "Color_D01",
            "pbrMetallicRoughness" : {
                "baseColorFactor" : [
                    0.5,
                    0.3700000047683716,
                    0,
                    1
                ],
                "metallicFactor" : 0,
                "roughnessFactor" : 0.8114382028579712
            }
        },
        {
            "doubleSided" : true,
            "emissiveFactor" : [
                0,
                0,
                0
            ],
            "name" : "Color_008",
            "pbrMetallicRoughness" : {
                "baseColorFactor" : [
                    0.05999999865889549,
                    0.05999999865889549,
                    0.05999999865889549,
                    1
                ],
                "metallicFactor" : 0,
                "roughnessFactor" : 0.8114382028579712
            }
        },
        {
            "doubleSided" : true,
            "emissiveFactor" : [
                0,
                0,
                0
            ],
            "name" : "Default",
            "pbrMetallicRoughness" : {
                "baseColorFactor" : [
                    0.5,
                    0.5,
                    0.5,
                    1
                ],
                "metallicFactor" : 0,
                "roughnessFactor" : 0.8114382028579712
            }
        },
        {
            "doubleSided" : true,
            "emissiveFactor" : [
                0,
                0,
                0
            ],
            "name" : "Color_002",
            "pbrMetallicRoughness" : {
                "baseColorFactor" : [
                    0.38999998569488525,
                    0.38999998569488525,
                    0.38999998569488525,
                    1
                ],
                "metallicFactor" : 0,
                "roughnessFactor" : 0.8114382028579712
            }
        },
        {
            "doubleSided" : true,
            "emissiveFactor" : [
                0,
                0,
                0
            ],
            "name" : "Color_006",
            "pbrMetallicRoughness" : {
                "baseColorFactor" : [
                    0.17000000178813934,
                    0.17000000178813934,
                    0.17000000178813934,
                    1
                ],
                "metallicFactor" : 0,
                "roughnessFactor" : 0.8114382028579712
            }
        },
        {
            "doubleSided" : true,
            "emissiveFactor" : [
                0,
                0,
                0
            ],
            "name" : "Color_005",
            "pbrMetallicRoughness" : {
                "baseColorFactor" : [
                    0.2199999988079071,
                    0.2199999988079071,
                    0.2199999988079071,
                    1
                ],
                "metallicFactor" : 0,
                "roughnessFactor" : 0.8114382028579712
            }
        },
        {
            "doubleSided" : true,
            "emissiveFactor" : [
                0,
                0,
                0
            ],
            "name" : "Color_003",
            "pbrMetallicRoughness" : {
                "baseColorFactor" : [
                    0.33000001311302185,
                    0.33000001311302185,
                    0.33000001311302185,
                    1
                ],
                "metallicFactor" : 0,
                "roughnessFactor" : 0.8114382028579712
            }
        },
        {
            "doubleSided" : true,
            "emissiveFactor" : [
                0,
                0,
                0
            ],
            "name" : "Color_A07",
            "pbrMetallicRoughness" : {
                "baseColorFactor" : [
                    0.44999998807907104,
                    0.07999999821186066,
                    0,
                    1
                ],
                "metallicFactor" : 0,
                "roughnessFactor" : 0.8114382028579712
            }
        },
        {
            "doubleSided" : true,
            "emissiveFactor" : [
                0,
                0,
                0
            ],
            "name" : "Color_I01",
            "pbrMetallicRoughness" : {
                "baseColorFactor" : [
                    0,
                    0.14000000059604645,
                    0.3400000035762787,
                    1
                ],
                "metallicFactor" : 0,
                "roughnessFactor" : 0.8114382028579712
            }
        },
        {
            "doubleSided" : true,
            "emissiveFactor" : [
                0,
                0,
                0
            ],
            "name" : "Translucent_Glass_Safety",
            "pbrMetallicRoughness" : {
                "baseColorFactor" : [
                    0.4000000059604645,
                    0.12999999523162842,
                    0.029999999329447746,
                    1
                ],
                "metallicFactor" : 0,
                "roughnessFactor" : 0.8114382028579712
            }
        },
        {
            "doubleSided" : true,
            "emissiveFactor" : [
                0,
                0,
                0
            ],
            "name" : "Color_007",
            "pbrMetallicRoughness" : {
                "baseColorFactor" : [
                    0.10999999940395355,
                    0.10999999940395355,
                    0.10999999940395355,
                    1
                ],
                "metallicFactor" : 0,
                "roughnessFactor" : 0.8114382028579712
            }
        },
        {
            "doubleSided" : true,
            "emissiveFactor" : [
                0,
                0,
                0
            ],
            "name" : "Color_G12",
            "pbrMetallicRoughness" : {
                "baseColorFactor" : [
                    0.09000000357627869,
                    0.07000000029802322,
                    0.019999999552965164,
                    1
                ],
                "metallicFactor" : 0,
                "roughnessFactor" : 0.8114382028579712
            }
        }
    ],
    "meshes" : [
        {
            "name" : "I-Zen2",
            "primitives" : [
                {
                    "attributes" : {
                        "POSITION" : 0,
                        "NORMAL" : 1
                    },
                    "indices" : 2,
                    "material" : 0
                },
                {
                    "attributes" : {
                        "POSITION" : 3,
                        "NORMAL" : 4
                    },
                    "indices" : 5,
                    "material" : 1
                },
                {
                    "attributes" : {
                        "POSITION" : 6,
                        "NORMAL" : 7
                    },
                    "indices" : 8,
                    "material" : 2
                },
                {
                    "attributes" : {
                        "POSITION" : 9,
                        "NORMAL" : 10
                    },
                    "indices" : 11,
                    "material" : 3
                },
                {
                    "attributes" : {
                        "POSITION" : 12,
                        "NORMAL" : 13
                    },
                    "indices" : 14,
                    "material" : 4
                },
                {
                    "attributes" : {
                        "POSITION" : 15,
                        "NORMAL" : 16
                    },
                    "indices" : 17,
                    "material" : 5
                },
                {
                    "attributes" : {
                        "POSITION" : 18,
                        "NORMAL" : 19
                    },
                    "indices" : 20,
                    "material" : 6
                },
                {
                    "attributes" : {
                        "POSITION" : 21,
                        "NORMAL" : 22
                    },
                    "indices" : 23,
                    "material" : 7
                },
                {
                    "attributes" : {
                        "POSITION" : 24,
                        "NORMAL" : 25
                    },
                    "indices" : 26,
                    "material" : 8
                },
                {
                    "attributes" : {
                        "POSITION" : 27,
                        "NORMAL" : 28
                    },
                    "indices" : 29,
                    "material" : 9
                },
                {
                    "attributes" : {
                        "POSITION" : 30,
                        "NORMAL" : 31
                    },
                    "indices" : 32,
                    "material" : 10
                },
                {
                    "attributes" : {
                        "POSITION" : 33,
                        "NORMAL" : 34
                    },
                    "indices" : 35,
                    "material" : 11
                }
            ]
        }
    ],
    "accessors" : [
        {
            "bufferView" : 0,
            "componentType" : 5126,
            "count" : 8377,
            "max" : [
                1.939860463142395,
                0.869050920009613,
                0.7513007521629333
            ],
            "min" : [
                -2.2743468284606934,
                -0.8690534234046936,
                -1.306620478630066
            ],
            "type" : "VEC3"
        },
        {
            "bufferView" : 1,
            "componentType" : 5126,
            "count" : 8377,
            "type" : "VEC3"
        },
        {
            "bufferView" : 2,
            "componentType" : 5123,
            "count" : 10050,
            "type" : "SCALAR"
        },
        {
            "bufferView" : 3,
            "componentType" : 5126,
            "count" : 11529,
            "max" : [
                1.5468478202819824,
                1.5310051441192627,
                1.637548565864563
            ],
            "min" : [
                -0.8115852475166321,
                -1.5310078859329224,
                -1.306620478630066
            ],
            "type" : "VEC3"
        },
        {
            "bufferView" : 4,
            "componentType" : 5126,
            "count" : 11529,
            "type" : "VEC3"
        },
        {
            "bufferView" : 5,
            "componentType" : 5123,
            "count" : 12960,
            "type" : "SCALAR"
        },
        {
            "bufferView" : 6,
            "componentType" : 5126,
            "count" : 2135,
            "max" : [
                1.8981341123580933,
                1.456844687461853,
                1.0877622365951538
            ],
            "min" : [
                -1.8861110210418701,
                -1.456847906112671,
                -0.8247418999671936
            ],
            "type" : "VEC3"
        },
        {
            "bufferView" : 7,
            "componentType" : 5126,
            "count" : 2135,
            "type" : "VEC3"
        },
        {
            "bufferView" : 8,
            "componentType" : 5123,
            "count" : 2742,
            "type" : "SCALAR"
        },
        {
            "bufferView" : 9,
            "componentType" : 5126,
            "count" : 7170,
            "max" : [
                0.9494401216506958,
                1.548931360244751,
                1.300403118133545
            ],
            "min" : [
                -0.474439799785614,
                -1.548933744430542,
                -1.3620123863220215
            ],
            "type" : "VEC3"
        },
        {
            "bufferView" : 10,
            "componentType" : 5126,
            "count" : 7170,
            "type" : "VEC3"
        },
        {
            "bufferView" : 11,
            "componentType" : 5123,
            "count" : 8904,
            "type" : "SCALAR"
        },
        {
            "bufferView" : 12,
            "componentType" : 5126,
            "count" : 3770,
            "max" : [
                2.082993507385254,
                1.4692031145095825,
                0.9603071212768555
            ],
            "min" : [
                -0.9262169003486633,
                -1.4692058563232422,
                -1.2892191410064697
            ],
            "type" : "VEC3"
        },
        {
            "bufferView" : 13,
            "componentType" : 5126,
            "count" : 3770,
            "type" : "VEC3"
        },
        {
            "bufferView" : 14,
            "componentType" : 5123,
            "count" : 4374,
            "type" : "SCALAR"
        },
        {
            "bufferView" : 15,
            "componentType" : 5126,
            "count" : 3345,
            "max" : [
                1.8781929016113281,
                0.8753689527511597,
                0.7211707830429077
            ],
            "min" : [
                0.10479214787483215,
                -0.8753713965415955,
                -1.1633362770080566
            ],
            "type" : "VEC3"
        },
        {
            "bufferView" : 16,
            "componentType" : 5126,
            "count" : 3345,
            "type" : "VEC3"
        },
        {
            "bufferView" : 17,
            "componentType" : 5123,
            "count" : 4968,
            "type" : "SCALAR"
        },
        {
            "bufferView" : 18,
            "componentType" : 5126,
            "count" : 40335,
            "max" : [
                2.1108412742614746,
                1.470674991607666,
                1.376421570777893
            ],
            "min" : [
                -1.9129420518875122,
                -1.470677375793457,
                -0.8931155800819397
            ],
            "type" : "VEC3"
        },
        {
            "bufferView" : 19,
            "componentType" : 5126,
            "count" : 40335,
            "type" : "VEC3"
        },
        {
            "bufferView" : 20,
            "componentType" : 5123,
            "count" : 46620,
            "type" : "SCALAR"
        },
        {
            "bufferView" : 21,
            "componentType" : 5126,
            "count" : 16028,
            "max" : [
                2.0275065898895264,
                1.1711938381195068,
                1.1234411001205444
            ],
            "min" : [
                -1.9129420518875122,
                -1.1711961030960083,
                -1.0160843133926392
            ],
            "type" : "VEC3"
        },
        {
            "bufferView" : 22,
            "componentType" : 5126,
            "count" : 16028,
            "type" : "VEC3"
        },
        {
            "bufferView" : 23,
            "componentType" : 5123,
            "count" : 17238,
            "type" : "SCALAR"
        },
        {
            "bufferView" : 24,
            "componentType" : 5126,
            "count" : 1601,
            "max" : [
                2.5232088565826416,
                1.0737981796264648,
                1.061476469039917
            ],
            "min" : [
                -1.9129420518875122,
                -1.0738013982772827,
                -1.1825348138809204
            ],
            "type" : "VEC3"
        },
        {
            "bufferView" : 25,
            "componentType" : 5126,
            "count" : 1601,
            "type" : "VEC3"
        },
        {
            "bufferView" : 26,
            "componentType" : 5123,
            "count" : 2346,
            "type" : "SCALAR"
        },
        {
            "bufferView" : 27,
            "componentType" : 5126,
            "count" : 136,
            "max" : [
                2.074937105178833,
                0.3962875306606293,
                0.8271687030792236
            ],
            "min" : [
                1.59600830078125,
                -0.3962899446487427,
                -0.6229625344276428
            ],
            "type" : "VEC3"
        },
        {
            "bufferView" : 28,
            "componentType" : 5126,
            "count" : 136,
            "type" : "VEC3"
        },
        {
            "bufferView" : 29,
            "componentType" : 5123,
            "count" : 144,
            "type" : "SCALAR"
        },
        {
            "bufferView" : 30,
            "componentType" : 5126,
            "count" : 960,
            "max" : [
                1.5113849639892578,
                0.8969553709030151,
                0.7974512577056885
            ],
            "min" : [
                -0.8358657360076904,
                -0.8969578742980957,
                -0.604945957660675
            ],
            "type" : "VEC3"
        },
        {
            "bufferView" : 31,
            "componentType" : 5126,
            "count" : 960,
            "type" : "VEC3"
        },
        {
            "bufferView" : 32,
            "componentType" : 5123,
            "count" : 1332,
            "type" : "SCALAR"
        },
        {
            "bufferView" : 33,
            "componentType" : 5126,
            "count" : 72,
            "max" : [
                2.0668036937713623,
                0.23533067107200623,
                0.17232325673103333
            ],
            "min" : [
                1.9499119520187378,
                -0.23533308506011963,
                -0.28296995162963867
            ],
            "type" : "VEC3"
        },
        {
            "bufferView" : 34,
            "componentType" : 5126,
            "count" : 72,
            "type" : "VEC3"
        },
        {
            "bufferView" : 35,
            "componentType" : 5123,
            "count" : 72,
            "type" : "SCALAR"
        }
    ],
    "bufferViews" : [
        {
            "buffer" : 0,
            "byteLength" : 100524,
            "byteOffset" : 0
        },
        {
            "buffer" : 0,
            "byteLength" : 100524,
            "byteOffset" : 100524
        },
        {
            "buffer" : 0,
            "byteLength" : 20100,
            "byteOffset" : 201048
        },
        {
            "buffer" : 0,
            "byteLength" : 138348,
            "byteOffset" : 221148
        },
        {
            "buffer" : 0,
            "byteLength" : 138348,
            "byteOffset" : 359496
        },
        {
            "buffer" : 0,
            "byteLength" : 25920,
            "byteOffset" : 497844
        },
        {
            "buffer" : 0,
            "byteLength" : 25620,
            "byteOffset" : 523764
        },
        {
            "buffer" : 0,
            "byteLength" : 25620,
            "byteOffset" : 549384
        },
        {
            "buffer" : 0,
            "byteLength" : 5484,
            "byteOffset" : 575004
        },
        {
            "buffer" : 0,
            "byteLength" : 86040,
            "byteOffset" : 580488
        },
        {
            "buffer" : 0,
            "byteLength" : 86040,
            "byteOffset" : 666528
        },
        {
            "buffer" : 0,
            "byteLength" : 17808,
            "byteOffset" : 752568
        },
        {
            "buffer" : 0,
            "byteLength" : 45240,
            "byteOffset" : 770376
        },
        {
            "buffer" : 0,
            "byteLength" : 45240,
            "byteOffset" : 815616
        },
        {
            "buffer" : 0,
            "byteLength" : 8748,
            "byteOffset" : 860856
        },
        {
            "buffer" : 0,
            "byteLength" : 40140,
            "byteOffset" : 869604
        },
        {
            "buffer" : 0,
            "byteLength" : 40140,
            "byteOffset" : 909744
        },
        {
            "buffer" : 0,
            "byteLength" : 9936,
            "byteOffset" : 949884
        },
        {
            "buffer" : 0,
            "byteLength" : 484020,
            "byteOffset" : 959820
        },
        {
            "buffer" : 0,
            "byteLength" : 484020,
            "byteOffset" : 1443840
        },
        {
            "buffer" : 0,
            "byteLength" : 93240,
            "byteOffset" : 1927860
        },
        {
            "buffer" : 0,
            "byteLength" : 192336,
            "byteOffset" : 2021100
        },
        {
            "buffer" : 0,
            "byteLength" : 192336,
            "byteOffset" : 2213436
        },
        {
            "buffer" : 0,
            "byteLength" : 34476,
            "byteOffset" : 2405772
        },
        {
            "buffer" : 0,
            "byteLength" : 19212,
            "byteOffset" : 2440248
        },
        {
            "buffer" : 0,
            "byteLength" : 19212,
            "byteOffset" : 2459460
        },
        {
            "buffer" : 0,
            "byteLength" : 4692,
            "byteOffset" : 2478672
        },
        {
            "buffer" : 0,
            "byteLength" : 1632,
            "byteOffset" : 2483364
        },
        {
            "buffer" : 0,
            "byteLength" : 1632,
            "byteOffset" : 2484996
        },
        {
            "buffer" : 0,
            "byteLength" : 288,
            "byteOffset" : 2486628
        },
        {
            "buffer" : 0,
            "byteLength" : 11520,
            "byteOffset" : 2486916
        },
        {
            "buffer" : 0,
            "byteLength" : 11520,
            "byteOffset" : 2498436
        },
        {
            "buffer" : 0,
            "byteLength" : 2664,
            "byteOffset" : 2509956
        },
        {
            "buffer" : 0,
            "byteLength" : 864,
            "byteOffset" : 2512620
        },
        {
            "buffer" : 0,
            "byteLength" : 864,
            "byteOffset" : 2513484
        },
        {
            "buffer" : 0,
            "byteLength" : 144,
            "byteOffset" : 2514348
        }
    ],
    "buffers" : [
        {
            "byteLength" : 2514492,
            "uri" : "toytruck.bin"
        }
    ]
}
