{
    "accessors": [
        {
            "bufferView": 0,
            "byteOffset": 0,
            "componentType": 5126,
            "count": 395,
            "max": [
                0.030803335830569267,
                0.00226554274559021,
                0.12339930236339569
            ],
            "min": [
                -0.030803335830569267,
                -0.00226554274559021,
                0.00080868013901636
            ],
            "name": "accessor_buffer_Phone_01_Cube.037-Mesh_POSITION_0",
            "type": "VEC3"
        },
        {
            "bufferView": 1,
            "byteOffset": 0,
            "componentType": 5126,
            "count": 395,
            "max": [
                1.0,
                1.0,
                1.0
            ],
            "min": [
                -1.0,
                -1.0,
                -1.0
            ],
            "name": "accessor_buffer_Phone_01_Cube.037-Mesh_NORMAL_0",
            "type": "VEC3"
        },
        {
            "bufferView": 2,
            "byteOffset": 0,
            "componentType": 5123,
            "count": 3,
            "max": [
                259
            ],
            "min": [
                10
            ],
            "name": "accessor_buffer_Phone_01_Cube.037-Mesh_0",
            "type": "SCALAR"
        },
        {
            "bufferView": 4,
            "byteOffset": 0,
            "componentType": 5123,
            "count": 438,
            "max": [
                394
            ],
            "min": [
                0
            ],
            "name": "accessor_buffer_Phone_01_Cube.037-Mesh_2",
            "type": "SCALAR"
        },
        {
            "bufferView": 3,
            "byteOffset": 0,
            "componentType": 5123,
            "count": 3,
            "max": [
                352
            ],
            "min": [
                190
            ],
            "name": "accessor_buffer_Phone_01_Cube.037-Mesh_1",
            "type": "SCALAR"
        }
    ],
    "asset": {
        "copyright": "",
        "generator": "blendergltf v1.2.0",
        "version": "2.0"
    },
    "bufferViews": [
        {
            "buffer": 0,
            "byteLength": 4740,
            "byteOffset": 0,
            "byteStride": 12,
            "name": "bufferView_buffer_Phone_01_Cube.037-Mesh_POSITION_0",
            "target": 34962
        },
        {
            "buffer": 0,
            "byteLength": 4740,
            "byteOffset": 4740,
            "byteStride": 12,
            "name": "bufferView_buffer_Phone_01_Cube.037-Mesh_NORMAL_0",
            "target": 34962
        },
        {
            "buffer": 0,
            "byteLength": 8,
            "byteOffset": 9480,
            "name": "bufferView_buffer_Phone_01_Cube.037-Mesh_0",
            "target": 34963
        },
        {
            "buffer": 0,
            "byteLength": 8,
            "byteOffset": 9488,
            "name": "bufferView_buffer_Phone_01_Cube.037-Mesh_1",
            "target": 34963
        },
        {
            "buffer": 0,
            "byteLength": 880,
            "byteOffset": 9496,
            "name": "bufferView_buffer_Phone_01_Cube.037-Mesh_2",
            "target": 34963
        }
    ],
    "buffers": [
        {
            "byteLength": 10376,
            "name": "buffer_smartphone",
            "uri": "buffer_smartphone.bin"
        }
    ],
    "materials": [
        {
            "alphaMode": "OPAQUE",
            "doubleSided": false,
            "emissiveFactor": [
                0.0,
                0.0,
                0.0
            ],
            "name": "039BE5.001",
            "pbrMetallicRoughness": {
                "baseColorFactor": [
                    0.009412000887095928,
                    0.486274391412735,
                    0.7184311747550964,
                    1.0
                ],
                "metallicFactor": 0.0,
                "roughnessFactor": 1.0
            }
        },
        {
            "alphaMode": "OPAQUE",
            "doubleSided": false,
            "emissiveFactor": [
                0.0,
                0.0,
                0.0
            ],
            "name": "1A1A1A.001",
            "pbrMetallicRoughness": {
                "baseColorFactor": [
                    0.08156879991292953,
                    0.08156879991292953,
                    0.08156879991292953,
                    1.0
                ],
                "metallicFactor": 0.0,
                "roughnessFactor": 1.0
            }
        },
        {
            "alphaMode": "OPAQUE",
            "doubleSided": false,
            "emissiveFactor": [
                0.0,
                0.0,
                0.0
            ],
            "name": "F44336.001",
            "pbrMetallicRoughness": {
                "baseColorFactor": [
                    0.7654904127120972,
                    0.21019600331783295,
                    0.16941200196743011,
                    1.0
                ],
                "metallicFactor": 0.0,
                "roughnessFactor": 1.0
            }
        }
    ],
    "meshes": [
        {
            "name": "Phone_01_Cube.037-Mesh",
            "primitives": [
                {
                    "attributes": {
                        "NORMAL": 1,
                        "POSITION": 0
                    },
                    "indices": 2,
                    "material": 0,
                    "mode": 4
                },
                {
                    "attributes": {
                        "NORMAL": 1,
                        "POSITION": 0
                    },
                    "indices": 4,
                    "material": 2,
                    "mode": 4
                },
                {
                    "attributes": {
                        "NORMAL": 1,
                        "POSITION": 0
                    },
                    "indices": 3,
                    "material": 1,
                    "mode": 4
                }
            ]
        }
    ],
    "nodes": [
        {
            "mesh": 0,
            "name": "Phone_01_Cube.037",
            "rotation": [
                0.0,
                0.0,
                0.0,
                1.0
            ],
            "scale": [
                1.0,
                1.0,
                1.0
            ],
            "translation": [
                0.0,
                0.0,
                0.0
            ]
        }
    ],
    "scene": 0,
    "scenes": [
        {
            "extras": {
                "background_color": [
                    0.05087608844041824,
                    0.05087608844041824,
                    0.05087608844041824
                ],
                "frames_per_second": 24
            },
            "name": "Scene",
            "nodes": [
                0
            ]
        }
    ]
}
