{
    "accessors": [
        {
            "bufferView": 4,
            "byteOffset": 0,
            "componentType": 5123,
            "count": 420,
            "max": [
                907
            ],
            "min": [
                0
            ],
            "name": "accessor_buffer_mesh934344302_1",
            "type": "SCALAR"
        },
        {
            "bufferView": 0,
            "byteOffset": 0,
            "componentType": 5126,
            "count": 908,
            "max": [
                1.050117015838623,
                0.3767293095588684,
                0.5774665474891663
            ],
            "min": [
                -1.1474509239196777,
                -0.6100765466690063,
                -0.6755502223968506
            ],
            "name": "accessor_buffer_mesh934344302_POSITION_0",
            "type": "VEC3"
        },
        {
            "bufferView": 3,
            "byteOffset": 0,
            "componentType": 5123,
            "count": 444,
            "max": [
                906
            ],
            "min": [
                2
            ],
            "name": "accessor_buffer_mesh934344302_0",
            "type": "SCALAR"
        },
        {
            "bufferView": 2,
            "byteOffset": 0,
            "componentType": 5126,
            "count": 908,
            "max": [
                0.21738429367542267,
                1.2635496854782104
            ],
            "min": [
                -0.2124135047197342,
                0.8785106986761093
            ],
            "name": "accessor_buffer_mesh934344302_TEXCOORD_0_0",
            "type": "VEC2"
        },
        {
            "bufferView": 5,
            "byteOffset": 0,
            "componentType": 5123,
            "count": 384,
            "max": [
                905
            ],
            "min": [
                1
            ],
            "name": "accessor_buffer_mesh934344302_2",
            "type": "SCALAR"
        },
        {
            "bufferView": 1,
            "byteOffset": 0,
            "componentType": 5126,
            "count": 908,
            "max": [
                1.0,
                1.0,
                1.0
            ],
            "min": [
                -1.0000001192092896,
                -1.0,
                -1.0
            ],
            "name": "accessor_buffer_mesh934344302_NORMAL_0",
            "type": "VEC3"
        }
    ],
    "asset": {
        "copyright": "",
        "generator": "blendergltf v1.2.0",
        "version": "2.0"
    },
    "bufferViews": [
        {
            "buffer": 0,
            "byteLength": 10896,
            "byteOffset": 0,
            "byteStride": 12,
            "name": "bufferView_buffer_mesh934344302_POSITION_0",
            "target": 34962
        },
        {
            "buffer": 0,
            "byteLength": 10896,
            "byteOffset": 10896,
            "byteStride": 12,
            "name": "bufferView_buffer_mesh934344302_NORMAL_0",
            "target": 34962
        },
        {
            "buffer": 0,
            "byteLength": 7264,
            "byteOffset": 21792,
            "byteStride": 8,
            "name": "bufferView_buffer_mesh934344302_TEXCOORD_0_0",
            "target": 34962
        },
        {
            "buffer": 0,
            "byteLength": 892,
            "byteOffset": 29056,
            "name": "bufferView_buffer_mesh934344302_0",
            "target": 34963
        },
        {
            "buffer": 0,
            "byteLength": 844,
            "byteOffset": 29948,
            "name": "bufferView_buffer_mesh934344302_1",
            "target": 34963
        },
        {
            "buffer": 0,
            "byteLength": 772,
            "byteOffset": 30792,
            "name": "bufferView_buffer_mesh934344302_2",
            "target": 34963
        }
    ],
    "buffers": [
        {
            "byteLength": 31564,
            "name": "buffer_single_bed",
            "uri": "buffer_single_bed.bin"
        }
    ],
    "materials": [
        {
            "alphaMode": "OPAQUE",
            "doubleSided": false,
            "emissiveFactor": [
                0.0,
                0.0,
                0.0
            ],
            "name": "mat14",
            "pbrMetallicRoughness": {
                "baseColorFactor": [
                    1.0,
                    0.3400000035762787,
                    0.12999999523162842,
                    1.0
                ],
                "metallicFactor": 0.0,
                "roughnessFactor": 1.0
            }
        },
        {
            "alphaMode": "OPAQUE",
            "doubleSided": false,
            "emissiveFactor": [
                0.0,
                0.0,
                0.0
            ],
            "name": "mat18",
            "pbrMetallicRoughness": {
                "baseColorFactor": [
                    1.0,
                    0.800000011920929,
                    0.5299999713897705,
                    1.0
                ],
                "metallicFactor": 0.0,
                "roughnessFactor": 1.0
            }
        },
        {
            "alphaMode": "OPAQUE",
            "doubleSided": false,
            "emissiveFactor": [
                0.0,
                0.0,
                0.0
            ],
            "name": "mat21",
            "pbrMetallicRoughness": {
                "baseColorFactor": [
                    1.0,
                    1.0,
                    1.0,
                    1.0
                ],
                "metallicFactor": 0.0,
                "roughnessFactor": 1.0
            }
        }
    ],
    "meshes": [
        {
            "name": "mesh934344302",
            "primitives": [
                {
                    "attributes": {
                        "NORMAL": 5,
                        "POSITION": 1,
                        "TEXCOORD_0": 3
                    },
                    "indices": 2,
                    "material": 0,
                    "mode": 4
                },
                {
                    "attributes": {
                        "NORMAL": 5,
                        "POSITION": 1,
                        "TEXCOORD_0": 3
                    },
                    "indices": 0,
                    "material": 1,
                    "mode": 4
                },
                {
                    "attributes": {
                        "NORMAL": 5,
                        "POSITION": 1,
                        "TEXCOORD_0": 3
                    },
                    "indices": 4,
                    "material": 2,
                    "mode": 4
                }
            ]
        }
    ],
    "nodes": [
        {
            "mesh": 0,
            "name": "mesh934344302",
            "rotation": [
                0.0,
                0.7076647281646729,
                0.0,
                0.7065483927726746
            ],
            "scale": [
                1.0,
                1.0,
                1.0
            ],
            "translation": [
                -0.0057828351855278015,
                0.4853850305080414,
                -0.009424420073628426
            ]
        }
    ],
    "scene": 0,
    "scenes": [
        {
            "extras": {
                "background_color": [
                    0.05087608844041824,
                    0.05087608844041824,
                    0.05087608844041824
                ],
                "frames_per_second": 24
            },
            "name": "Scene",
            "nodes": [
                0
            ]
        }
    ]
}
