{
    "asset" : {
        "generator" : "Khronos glTF Blender I/O v1.1.46",
        "version" : "2.0"
    },
    "scene" : 0,
    "scenes" : [
        {
            "name" : "Scene",
            "nodes" : [
                0,
                1,
                2
            ]
        }
    ],
    "nodes" : [
        {
            "name" : "Light",
            "rotation" : [
                0.16907575726509094,
                0.7558803558349609,
                -0.27217137813568115,
                0.570947527885437
            ],
            "translation" : [
                4.076245307922363,
                5.903861999511719,
                -1.0054539442062378
            ]
        },
        {
            "name" : "Camera",
            "rotation" : [
                0.483536034822464,
                0.33687159419059753,
                -0.20870360732078552,
                0.7804827094078064
            ],
            "translation" : [
                7.358891487121582,
                4.958309173583984,
                6.925790786743164
            ]
        },
        {
            "mesh" : 0,
            "name" : "Box001",
            "scale" : [
                0.0010000000474974513,
                0.0010000000474974513,
                0.0010000000474974513
            ],
            "translation" : [
                -0.24197745323181152,
                0,
                0.24731796979904175
            ]
        }
    ],
    "materials" : [
        {
            "doubleSided" : true,
            "emissiveFactor" : [
                0,
                0,
                0
            ],
            "name" : "\u6728\u7eb91",
            "pbrMetallicRoughness" : {
                "roughnessFactor" : 0.5527864098548889
            }
        },
        {
            "doubleSided" : true,
            "emissiveFactor" : [
                0,
                0,
                0
            ],
            "name" : "\u6728\u7eb9222",
            "pbrMetallicRoughness" : {
                "roughnessFactor" : 0.5527864098548889
            }
        },
        {
            "doubleSided" : true,
            "emissiveFactor" : [
                0,
                0,
                0
            ],
            "name" : "\u77f3\u6750",
            "pbrMetallicRoughness" : {
                "roughnessFactor" : 0.5527864098548889
            }
        }
    ],
    "meshes" : [
        {
            "name" : "Mesh",
            "primitives" : [
                {
                    "attributes" : {
                        "POSITION" : 0,
                        "NORMAL" : 1,
                        "TEXCOORD_0" : 2
                    },
                    "indices" : 3,
                    "material" : 0
                },
                {
                    "attributes" : {
                        "POSITION" : 4,
                        "NORMAL" : 5,
                        "TEXCOORD_0" : 6
                    },
                    "indices" : 7,
                    "material" : 1
                },
                {
                    "attributes" : {
                        "POSITION" : 8,
                        "NORMAL" : 9,
                        "TEXCOORD_0" : 10
                    },
                    "indices" : 11,
                    "material" : 2
                }
            ]
        }
    ],
    "accessors" : [
        {
            "bufferView" : 0,
            "componentType" : 5126,
            "count" : 23808,
            "max" : [
                491.97747802734375,
                509.93243408203125,
                2.68206787109375
            ],
            "min" : [
                -8.022607803344727,
                0,
                -497.3180236816406
            ],
            "type" : "VEC3"
        },
        {
            "bufferView" : 1,
            "componentType" : 5126,
            "count" : 23808,
            "type" : "VEC3"
        },
        {
            "bufferView" : 2,
            "componentType" : 5126,
            "count" : 23808,
            "type" : "VEC2"
        },
        {
            "bufferView" : 3,
            "componentType" : 5123,
            "count" : 35712,
            "type" : "SCALAR"
        },
        {
            "bufferView" : 4,
            "componentType" : 5126,
            "count" : 9024,
            "max" : [
                491.97747802734375,
                509.93243408203125,
                2.68206787109375
            ],
            "min" : [
                -8.022613525390625,
                435.96875,
                -497.3180236816406
            ],
            "type" : "VEC3"
        },
        {
            "bufferView" : 5,
            "componentType" : 5126,
            "count" : 9024,
            "type" : "VEC3"
        },
        {
            "bufferView" : 6,
            "componentType" : 5126,
            "count" : 9024,
            "type" : "VEC2"
        },
        {
            "bufferView" : 7,
            "componentType" : 5123,
            "count" : 13536,
            "type" : "SCALAR"
        },
        {
            "bufferView" : 8,
            "componentType" : 5126,
            "count" : 3200,
            "max" : [
                478.9773864746094,
                502,
                -10.31793212890625
            ],
            "min" : [
                4.977386474609375,
                501.9999084472656,
                -484.3179931640625
            ],
            "type" : "VEC3"
        },
        {
            "bufferView" : 9,
            "componentType" : 5126,
            "count" : 3200,
            "type" : "VEC3"
        },
        {
            "bufferView" : 10,
            "componentType" : 5126,
            "count" : 3200,
            "type" : "VEC2"
        },
        {
            "bufferView" : 11,
            "componentType" : 5123,
            "count" : 4800,
            "type" : "SCALAR"
        }
    ],
    "bufferViews" : [
        {
            "buffer" : 0,
            "byteLength" : 285696,
            "byteOffset" : 0
        },
        {
            "buffer" : 0,
            "byteLength" : 285696,
            "byteOffset" : 285696
        },
        {
            "buffer" : 0,
            "byteLength" : 190464,
            "byteOffset" : 571392
        },
        {
            "buffer" : 0,
            "byteLength" : 71424,
            "byteOffset" : 761856
        },
        {
            "buffer" : 0,
            "byteLength" : 108288,
            "byteOffset" : 833280
        },
        {
            "buffer" : 0,
            "byteLength" : 108288,
            "byteOffset" : 941568
        },
        {
            "buffer" : 0,
            "byteLength" : 72192,
            "byteOffset" : 1049856
        },
        {
            "buffer" : 0,
            "byteLength" : 27072,
            "byteOffset" : 1122048
        },
        {
            "buffer" : 0,
            "byteLength" : 38400,
            "byteOffset" : 1149120
        },
        {
            "buffer" : 0,
            "byteLength" : 38400,
            "byteOffset" : 1187520
        },
        {
            "buffer" : 0,
            "byteLength" : 25600,
            "byteOffset" : 1225920
        },
        {
            "buffer" : 0,
            "byteLength" : 9600,
            "byteOffset" : 1251520
        }
    ],
    "buffers" : [
        {
            "byteLength" : 1261120,
            "uri" : "stool.bin"
        }
    ]
}
