{
    "accessors": [
        {
            "bufferView": 1,
            "byteOffset": 0,
            "componentType": 5126,
            "count": 24,
            "max": [
                1.0,
                1.0,
                1.0
            ],
            "min": [
                -1.0,
                -1.0,
                -1.0
            ],
            "name": "accessor_buffer_Cube_NORMAL_0",
            "type": "VEC3"
        },
        {
            "bufferView": 0,
            "byteOffset": 0,
            "componentType": 5126,
            "count": 24,
            "max": [
                1.0000003576278687,
                1.0,
                1.0000003576278687
            ],
            "min": [
                -1.0000004768371582,
                -1.0,
                -1.0000005960464478
            ],
            "name": "accessor_buffer_Cube_POSITION_0",
            "type": "VEC3"
        },
        {
            "bufferView": 2,
            "byteOffset": 0,
            "componentType": 5123,
            "count": 36,
            "max": [
                23
            ],
            "min": [
                0
            ],
            "name": "accessor_buffer_Cube_0",
            "type": "SCALAR"
        }
    ],
    "asset": {
        "copyright": "",
        "generator": "blendergltf v1.2.0",
        "version": "2.0"
    },
    "bufferViews": [
        {
            "buffer": 0,
            "byteLength": 288,
            "byteOffset": 0,
            "byteStride": 12,
            "name": "bufferView_buffer_Cube_POSITION_0",
            "target": 34962
        },
        {
            "buffer": 0,
            "byteLength": 288,
            "byteOffset": 288,
            "byteStride": 12,
            "name": "bufferView_buffer_Cube_NORMAL_0",
            "target": 34962
        },
        {
            "buffer": 0,
            "byteLength": 76,
            "byteOffset": 576,
            "name": "bufferView_buffer_Cube_0",
            "target": 34963
        }
    ],
    "buffers": [
        {
            "byteLength": 652,
            "name": "buffer_transparent_box",
            "uri": "buffer_transparent_box.bin"
        }
    ],
    "materials": [
        {
            "alphaMode": "BLEND",
            "doubleSided": false,
            "emissiveFactor": [
                0.0,
                0.0,
                0.0
            ],
            "name": "Material",
            "pbrMetallicRoughness": {
                "baseColorFactor": [
                    0.0,
                    0.2312612235546112,
                    0.6920710802078247,
                    0.20000000298023224
                ],
                "metallicFactor": 0.0,
                "roughnessFactor": 1.0
            }
        }
    ],
    "meshes": [
        {
            "name": "Cube",
            "primitives": [
                {
                    "attributes": {
                        "NORMAL": 0,
                        "POSITION": 1
                    },
                    "indices": 2,
                    "material": 0,
                    "mode": 4
                }
            ]
        }
    ],
    "nodes": [
        {
            "mesh": 0,
            "name": "Cube",
            "rotation": [
                0.0,
                0.0,
                0.0,
                1.0
            ],
            "scale": [
                0.49899476766586304,
                0.49899476766586304,
                0.49899476766586304
            ],
            "translation": [
                -0.5000261068344116,
                0.4980835020542145,
                0.0
            ]
        }
    ],
    "scene": 0,
    "scenes": [
        {
            "extras": {
                "background_color": [
                    0.05087608844041824,
                    0.05087608844041824,
                    0.05087608844041824
                ],
                "frames_per_second": 24
            },
            "name": "Scene",
            "nodes": [
                0
            ]
        }
    ]
}
