{
    "asset" : {
        "generator" : "Khronos glTF Blender I/O v1.1.46",
        "version" : "2.0"
    },
    "scene" : 0,
    "scenes" : [
        {
            "extras" : {
                "glTF2ExportSettings" : {
                    "export_format" : "GLTF_SEPARATE"
                }
            },
            "name" : "Scene",
            "nodes" : [
                0,
                1,
                2
            ]
        }
    ],
    "nodes" : [
        {
            "name" : "Light",
            "rotation" : [
                0.16907575726509094,
                0.7558803558349609,
                -0.27217137813568115,
                0.570947527885437
            ],
            "translation" : [
                4.076245307922363,
                5.903861999511719,
                -1.0054539442062378
            ]
        },
        {
            "name" : "Camera",
            "rotation" : [
                0.483536034822464,
                0.33687159419059753,
                -0.20870360732078552,
                0.7804827094078064
            ],
            "translation" : [
                7.358891487121582,
                4.958309173583984,
                6.925790786743164
            ]
        },
        {
            "mesh" : 0,
            "name" : "subwoofer_obj"
        }
    ],
    "materials" : [
        {
            "alphaMode" : "BLEND",
            "doubleSided" : true,
            "emissiveFactor" : [
                0,
                0,
                0
            ],
            "name" : "subwoofer:blinn2SG",
            "pbrMetallicRoughness" : {
                "baseColorFactor" : [
                    0.30000001192092896,
                    0.3700000047683716,
                    0.36000001430511475,
                    1
                ],
                "metallicFactor" : 0,
                "roughnessFactor" : 1
            }
        },
        {
            "alphaMode" : "BLEND",
            "doubleSided" : true,
            "emissiveFactor" : [
                0,
                0,
                0
            ],
            "name" : "subwoofer:boltik:blinn2SG",
            "pbrMetallicRoughness" : {
                "baseColorFactor" : [
                    1,
                    1,
                    1,
                    1
                ],
                "metallicFactor" : 0,
                "roughnessFactor" : 1
            }
        },
        {
            "alphaMode" : "BLEND",
            "doubleSided" : true,
            "emissiveFactor" : [
                0,
                0,
                0
            ],
            "name" : "subwoofer:blinn1SG",
            "pbrMetallicRoughness" : {
                "baseColorFactor" : [
                    0.23999999463558197,
                    0.23999999463558197,
                    0.23999999463558197,
                    1
                ],
                "metallicFactor" : 0,
                "roughnessFactor" : 1
            }
        },
        {
            "alphaMode" : "BLEND",
            "doubleSided" : true,
            "emissiveFactor" : [
                0,
                0,
                0
            ],
            "name" : "subwoofer:blinn3SG",
            "pbrMetallicRoughness" : {
                "baseColorFactor" : [
                    0.1599999964237213,
                    0.1599999964237213,
                    0.1599999964237213,
                    1
                ],
                "metallicFactor" : 0,
                "roughnessFactor" : 1
            }
        },
        {
            "alphaMode" : "BLEND",
            "doubleSided" : true,
            "emissiveFactor" : [
                0,
                0,
                0
            ],
            "name" : "subwoofer:blinn4SG",
            "pbrMetallicRoughness" : {
                "baseColorFactor" : [
                    1,
                    1,
                    0,
                    1
                ],
                "metallicFactor" : 0,
                "roughnessFactor" : 1
            }
        },
        {
            "alphaMode" : "BLEND",
            "doubleSided" : true,
            "emissiveFactor" : [
                0,
                0,
                0
            ],
            "name" : "subwoofer:lambert2SG",
            "pbrMetallicRoughness" : {
                "baseColorFactor" : [
                    0.7400000095367432,
                    0.7400000095367432,
                    0.7400000095367432,
                    1
                ],
                "metallicFactor" : 0,
                "roughnessFactor" : 1
            }
        }
    ],
    "meshes" : [
        {
            "name" : "subwoofer_obj",
            "primitives" : [
                {
                    "attributes" : {
                        "POSITION" : 0,
                        "NORMAL" : 1,
                        "TEXCOORD_0" : 2
                    },
                    "indices" : 3,
                    "material" : 0
                },
                {
                    "attributes" : {
                        "POSITION" : 4,
                        "NORMAL" : 5,
                        "TEXCOORD_0" : 6
                    },
                    "indices" : 7,
                    "material" : 1
                },
                {
                    "attributes" : {
                        "POSITION" : 8,
                        "NORMAL" : 9,
                        "TEXCOORD_0" : 10
                    },
                    "indices" : 11,
                    "material" : 2
                },
                {
                    "attributes" : {
                        "POSITION" : 12,
                        "NORMAL" : 13,
                        "TEXCOORD_0" : 14
                    },
                    "indices" : 15,
                    "material" : 3
                },
                {
                    "attributes" : {
                        "POSITION" : 16,
                        "NORMAL" : 17,
                        "TEXCOORD_0" : 18
                    },
                    "indices" : 19,
                    "material" : 4
                },
                {
                    "attributes" : {
                        "POSITION" : 20,
                        "NORMAL" : 21,
                        "TEXCOORD_0" : 22
                    },
                    "indices" : 23,
                    "material" : 5
                }
            ]
        }
    ],
    "accessors" : [
        {
            "bufferView" : 0,
            "componentType" : 5126,
            "count" : 204,
            "max" : [
                0.17509227991104126,
                0.47828927636146545,
                0.1054970845580101
            ],
            "min" : [
                -0.17509227991104126,
                0.1281047761440277,
                0.10152330994606018
            ],
            "type" : "VEC3"
        },
        {
            "bufferView" : 1,
            "componentType" : 5126,
            "count" : 204,
            "type" : "VEC3"
        },
        {
            "bufferView" : 2,
            "componentType" : 5126,
            "count" : 204,
            "type" : "VEC2"
        },
        {
            "bufferView" : 3,
            "componentType" : 5123,
            "count" : 672,
            "type" : "SCALAR"
        },
        {
            "bufferView" : 4,
            "componentType" : 5126,
            "count" : 1679,
            "max" : [
                0.18077094852924347,
                0.4839570224285126,
                0.10737009346485138
            ],
            "min" : [
                -0.18079990148544312,
                0.12238169461488724,
                0.10559836775064468
            ],
            "type" : "VEC3"
        },
        {
            "bufferView" : 5,
            "componentType" : 5126,
            "count" : 1679,
            "type" : "VEC3"
        },
        {
            "bufferView" : 6,
            "componentType" : 5126,
            "count" : 1679,
            "type" : "VEC2"
        },
        {
            "bufferView" : 7,
            "componentType" : 5123,
            "count" : 4032,
            "type" : "SCALAR"
        },
        {
            "bufferView" : 8,
            "componentType" : 5126,
            "count" : 3613,
            "max" : [
                0.196262925863266,
                0.4994385838508606,
                0.10682377219200134
            ],
            "min" : [
                -0.19632571935653687,
                0.10683693736791611,
                0.048596348613500595
            ],
            "type" : "VEC3"
        },
        {
            "bufferView" : 9,
            "componentType" : 5126,
            "count" : 3613,
            "type" : "VEC3"
        },
        {
            "bufferView" : 10,
            "componentType" : 5126,
            "count" : 3613,
            "type" : "VEC2"
        },
        {
            "bufferView" : 11,
            "componentType" : 5123,
            "count" : 11088,
            "type" : "SCALAR"
        },
        {
            "bufferView" : 12,
            "componentType" : 5126,
            "count" : 1556,
            "max" : [
                0.21820689737796783,
                0.5214036703109741,
                0.10656145960092545
            ],
            "min" : [
                -0.21820689737796783,
                0.0009941861499100924,
                -0.21617545187473297
            ],
            "type" : "VEC3"
        },
        {
            "bufferView" : 13,
            "componentType" : 5126,
            "count" : 1556,
            "type" : "VEC3"
        },
        {
            "bufferView" : 14,
            "componentType" : 5126,
            "count" : 1556,
            "type" : "VEC2"
        },
        {
            "bufferView" : 15,
            "componentType" : 5123,
            "count" : 4194,
            "type" : "SCALAR"
        },
        {
            "bufferView" : 16,
            "componentType" : 5126,
            "count" : 84,
            "max" : [
                0.01672816090285778,
                0.076132632791996,
                0.09984668344259262
            ],
            "min" : [
                -0.016874339431524277,
                0.06671594828367233,
                0.09679236263036728
            ],
            "type" : "VEC3"
        },
        {
            "bufferView" : 17,
            "componentType" : 5126,
            "count" : 84,
            "type" : "VEC3"
        },
        {
            "bufferView" : 18,
            "componentType" : 5126,
            "count" : 84,
            "type" : "VEC2"
        },
        {
            "bufferView" : 19,
            "componentType" : 5123,
            "count" : 240,
            "type" : "SCALAR"
        },
        {
            "bufferView" : 20,
            "componentType" : 5126,
            "count" : 77,
            "max" : [
                0.21351836621761322,
                0.516715407371521,
                0.09850556403398514
            ],
            "min" : [
                -0.21351836621761322,
                0.08967866003513336,
                0.09850553423166275
            ],
            "type" : "VEC3"
        },
        {
            "bufferView" : 21,
            "componentType" : 5126,
            "count" : 77,
            "type" : "VEC3"
        },
        {
            "bufferView" : 22,
            "componentType" : 5126,
            "count" : 77,
            "type" : "VEC2"
        },
        {
            "bufferView" : 23,
            "componentType" : 5123,
            "count" : 180,
            "type" : "SCALAR"
        }
    ],
    "bufferViews" : [
        {
            "buffer" : 0,
            "byteLength" : 2448,
            "byteOffset" : 0
        },
        {
            "buffer" : 0,
            "byteLength" : 2448,
            "byteOffset" : 2448
        },
        {
            "buffer" : 0,
            "byteLength" : 1632,
            "byteOffset" : 4896
        },
        {
            "buffer" : 0,
            "byteLength" : 1344,
            "byteOffset" : 6528
        },
        {
            "buffer" : 0,
            "byteLength" : 20148,
            "byteOffset" : 7872
        },
        {
            "buffer" : 0,
            "byteLength" : 20148,
            "byteOffset" : 28020
        },
        {
            "buffer" : 0,
            "byteLength" : 13432,
            "byteOffset" : 48168
        },
        {
            "buffer" : 0,
            "byteLength" : 8064,
            "byteOffset" : 61600
        },
        {
            "buffer" : 0,
            "byteLength" : 43356,
            "byteOffset" : 69664
        },
        {
            "buffer" : 0,
            "byteLength" : 43356,
            "byteOffset" : 113020
        },
        {
            "buffer" : 0,
            "byteLength" : 28904,
            "byteOffset" : 156376
        },
        {
            "buffer" : 0,
            "byteLength" : 22176,
            "byteOffset" : 185280
        },
        {
            "buffer" : 0,
            "byteLength" : 18672,
            "byteOffset" : 207456
        },
        {
            "buffer" : 0,
            "byteLength" : 18672,
            "byteOffset" : 226128
        },
        {
            "buffer" : 0,
            "byteLength" : 12448,
            "byteOffset" : 244800
        },
        {
            "buffer" : 0,
            "byteLength" : 8388,
            "byteOffset" : 257248
        },
        {
            "buffer" : 0,
            "byteLength" : 1008,
            "byteOffset" : 265636
        },
        {
            "buffer" : 0,
            "byteLength" : 1008,
            "byteOffset" : 266644
        },
        {
            "buffer" : 0,
            "byteLength" : 672,
            "byteOffset" : 267652
        },
        {
            "buffer" : 0,
            "byteLength" : 480,
            "byteOffset" : 268324
        },
        {
            "buffer" : 0,
            "byteLength" : 924,
            "byteOffset" : 268804
        },
        {
            "buffer" : 0,
            "byteLength" : 924,
            "byteOffset" : 269728
        },
        {
            "buffer" : 0,
            "byteLength" : 616,
            "byteOffset" : 270652
        },
        {
            "buffer" : 0,
            "byteLength" : 360,
            "byteOffset" : 271268
        }
    ],
    "buffers" : [
        {
            "byteLength" : 271628,
            "uri" : "soundbox.bin"
        }
    ]
}
