{
    "asset" : {
        "generator" : "Khronos glTF Blender I/O v1.1.46",
        "version" : "2.0"
    },
    "scene" : 0,
    "scenes" : [
        {
            "name" : "Scene",
            "nodes" : [
                0,
                1,
                2
            ]
        }
    ],
    "nodes" : [
        {
            "name" : "Light",
            "rotation" : [
                0.16907575726509094,
                0.7558803558349609,
                -0.27217137813568115,
                0.570947527885437
            ],
            "translation" : [
                4.076245307922363,
                5.903861999511719,
                -1.0054539442062378
            ]
        },
        {
            "name" : "Camera",
            "rotation" : [
                0.483536034822464,
                0.33687159419059753,
                -0.20870360732078552,
                0.7804827094078064
            ],
            "translation" : [
                7.358891487121582,
                4.958309173583984,
                6.925790786743164
            ]
        },
        {
            "mesh" : 0,
            "name" : "Lamp_39",
            "scale" : [
                0.9667516350746155,
                0.9667516350746155,
                0.9667516350746155
            ],
            "translation" : [
                -2.417876720428467,
                0,
                0
            ]
        }
    ],
    "materials" : [
        {
            "doubleSided" : true,
            "emissiveFactor" : [
                0,
                0,
                0
            ],
            "name" : "wire_134059008",
            "pbrMetallicRoughness" : {
                "baseColorFactor" : [
                    0.5254999995231628,
                    0.2313999980688095,
                    0.03139999881386757,
                    1
                ],
                "metallicFactor" : 0,
                "roughnessFactor" : 0.8114382028579712
            }
        },
        {
            "doubleSided" : true,
            "emissiveFactor" : [
                0,
                0,
                0
            ],
            "name" : "wire_153228184",
            "pbrMetallicRoughness" : {
                "baseColorFactor" : [
                    0.32712656259536743,
                    0.43758127093315125,
                    0.49265044927597046,
                    1
                ],
                "metallicFactor" : 0,
                "roughnessFactor" : 0.8114382028579712
            }
        }
    ],
    "meshes" : [
        {
            "name" : "Lamp_39",
            "primitives" : [
                {
                    "attributes" : {
                        "POSITION" : 0,
                        "NORMAL" : 1,
                        "TEXCOORD_0" : 2
                    },
                    "indices" : 3,
                    "material" : 0
                },
                {
                    "attributes" : {
                        "POSITION" : 4,
                        "NORMAL" : 5,
                        "TEXCOORD_0" : 6
                    },
                    "indices" : 7,
                    "material" : 1
                }
            ]
        }
    ],
    "accessors" : [
        {
            "bufferView" : 0,
            "componentType" : 5126,
            "count" : 1081,
            "max" : [
                3.3976662158966064,
                6.606484413146973,
                0.9355860948562622
            ],
            "min" : [
                1.526482105255127,
                5.971611976623535,
                -0.9355854988098145
            ],
            "type" : "VEC3"
        },
        {
            "bufferView" : 1,
            "componentType" : 5126,
            "count" : 1081,
            "type" : "VEC3"
        },
        {
            "bufferView" : 2,
            "componentType" : 5126,
            "count" : 1081,
            "type" : "VEC2"
        },
        {
            "bufferView" : 3,
            "componentType" : 5123,
            "count" : 6360,
            "type" : "SCALAR"
        },
        {
            "bufferView" : 4,
            "componentType" : 5126,
            "count" : 748,
            "max" : [
                3.052964210510254,
                5.961581230163574,
                0.5908963084220886
            ],
            "min" : [
                1.8711715936660767,
                -2.5613493548348742e-08,
                -0.5908963084220886
            ],
            "type" : "VEC3"
        },
        {
            "bufferView" : 5,
            "componentType" : 5126,
            "count" : 748,
            "type" : "VEC3"
        },
        {
            "bufferView" : 6,
            "componentType" : 5126,
            "count" : 748,
            "type" : "VEC2"
        },
        {
            "bufferView" : 7,
            "componentType" : 5123,
            "count" : 2178,
            "type" : "SCALAR"
        }
    ],
    "bufferViews" : [
        {
            "buffer" : 0,
            "byteLength" : 12972,
            "byteOffset" : 0
        },
        {
            "buffer" : 0,
            "byteLength" : 12972,
            "byteOffset" : 12972
        },
        {
            "buffer" : 0,
            "byteLength" : 8648,
            "byteOffset" : 25944
        },
        {
            "buffer" : 0,
            "byteLength" : 12720,
            "byteOffset" : 34592
        },
        {
            "buffer" : 0,
            "byteLength" : 8976,
            "byteOffset" : 47312
        },
        {
            "buffer" : 0,
            "byteLength" : 8976,
            "byteOffset" : 56288
        },
        {
            "buffer" : 0,
            "byteLength" : 5984,
            "byteOffset" : 65264
        },
        {
            "buffer" : 0,
            "byteLength" : 4356,
            "byteOffset" : 71248
        }
    ],
    "buffers" : [
        {
            "byteLength" : 75604,
            "uri" : "lamp.bin"
        }
    ]
}
