{
    "asset" : {
        "generator" : "Khronos glTF Blender I/O v1.1.46",
        "version" : "2.0"
    },
    "scene" : 0,
    "scenes" : [
        {
            "name" : "Scene",
            "nodes" : [
                0,
                1,
                2,
                3,
                4
            ]
        }
    ],
    "nodes" : [
        {
            "name" : "Light",
            "rotation" : [
                0.16907575726509094,
                0.7558803558349609,
                -0.27217137813568115,
                0.570947527885437
            ],
            "translation" : [
                4.076245307922363,
                5.903861999511719,
                -1.0054539442062378
            ]
        },
        {
            "name" : "Camera",
            "rotation" : [
                0.483536034822464,
                0.33687159419059753,
                -0.20870360732078552,
                0.7804827094078064
            ],
            "translation" : [
                7.358891487121582,
                4.958309173583984,
                6.925790786743164
            ]
        },
        {
            "name" : "Light.001",
            "rotation" : [
                0.5232754945755005,
                0.34203392267227173,
                -0.7269423604011536,
                0.284166157245636
            ],
            "translation" : [
                4.076245307922363,
                5.903862476348877,
                -1.0054532289505005
            ]
        },
        {
            "name" : "Camera.001",
            "rotation" : [
                0.8937963247299194,
                0.09062855690717697,
                -0.3857799172401428,
                0.20997287333011627
            ],
            "translation" : [
                7.358891487121582,
                4.958308696746826,
                6.925792217254639
            ]
        },
        {
            "mesh" : 0,
            "name" : "Lamp_39"
        }
    ],
    "materials" : [
        {
            "doubleSided" : true,
            "emissiveFactor" : [
                0,
                0,
                0
            ],
            "name" : "wire_134059008",
            "pbrMetallicRoughness" : {
                "baseColorFactor" : [
                    0.5254999995231628,
                    0.2313999980688095,
                    0.03139999881386757,
                    1
                ],
                "metallicFactor" : 0,
                "roughnessFactor" : 0.8114382028579712
            }
        },
        {
            "doubleSided" : true,
            "emissiveFactor" : [
                0,
                0,
                0
            ],
            "name" : "wire_153228184",
            "pbrMetallicRoughness" : {
                "baseColorFactor" : [
                    0.32712656259536743,
                    0.43758127093315125,
                    0.49265044927597046,
                    1
                ],
                "metallicFactor" : 0,
                "roughnessFactor" : 0.8114382028579712
            }
        }
    ],
    "meshes" : [
        {
            "name" : "Lamp_39",
            "primitives" : [
                {
                    "attributes" : {
                        "POSITION" : 0,
                        "NORMAL" : 1,
                        "TEXCOORD_0" : 2
                    },
                    "indices" : 3,
                    "material" : 0
                },
                {
                    "attributes" : {
                        "POSITION" : 4,
                        "NORMAL" : 5,
                        "TEXCOORD_0" : 6
                    },
                    "indices" : 7,
                    "material" : 1
                }
            ]
        }
    ],
    "accessors" : [
        {
            "bufferView" : 0,
            "componentType" : 5126,
            "count" : 1081,
            "max" : [
                0.12058928608894348,
                0.6974291801452637,
                0.09876745939254761
            ],
            "min" : [
                -0.07694672048091888,
                0.6304073929786682,
                -0.09876721352338791
            ],
            "type" : "VEC3"
        },
        {
            "bufferView" : 1,
            "componentType" : 5126,
            "count" : 1081,
            "type" : "VEC3"
        },
        {
            "bufferView" : 2,
            "componentType" : 5126,
            "count" : 1081,
            "type" : "VEC2"
        },
        {
            "bufferView" : 3,
            "componentType" : 5123,
            "count" : 6360,
            "type" : "SCALAR"
        },
        {
            "bufferView" : 4,
            "componentType" : 5126,
            "count" : 973,
            "max" : [
                0.08419999480247498,
                0.6293484568595886,
                0.062379371374845505
            ],
            "min" : [
                -0.04055875539779663,
                -1.1015273138070825e-08,
                -0.062379371374845505
            ],
            "type" : "VEC3"
        },
        {
            "bufferView" : 5,
            "componentType" : 5126,
            "count" : 973,
            "type" : "VEC3"
        },
        {
            "bufferView" : 6,
            "componentType" : 5126,
            "count" : 973,
            "type" : "VEC2"
        },
        {
            "bufferView" : 7,
            "componentType" : 5123,
            "count" : 2178,
            "type" : "SCALAR"
        }
    ],
    "bufferViews" : [
        {
            "buffer" : 0,
            "byteLength" : 12972,
            "byteOffset" : 0
        },
        {
            "buffer" : 0,
            "byteLength" : 12972,
            "byteOffset" : 12972
        },
        {
            "buffer" : 0,
            "byteLength" : 8648,
            "byteOffset" : 25944
        },
        {
            "buffer" : 0,
            "byteLength" : 12720,
            "byteOffset" : 34592
        },
        {
            "buffer" : 0,
            "byteLength" : 11676,
            "byteOffset" : 47312
        },
        {
            "buffer" : 0,
            "byteLength" : 11676,
            "byteOffset" : 58988
        },
        {
            "buffer" : 0,
            "byteLength" : 7784,
            "byteOffset" : 70664
        },
        {
            "buffer" : 0,
            "byteLength" : 4356,
            "byteOffset" : 78448
        }
    ],
    "buffers" : [
        {
            "byteLength" : 82804,
            "uri" : "lamp.bin"
        }
    ]
}
