{
    "asset" : {
        "generator" : "Khronos glTF Blender I/O v1.1.46",
        "version" : "2.0"
    },
    "scene" : 0,
    "scenes" : [
        {
            "name" : "Scene",
            "nodes" : [
                0,
                1,
                2
            ]
        }
    ],
    "nodes" : [
        {
            "name" : "Light",
            "rotation" : [
                0.16907575726509094,
                0.7558803558349609,
                -0.27217137813568115,
                0.570947527885437
            ],
            "translation" : [
                4.076245307922363,
                5.903861999511719,
                -1.0054539442062378
            ]
        },
        {
            "name" : "Camera",
            "rotation" : [
                0.483536034822464,
                0.33687159419059753,
                -0.20870360732078552,
                0.7804827094078064
            ],
            "translation" : [
                7.358891487121582,
                4.958309173583984,
                6.925790786743164
            ]
        },
        {
            "mesh" : 0,
            "name" : "Cube.001",
            "rotation" : [
                0.7071067690849304,
                0,
                0,
                0.7071067690849304
            ]
        }
    ],
    "materials" : [
        {
            "doubleSided" : true,
            "emissiveFactor" : [
                0,
                0,
                0
            ],
            "name" : "white_plastic",
            "pbrMetallicRoughness" : {
                "baseColorFactor" : [
                    1,
                    1,
                    1,
                    1
                ],
                "metallicFactor" : 0,
                "roughnessFactor" : 0.6732679605484009
            }
        },
        {
            "doubleSided" : true,
            "emissiveFactor" : [
                0,
                0,
                0
            ],
            "name" : "glass_dark",
            "pbrMetallicRoughness" : {
                "baseColorFactor" : [
                    0.06324200332164764,
                    0.06354500353336334,
                    0.0644569993019104,
                    1
                ],
                "metallicFactor" : 0,
                "roughnessFactor" : 0.6732679605484009
            }
        },
        {
            "doubleSided" : true,
            "emissiveFactor" : [
                0,
                0,
                0
            ],
            "name" : "chrome",
            "pbrMetallicRoughness" : {
                "baseColorFactor" : [
                    0.7483890056610107,
                    0.7483890056610107,
                    0.7483890056610107,
                    1
                ],
                "metallicFactor" : 0,
                "roughnessFactor" : 0.6732679605484009
            }
        },
        {
            "doubleSided" : true,
            "emissiveFactor" : [
                0,
                0,
                0
            ],
            "name" : "black_plastic",
            "pbrMetallicRoughness" : {
                "baseColorFactor" : [
                    0.033100999891757965,
                    0.033100999891757965,
                    0.033100999891757965,
                    1
                ],
                "metallicFactor" : 0,
                "roughnessFactor" : 0.6732679605484009
            }
        },
        {
            "doubleSided" : true,
            "emissiveFactor" : [
                0,
                0,
                0
            ],
            "name" : "green",
            "pbrMetallicRoughness" : {
                "baseColorFactor" : [
                    0.0070039997808635235,
                    0.36722999811172485,
                    0,
                    1
                ],
                "metallicFactor" : 0,
                "roughnessFactor" : 0.6732679605484009
            }
        },
        {
            "doubleSided" : true,
            "emissiveFactor" : [
                0,
                0,
                0
            ],
            "name" : "red",
            "pbrMetallicRoughness" : {
                "baseColorFactor" : [
                    0.800000011920929,
                    0,
                    0.006585999857634306,
                    1
                ],
                "metallicFactor" : 0,
                "roughnessFactor" : 0.6732679605484009
            }
        },
        {
            "doubleSided" : true,
            "emissiveFactor" : [
                0,
                0,
                0
            ],
            "name" : "black",
            "pbrMetallicRoughness" : {
                "baseColorFactor" : [
                    0.015077999792993069,
                    0.015077999792993069,
                    0.015077999792993069,
                    1
                ],
                "metallicFactor" : 0,
                "roughnessFactor" : 0.6732679605484009
            }
        }
    ],
    "meshes" : [
        {
            "name" : "Cube.001",
            "primitives" : [
                {
                    "attributes" : {
                        "POSITION" : 0,
                        "NORMAL" : 1
                    },
                    "indices" : 2,
                    "material" : 0
                },
                {
                    "attributes" : {
                        "POSITION" : 3,
                        "NORMAL" : 4
                    },
                    "indices" : 5,
                    "material" : 1
                },
                {
                    "attributes" : {
                        "POSITION" : 6,
                        "NORMAL" : 7
                    },
                    "indices" : 8,
                    "material" : 2
                },
                {
                    "attributes" : {
                        "POSITION" : 9,
                        "NORMAL" : 10
                    },
                    "indices" : 11,
                    "material" : 3
                },
                {
                    "attributes" : {
                        "POSITION" : 12,
                        "NORMAL" : 13
                    },
                    "indices" : 14,
                    "material" : 4
                },
                {
                    "attributes" : {
                        "POSITION" : 15,
                        "NORMAL" : 16
                    },
                    "indices" : 17,
                    "material" : 5
                },
                {
                    "attributes" : {
                        "POSITION" : 18,
                        "NORMAL" : 19
                    },
                    "indices" : 20,
                    "material" : 6
                }
            ]
        }
    ],
    "accessors" : [
        {
            "bufferView" : 0,
            "componentType" : 5126,
            "count" : 31831,
            "max" : [
                0.25,
                0.15000000596046448,
                0.125
            ],
            "min" : [
                -0.25,
                -0.15000000596046448,
                -0.125
            ],
            "type" : "VEC3"
        },
        {
            "bufferView" : 1,
            "componentType" : 5126,
            "count" : 31831,
            "type" : "VEC3"
        },
        {
            "bufferView" : 2,
            "componentType" : 5123,
            "count" : 57018,
            "type" : "SCALAR"
        },
        {
            "bufferView" : 3,
            "componentType" : 5126,
            "count" : 4,
            "max" : [
                0.0946969985961914,
                0.14595100283622742,
                0.08114299923181534
            ],
            "min" : [
                -0.21040500700473785,
                0.14595100283622742,
                -0.08140899986028671
            ],
            "type" : "VEC3"
        },
        {
            "bufferView" : 4,
            "componentType" : 5126,
            "count" : 4,
            "type" : "VEC3"
        },
        {
            "bufferView" : 5,
            "componentType" : 5123,
            "count" : 6,
            "type" : "SCALAR"
        },
        {
            "bufferView" : 6,
            "componentType" : 5126,
            "count" : 421,
            "max" : [
                0.12185599654912949,
                0.17407900094985962,
                0.0915829986333847
            ],
            "min" : [
                -0.23270100355148315,
                -0.08010700345039368,
                -0.09120900183916092
            ],
            "type" : "VEC3"
        },
        {
            "bufferView" : 7,
            "componentType" : 5126,
            "count" : 421,
            "type" : "VEC3"
        },
        {
            "bufferView" : 8,
            "componentType" : 5123,
            "count" : 648,
            "type" : "SCALAR"
        },
        {
            "bufferView" : 9,
            "componentType" : 5126,
            "count" : 674,
            "max" : [
                0.24028000235557556,
                0.14701500535011292,
                0.08161699771881104
            ],
            "min" : [
                0.15029600262641907,
                0.13917100429534912,
                -0.0815029963850975
            ],
            "type" : "VEC3"
        },
        {
            "bufferView" : 10,
            "componentType" : 5126,
            "count" : 674,
            "type" : "VEC3"
        },
        {
            "bufferView" : 11,
            "componentType" : 5123,
            "count" : 1026,
            "type" : "SCALAR"
        },
        {
            "bufferView" : 12,
            "componentType" : 5126,
            "count" : 5253,
            "max" : [
                0.2370699942111969,
                0.14758500456809998,
                0.017570000141859055
            ],
            "min" : [
                0.16269999742507935,
                0.144677996635437,
                -0.03611199930310249
            ],
            "type" : "VEC3"
        },
        {
            "bufferView" : 13,
            "componentType" : 5126,
            "count" : 5253,
            "type" : "VEC3"
        },
        {
            "bufferView" : 14,
            "componentType" : 5123,
            "count" : 9288,
            "type" : "SCALAR"
        },
        {
            "bufferView" : 15,
            "componentType" : 5126,
            "count" : 4293,
            "max" : [
                0.2370699942111969,
                0.14758500456809998,
                0.0738930031657219
            ],
            "min" : [
                0.18299899995326996,
                0.144677996635437,
                -0.03352700173854828
            ],
            "type" : "VEC3"
        },
        {
            "bufferView" : 16,
            "componentType" : 5126,
            "count" : 4293,
            "type" : "VEC3"
        },
        {
            "bufferView" : 17,
            "componentType" : 5123,
            "count" : 7716,
            "type" : "SCALAR"
        },
        {
            "bufferView" : 18,
            "componentType" : 5126,
            "count" : 334,
            "max" : [
                0.23294100165367126,
                0.13917100429534912,
                0.13942499458789825
            ],
            "min" : [
                -0.23074999451637268,
                -0.10980399698019028,
                -0.11249999701976776
            ],
            "type" : "VEC3"
        },
        {
            "bufferView" : 19,
            "componentType" : 5126,
            "count" : 334,
            "type" : "VEC3"
        },
        {
            "bufferView" : 20,
            "componentType" : 5123,
            "count" : 534,
            "type" : "SCALAR"
        }
    ],
    "bufferViews" : [
        {
            "buffer" : 0,
            "byteLength" : 381972,
            "byteOffset" : 0
        },
        {
            "buffer" : 0,
            "byteLength" : 381972,
            "byteOffset" : 381972
        },
        {
            "buffer" : 0,
            "byteLength" : 114036,
            "byteOffset" : 763944
        },
        {
            "buffer" : 0,
            "byteLength" : 48,
            "byteOffset" : 877980
        },
        {
            "buffer" : 0,
            "byteLength" : 48,
            "byteOffset" : 878028
        },
        {
            "buffer" : 0,
            "byteLength" : 12,
            "byteOffset" : 878076
        },
        {
            "buffer" : 0,
            "byteLength" : 5052,
            "byteOffset" : 878088
        },
        {
            "buffer" : 0,
            "byteLength" : 5052,
            "byteOffset" : 883140
        },
        {
            "buffer" : 0,
            "byteLength" : 1296,
            "byteOffset" : 888192
        },
        {
            "buffer" : 0,
            "byteLength" : 8088,
            "byteOffset" : 889488
        },
        {
            "buffer" : 0,
            "byteLength" : 8088,
            "byteOffset" : 897576
        },
        {
            "buffer" : 0,
            "byteLength" : 2052,
            "byteOffset" : 905664
        },
        {
            "buffer" : 0,
            "byteLength" : 63036,
            "byteOffset" : 907716
        },
        {
            "buffer" : 0,
            "byteLength" : 63036,
            "byteOffset" : 970752
        },
        {
            "buffer" : 0,
            "byteLength" : 18576,
            "byteOffset" : 1033788
        },
        {
            "buffer" : 0,
            "byteLength" : 51516,
            "byteOffset" : 1052364
        },
        {
            "buffer" : 0,
            "byteLength" : 51516,
            "byteOffset" : 1103880
        },
        {
            "buffer" : 0,
            "byteLength" : 15432,
            "byteOffset" : 1155396
        },
        {
            "buffer" : 0,
            "byteLength" : 4008,
            "byteOffset" : 1170828
        },
        {
            "buffer" : 0,
            "byteLength" : 4008,
            "byteOffset" : 1174836
        },
        {
            "buffer" : 0,
            "byteLength" : 1068,
            "byteOffset" : 1178844
        }
    ],
    "buffers" : [
        {
            "byteLength" : 1179912,
            "uri" : "microwave.bin"
        }
    ]
}
