{
    "accessors": [
        {
            "bufferView": 3,
            "byteOffset": 0,
            "componentType": 5123,
            "count": 13446,
            "max": [
                8986
            ],
            "min": [
                0
            ],
            "name": "accessor_buffer_Tricycle_0",
            "type": "SCALAR"
        },
        {
            "bufferView": 2,
            "byteOffset": 0,
            "componentType": 5126,
            "count": 8987,
            "max": [
                0.838325023651123,
                0.8245570063591003
            ],
            "min": [
                0.1463180035352707,
                0.026648998260498047
            ],
            "name": "accessor_buffer_Tricycle_TEXCOORD_0_0",
            "type": "VEC2"
        },
        {
            "bufferView": 1,
            "byteOffset": 0,
            "componentType": 5126,
            "count": 8987,
            "max": [
                1.0,
                1.0,
                1.0
            ],
            "min": [
                -1.0,
                -1.0,
                -1.0
            ],
            "name": "accessor_buffer_Tricycle_NORMAL_0",
            "type": "VEC3"
        },
        {
            "bufferView": 0,
            "byteOffset": 0,
            "componentType": 5126,
            "count": 8987,
            "max": [
                0.30050715804100037,
                0.6267503499984741,
                0.3855365812778473
            ],
            "min": [
                -0.3005073368549347,
                9.295305289924727e-07,
                -0.3855366110801697
            ],
            "name": "accessor_buffer_Tricycle_POSITION_0",
            "type": "VEC3"
        }
    ],
    "asset": {
        "copyright": "",
        "generator": "blendergltf v1.2.0",
        "version": "2.0"
    },
    "bufferViews": [
        {
            "buffer": 0,
            "byteLength": 107844,
            "byteOffset": 0,
            "byteStride": 12,
            "name": "bufferView_buffer_Tricycle_POSITION_0",
            "target": 34962
        },
        {
            "buffer": 0,
            "byteLength": 107844,
            "byteOffset": 107844,
            "byteStride": 12,
            "name": "bufferView_buffer_Tricycle_NORMAL_0",
            "target": 34962
        },
        {
            "buffer": 0,
            "byteLength": 71896,
            "byteOffset": 215688,
            "byteStride": 8,
            "name": "bufferView_buffer_Tricycle_TEXCOORD_0_0",
            "target": 34962
        },
        {
            "buffer": 0,
            "byteLength": 26896,
            "byteOffset": 287584,
            "name": "bufferView_buffer_Tricycle_0",
            "target": 34963
        }
    ],
    "buffers": [
        {
            "byteLength": 314480,
            "name": "buffer_tri_cycle",
            "uri": "buffer_tri_cycle.bin"
        }
    ],
    "images": [
        {
            "name": "1351 Tricycle.png",
            "uri": "1351 Tricycle.png"
        }
    ],
    "materials": [
        {
            "alphaMode": "OPAQUE",
            "doubleSided": false,
            "emissiveFactor": [
                0.0,
                0.0,
                0.0
            ],
            "name": "Mat",
            "pbrMetallicRoughness": {
                "baseColorFactor": [
                    0.64000004529953,
                    0.64000004529953,
                    0.64000004529953,
                    1.0
                ],
                "baseColorTexture": {
                    "index": 0,
                    "texCoord": 0
                },
                "metallicFactor": 0.0,
                "roughnessFactor": 1.0
            }
        }
    ],
    "meshes": [
        {
            "name": "Tricycle",
            "primitives": [
                {
                    "attributes": {
                        "NORMAL": 2,
                        "POSITION": 3,
                        "TEXCOORD_0": 1
                    },
                    "indices": 0,
                    "material": 0,
                    "mode": 4
                }
            ]
        }
    ],
    "nodes": [
        {
            "mesh": 0,
            "name": "Tricycle",
            "rotation": [
                0.0,
                0.0,
                0.0,
                1.0
            ],
            "scale": [
                1.0,
                1.0,
                1.0
            ],
            "translation": [
                0.0,
                0.0,
                0.6122730374336243
            ]
        }
    ],
    "samplers": [
        {
            "magFilter": 9729,
            "minFilter": 9987,
            "name": "Kd",
            "wrapS": 10497,
            "wrapT": 10497
        }
    ],
    "scene": 0,
    "scenes": [
        {
            "extras": {
                "background_color": [
                    0.05087608844041824,
                    0.05087608844041824,
                    0.05087608844041824
                ],
                "frames_per_second": 24
            },
            "name": "Scene",
            "nodes": [
                0
            ]
        }
    ],
    "textures": [
        {
            "name": "Kd",
            "sampler": 0,
            "source": 0
        }
    ]
}
