{
	"accessors" : 
	[
		{
			"bufferView" : 2,
			"byteOffset" : 0,
			"componentType" : 5126,
			"count" : 9964,
			"max" : 
			[
				0.8751375675201416,
				0.5542271137237549,
				0.2932161688804626,
				1
			],
			"min" : 
			[
				0.006584956776350737,
				0.006584956776350737,
				0.006584956776350737,
				1
			],
			"name" : "accessor_color_m0-PolyPaper10_-984864",
			"type" : "VEC4"
		},
		{
			"bufferView" : 2,
			"byteOffset" : 159424,
			"componentType" : 5126,
			"count" : 176,
			"max" : 
			[
				0.6800203323364258,
				0.6800203323364258,
				0.6800203323364258,
				0.2509804
			],
			"min" : 
			[
				0.6800203323364258,
				0.6800203323364258,
				0.6800203323364258,
				0.2509804
			],
			"name" : "accessor_color_m1-PolyGlass24_-988286",
			"type" : "VEC4"
		},
		{
			"bufferView" : 2,
			"byteOffset" : 162240,
			"componentType" : 5126,
			"count" : 9856,
			"max" : 
			[
				0.0697270855307579,
				0.4368127584457397,
				0.07805658876895905,
				1
			],
			"min" : 
			[
				0.0697270855307579,
				0.4368127584457397,
				0.07805658876895905,
				1
			],
			"name" : "accessor_color_m2-PolyPaper10_-983676",
			"type" : "VEC4"
		},
		{
			"bufferView" : 2,
			"byteOffset" : 319936,
			"componentType" : 5126,
			"count" : 9998,
			"max" : 
			[
				0.8751375675201416,
				0.5542271137237549,
				0.3488648533821106,
				1
			],
			"min" : 
			[
				0.006584956776350737,
				0.006584956776350737,
				0.006584956776350737,
				1
			],
			"name" : "accessor_color_m3-PolyPaper10_-988298",
			"type" : "VEC4"
		},
		{
			"bufferView" : 0,
			"byteOffset" : 0,
			"componentType" : 5123,
			"count" : 12936,
			"max" : 
			[
				9963
			],
			"min" : 
			[
				0
			],
			"name" : "accessor_indices_0_m0-PolyPaper10_-984864",
			"type" : "SCALAR"
		},
		{
			"bufferView" : 0,
			"byteOffset" : 25872,
			"componentType" : 5123,
			"count" : 192,
			"max" : 
			[
				175
			],
			"min" : 
			[
				0
			],
			"name" : "accessor_indices_0_m1-PolyGlass24_-988286",
			"type" : "SCALAR"
		},
		{
			"bufferView" : 0,
			"byteOffset" : 26256,
			"componentType" : 5123,
			"count" : 14076,
			"max" : 
			[
				9855
			],
			"min" : 
			[
				0
			],
			"name" : "accessor_indices_0_m2-PolyPaper10_-983676",
			"type" : "SCALAR"
		},
		{
			"bufferView" : 0,
			"byteOffset" : 54408,
			"componentType" : 5123,
			"count" : 12036,
			"max" : 
			[
				9997
			],
			"min" : 
			[
				0
			],
			"name" : "accessor_indices_0_m3-PolyPaper10_-988298",
			"type" : "SCALAR"
		},
		{
			"bufferView" : 1,
			"byteOffset" : 119568,
			"componentType" : 5126,
			"count" : 9964,
			"max" : 
			[
				0.9999999000000001,
				1,
				0.9994633000000001
			],
			"min" : 
			[
				-1,
				-1,
				-1
			],
			"name" : "accessor_normal_m0-PolyPaper10_-984864",
			"type" : "VEC3"
		},
		{
			"bufferView" : 1,
			"byteOffset" : 241248,
			"componentType" : 5126,
			"count" : 176,
			"max" : 
			[
				0.9630871,
				1,
				0.9630869
			],
			"min" : 
			[
				-0.9630868,
				-1,
				-0.9630869
			],
			"name" : "accessor_normal_m1-PolyGlass24_-988286",
			"type" : "VEC3"
		},
		{
			"bufferView" : 1,
			"byteOffset" : 361632,
			"componentType" : 5126,
			"count" : 9856,
			"max" : 
			[
				0.9986661999999999,
				0.9965621,
				0.9985782
			],
			"min" : 
			[
				-0.9987627,
				-0.9965619999999999,
				-0.9985771
			],
			"name" : "accessor_normal_m2-PolyPaper10_-983676",
			"type" : "VEC3"
		},
		{
			"bufferView" : 1,
			"byteOffset" : 599880,
			"componentType" : 5126,
			"count" : 9998,
			"max" : 
			[
				1,
				1,
				1
			],
			"min" : 
			[
				-1,
				-1,
				-1
			],
			"name" : "accessor_normal_m3-PolyPaper10_-988298",
			"type" : "VEC3"
		},
		{
			"bufferView" : 1,
			"byteOffset" : 0,
			"componentType" : 5126,
			"count" : 9964,
			"max" : 
			[
				1.740792,
				0.9876397,
				1.302954
			],
			"min" : 
			[
				1.193841,
				0.4022074,
				0.7843407
			],
			"name" : "accessor_position_m0-PolyPaper10_-984864",
			"type" : "VEC3"
		},
		{
			"bufferView" : 1,
			"byteOffset" : 239136,
			"componentType" : 5126,
			"count" : 176,
			"max" : 
			[
				1.729969,
				1.08997,
				1.29337
			],
			"min" : 
			[
				1.146636,
				0.3899703,
				0.7100373
			],
			"name" : "accessor_position_m1-PolyGlass24_-988286",
			"type" : "VEC3"
		},
		{
			"bufferView" : 1,
			"byteOffset" : 243360,
			"componentType" : 5126,
			"count" : 9856,
			"max" : 
			[
				1.644687,
				1.056142,
				1.140625
			],
			"min" : 
			[
				1.466897,
				0.5612429,
				0.8157688
			],
			"name" : "accessor_position_m2-PolyPaper10_-983676",
			"type" : "VEC3"
		},
		{
			"bufferView" : 1,
			"byteOffset" : 479904,
			"componentType" : 5126,
			"count" : 9998,
			"max" : 
			[
				1.740785,
				0.9923308,
				1.302923
			],
			"min" : 
			[
				1.136257,
				0.3733805,
				0.6984196
			],
			"name" : "accessor_position_m3-PolyPaper10_-988298",
			"type" : "VEC3"
		}
	],
	"asset" : 
	{
		"copyright" : "Unknown",
		"generator" : "glTF 1-to-2 Upgrader for Google Blocks",
		"version" : "2.0"
	},
	"bufferViews" : 
	[
		{
			"buffer" : 0,
			"byteLength" : 78480,
			"byteOffset" : 0,
			"name" : "ushortBufferView",
			"target" : 34963
		},
		{
			"buffer" : 0,
			"byteLength" : 719856,
			"byteOffset" : 78480,
			"byteStride" : 12,
			"name" : "vec3BufferView",
			"target" : 34962
		},
		{
			"buffer" : 0,
			"byteLength" : 479904,
			"byteOffset" : 798336,
			"byteStride" : 16,
			"name" : "vec4BufferView",
			"target" : 34962
		}
	],
	"buffers" : 
	[
		{
			"byteLength" : 1278240,
			"name" : "terranium",
			"uri" : "terranium.bin"
		}
	],
	"materials" : 
	[
		{
			"alphaMode" : "OPAQUE",
			"doubleSided" : false,
			"name" : "BlocksPaper",
			"pbrMetallicRoughness" : 
			{
				"baseColorFactor" : 
				[
					1,
					1,
					1,
					1
				],
				"metallicFactor" : 0,
				"roughnessFactor" : 0.6
			}
		},
		{
			"alphaMode" : "BLEND",
			"doubleSided" : false,
			"name" : "BlocksGlass",
			"pbrMetallicRoughness" : 
			{
				"baseColorFactor" : 
				[
					0.2,
					0.2,
					1,
					0.3
				],
				"metallicFactor" : 1,
				"roughnessFactor" : 0.4
			}
		},
		{
			"alphaMode" : "OPAQUE",
			"doubleSided" : true,
			"name" : "BlocksGem",
			"pbrMetallicRoughness" : 
			{
				"baseColorFactor" : 
				[
					1,
					0.4,
					1,
					1
				],
				"metallicFactor" : 0,
				"roughnessFactor" : 0.1
			}
		}
	],
	"meshes" : 
	[
		{
			"name" : "mesh_m0-PolyPaper10_-984864",
			"primitives" : 
			[
				{
					"attributes" : 
					{
						"COLOR_0" : 0,
						"NORMAL" : 8,
						"POSITION" : 12
					},
					"indices" : 4,
					"material" : 0,
					"mode" : 4
				}
			]
		},
		{
			"name" : "mesh_m1-PolyGlass24_-988286",
			"primitives" : 
			[
				{
					"attributes" : 
					{
						"COLOR_0" : 1,
						"NORMAL" : 9,
						"POSITION" : 13
					},
					"indices" : 5,
					"material" : 1,
					"mode" : 4
				}
			]
		},
		{
			"name" : "mesh_m2-PolyPaper10_-983676",
			"primitives" : 
			[
				{
					"attributes" : 
					{
						"COLOR_0" : 2,
						"NORMAL" : 10,
						"POSITION" : 14
					},
					"indices" : 6,
					"material" : 0,
					"mode" : 4
				}
			]
		},
		{
			"name" : "mesh_m3-PolyPaper10_-988298",
			"primitives" : 
			[
				{
					"attributes" : 
					{
						"COLOR_0" : 3,
						"NORMAL" : 11,
						"POSITION" : 15
					},
					"indices" : 7,
					"material" : 0,
					"mode" : 4
				}
			]
		}
	],
	"nodes" : 
	[
		{
			"matrix" : 
			[
				1,
				0,
				0,
				0,
				0,
				1,
				0,
				0,
				0,
				0,
				1,
				0,
				0,
				0,
				0,
				1
			],
			"mesh" : 0,
			"name" : "node_MeshObject-1060519360-PolyPaper10"
		},
		{
			"matrix" : 
			[
				1,
				0,
				0,
				0,
				0,
				1,
				0,
				0,
				0,
				0,
				1,
				0,
				0,
				0,
				0,
				1
			],
			"mesh" : 1,
			"name" : "node_MeshObject1097460608-PolyGlass24"
		},
		{
			"matrix" : 
			[
				1,
				0,
				0,
				0,
				0,
				1,
				0,
				0,
				0,
				0,
				1,
				0,
				0,
				0,
				0,
				1
			],
			"mesh" : 3,
			"name" : "node_MeshObject1616180672-PolyPaper10"
		},
		{
			"matrix" : 
			[
				1,
				0,
				0,
				0,
				0,
				1,
				0,
				0,
				0,
				0,
				1,
				0,
				0,
				0,
				0,
				1
			],
			"mesh" : 2,
			"name" : "node_MeshObject930778816-PolyPaper10"
		}
	],
	"scene" : 0,
	"scenes" : 
	[
		{
			"extras" : {},
			"name" : "defaultScene",
			"nodes" : 
			[
				0,
				1,
				3,
				2
			]
		}
	]
}