{
    "accessors": [
        {
            "bufferView": 2,
            "byteOffset": 0,
            "componentType": 5126,
            "count": 24,
            "max": [
                1.0,
                1.0
            ],
            "min": [
                0.0,
                0.0
            ],
            "name": "accessor_buffer_Cube_Cube.001_TEXCOORD_0_0",
            "type": "VEC2"
        },
        {
            "bufferView": 0,
            "byteOffset": 0,
            "componentType": 5126,
            "count": 24,
            "max": [
                0.07183801382780075,
                0.07183802127838135,
                0.07183802127838135
            ],
            "min": [
                -0.07183801382780075,
                -0.07183802127838135,
                -0.07183802127838135
            ],
            "name": "accessor_buffer_Cube_Cube.001_POSITION_0",
            "type": "VEC3"
        },
        {
            "bufferView": 3,
            "byteOffset": 0,
            "componentType": 5123,
            "count": 36,
            "max": [
                23
            ],
            "min": [
                0
            ],
            "name": "accessor_buffer_Cube_Cube.001_0",
            "type": "SCALAR"
        },
        {
            "bufferView": 1,
            "byteOffset": 0,
            "componentType": 5126,
            "count": 24,
            "max": [
                1.0,
                0.9999999403953552,
                1.0
            ],
            "min": [
                -1.0,
                -0.9999999403953552,
                -1.0
            ],
            "name": "accessor_buffer_Cube_Cube.001_NORMAL_0",
            "type": "VEC3"
        }
    ],
    "asset": {
        "copyright": "",
        "generator": "blendergltf v1.2.0",
        "version": "2.0"
    },
    "bufferViews": [
        {
            "buffer": 0,
            "byteLength": 288,
            "byteOffset": 0,
            "byteStride": 12,
            "name": "bufferView_buffer_Cube_Cube.001_POSITION_0",
            "target": 34962
        },
        {
            "buffer": 0,
            "byteLength": 288,
            "byteOffset": 288,
            "byteStride": 12,
            "name": "bufferView_buffer_Cube_Cube.001_NORMAL_0",
            "target": 34962
        },
        {
            "buffer": 0,
            "byteLength": 192,
            "byteOffset": 576,
            "byteStride": 8,
            "name": "bufferView_buffer_Cube_Cube.001_TEXCOORD_0_0",
            "target": 34962
        },
        {
            "buffer": 0,
            "byteLength": 76,
            "byteOffset": 768,
            "name": "bufferView_buffer_Cube_Cube.001_0",
            "target": 34963
        }
    ],
    "buffers": [
        {
            "byteLength": 844,
            "name": "buffer_cube",
            "uri": "buffer_cube.bin"
        }
    ],
    "images": [
        {
            "name": "crate_1.jpg",
            "uri": "crate_1.jpg"
        }
    ],
    "materials": [
        {
            "alphaMode": "BLEND",
            "doubleSided": false,
            "emissiveFactor": [
                0.0,
                0.0,
                0.0
            ],
            "name": "Material.001",
            "pbrMetallicRoughness": {
                "baseColorFactor": [
                    0.6399999856948853,
                    0.6399999856948853,
                    0.6399999856948853,
                    1.0
                ],
                "baseColorTexture": {
                    "index": 0,
                    "texCoord": 0
                },
                "metallicFactor": 0.0,
                "roughnessFactor": 1.0
            }
        }
    ],
    "meshes": [
        {
            "name": "Cube_Cube.001",
            "primitives": [
                {
                    "attributes": {
                        "NORMAL": 3,
                        "POSITION": 1,
                        "TEXCOORD_0": 0
                    },
                    "indices": 2,
                    "material": 0,
                    "mode": 4
                }
            ]
        }
    ],
    "nodes": [
        {
            "mesh": 0,
            "name": "Cube_Cube.001",
            "rotation": [
                0.0,
                0.0,
                0.0,
                1.0
            ],
            "scale": [
                1.0,
                1.0,
                1.0
            ],
            "translation": [
                0.0,
                0.0,
                0.0
            ]
        }
    ],
    "samplers": [
        {
            "magFilter": 9729,
            "minFilter": 9987,
            "name": "Kd",
            "wrapS": 10497,
            "wrapT": 10497
        }
    ],
    "scene": 0,
    "scenes": [
        {
            "extras": {
                "background_color": [
                    0.05087608844041824,
                    0.05087608844041824,
                    0.05087608844041824
                ],
                "frames_per_second": 24
            },
            "name": "Scene",
            "nodes": [
                0
            ]
        }
    ],
    "textures": [
        {
            "name": "Kd",
            "sampler": 0,
            "source": 0
        }
    ]
}
