{
    "accessors": [
        {
            "bufferView": 0,
            "byteOffset": 0,
            "componentType": 5126,
            "count": 3341,
            "max": [
                0.27301570773124695,
                0.6893615126609802,
                0.38948893547058105
            ],
            "min": [
                -0.30260419845581055,
                0.00016610331658739597,
                -0.2983373999595642
            ],
            "name": "accessor_buffer_ChamferBox001_POSITION_0",
            "type": "VEC3"
        },
        {
            "bufferView": 2,
            "byteOffset": 0,
            "componentType": 5126,
            "count": 3341,
            "max": [
                1.100000023841858,
                1.0
            ],
            "min": [
                0.0,
                -1.0
            ],
            "name": "accessor_buffer_ChamferBox001_TEXCOORD_0_0",
            "type": "VEC2"
        },
        {
            "bufferView": 3,
            "byteOffset": 0,
            "componentType": 5123,
            "count": 2496,
            "max": [
                3314
            ],
            "min": [
                3
            ],
            "name": "accessor_buffer_ChamferBox001_0",
            "type": "SCALAR"
        },
        {
            "bufferView": 1,
            "byteOffset": 0,
            "componentType": 5126,
            "count": 3341,
            "max": [
                1.0,
                1.0,
                0.9999288320541382
            ],
            "min": [
                -1.0,
                -1.0,
                -0.9999114274978638
            ],
            "name": "accessor_buffer_ChamferBox001_NORMAL_0",
            "type": "VEC3"
        },
        {
            "bufferView": 5,
            "byteOffset": 0,
            "componentType": 5123,
            "count": 13680,
            "max": [
                3340
            ],
            "min": [
                0
            ],
            "name": "accessor_buffer_ChamferBox001_2",
            "type": "SCALAR"
        },
        {
            "bufferView": 4,
            "byteOffset": 0,
            "componentType": 5123,
            "count": 72,
            "max": [
                3239
            ],
            "min": [
                61
            ],
            "name": "accessor_buffer_ChamferBox001_1",
            "type": "SCALAR"
        }
    ],
    "asset": {
        "copyright": "",
        "generator": "blendergltf v1.2.0",
        "version": "2.0"
    },
    "bufferViews": [
        {
            "buffer": 0,
            "byteLength": 40092,
            "byteOffset": 0,
            "byteStride": 12,
            "name": "bufferView_buffer_ChamferBox001_POSITION_0",
            "target": 34962
        },
        {
            "buffer": 0,
            "byteLength": 40092,
            "byteOffset": 40092,
            "byteStride": 12,
            "name": "bufferView_buffer_ChamferBox001_NORMAL_0",
            "target": 34962
        },
        {
            "buffer": 0,
            "byteLength": 26728,
            "byteOffset": 80184,
            "byteStride": 8,
            "name": "bufferView_buffer_ChamferBox001_TEXCOORD_0_0",
            "target": 34962
        },
        {
            "buffer": 0,
            "byteLength": 4996,
            "byteOffset": 106912,
            "name": "bufferView_buffer_ChamferBox001_0",
            "target": 34963
        },
        {
            "buffer": 0,
            "byteLength": 148,
            "byteOffset": 111908,
            "name": "bufferView_buffer_ChamferBox001_1",
            "target": 34963
        },
        {
            "buffer": 0,
            "byteLength": 27364,
            "byteOffset": 112056,
            "name": "bufferView_buffer_ChamferBox001_2",
            "target": 34963
        }
    ],
    "buffers": [
        {
            "byteLength": 139420,
            "name": "buffer_diswasher",
            "uri": "buffer_diswasher.bin"
        }
    ],
    "materials": [
        {
            "alphaMode": "BLEND",
            "doubleSided": false,
            "emissiveFactor": [
                0.0,
                0.0,
                0.0
            ],
            "name": "02___Default",
            "pbrMetallicRoughness": {
                "baseColorFactor": [
                    0.20389999449253082,
                    0.20389999449253082,
                    0.20389999449253082,
                    1.0
                ],
                "metallicFactor": 0.0,
                "roughnessFactor": 1.0
            }
        },
        {
            "alphaMode": "BLEND",
            "doubleSided": false,
            "emissiveFactor": [
                0.0,
                0.0,
                0.0
            ],
            "name": "03___Default",
            "pbrMetallicRoughness": {
                "baseColorFactor": [
                    0.007799999788403511,
                    0.007799999788403511,
                    0.007799999788403511,
                    1.0
                ],
                "metallicFactor": 0.0,
                "roughnessFactor": 1.0
            }
        },
        {
            "alphaMode": "BLEND",
            "doubleSided": false,
            "emissiveFactor": [
                0.0,
                0.0,
                0.0
            ],
            "name": "04___Default",
            "pbrMetallicRoughness": {
                "baseColorFactor": [
                    1.0,
                    1.0,
                    1.0,
                    1.0
                ],
                "metallicFactor": 0.0,
                "roughnessFactor": 1.0
            }
        }
    ],
    "meshes": [
        {
            "name": "ChamferBox001",
            "primitives": [
                {
                    "attributes": {
                        "NORMAL": 3,
                        "POSITION": 0,
                        "TEXCOORD_0": 1
                    },
                    "indices": 2,
                    "material": 0,
                    "mode": 4
                },
                {
                    "attributes": {
                        "NORMAL": 3,
                        "POSITION": 0,
                        "TEXCOORD_0": 1
                    },
                    "indices": 5,
                    "material": 2,
                    "mode": 4
                },
                {
                    "attributes": {
                        "NORMAL": 3,
                        "POSITION": 0,
                        "TEXCOORD_0": 1
                    },
                    "indices": 4,
                    "material": 1,
                    "mode": 4
                }
            ]
        }
    ],
    "nodes": [
        {
            "mesh": 0,
            "name": "ChamferBox001",
            "rotation": [
                0.0,
                0.0,
                0.0,
                1.0
            ],
            "scale": [
                1.0,
                1.0,
                1.0
            ],
            "translation": [
                0.0,
                0.0,
                0.0
            ]
        }
    ],
    "scene": 0,
    "scenes": [
        {
            "extras": {
                "background_color": [
                    0.05087608844041824,
                    0.05087608844041824,
                    0.05087608844041824
                ],
                "frames_per_second": 24
            },
            "name": "Scene",
            "nodes": [
                0
            ]
        }
    ]
}
