{
    "accessors": [
        {
            "bufferView": 0,
            "byteOffset": 0,
            "componentType": 5126,
            "count": 7212,
            "max": [
                0.20045047998428345,
                0.9841451644897461,
                0.03142865374684334
            ],
            "min": [
                -0.19524940848350525,
                0.011951476335525513,
                -0.29288291931152344
            ],
            "name": "accessor_buffer_model_POSITION_0",
            "type": "VEC3"
        },
        {
            "bufferView": 1,
            "byteOffset": 0,
            "componentType": 5126,
            "count": 7212,
            "max": [
                0.999950110912323,
                0.9999762773513794,
                0.9996035695075989
            ],
            "min": [
                -0.9998827576637268,
                -0.9999762773513794,
                -0.999853253364563
            ],
            "name": "accessor_buffer_model_NORMAL_0",
            "type": "VEC3"
        },
        {
            "bufferView": 3,
            "byteOffset": 0,
            "componentType": 5123,
            "count": 9432,
            "max": [
                7210
            ],
            "min": [
                0
            ],
            "name": "accessor_buffer_model_1",
            "type": "SCALAR"
        },
        {
            "bufferView": 2,
            "byteOffset": 0,
            "componentType": 5123,
            "count": 1434,
            "max": [
                7211
            ],
            "min": [
                8
            ],
            "name": "accessor_buffer_model_0",
            "type": "SCALAR"
        }
    ],
    "asset": {
        "copyright": "",
        "generator": "blendergltf v1.2.0",
        "version": "2.0"
    },
    "bufferViews": [
        {
            "buffer": 0,
            "byteLength": 86544,
            "byteOffset": 0,
            "byteStride": 12,
            "name": "bufferView_buffer_model_POSITION_0",
            "target": 34962
        },
        {
            "buffer": 0,
            "byteLength": 86544,
            "byteOffset": 86544,
            "byteStride": 12,
            "name": "bufferView_buffer_model_NORMAL_0",
            "target": 34962
        },
        {
            "buffer": 0,
            "byteLength": 2872,
            "byteOffset": 173088,
            "name": "bufferView_buffer_model_0",
            "target": 34963
        },
        {
            "buffer": 0,
            "byteLength": 18868,
            "byteOffset": 175960,
            "name": "bufferView_buffer_model_1",
            "target": 34963
        }
    ],
    "buffers": [
        {
            "byteLength": 194828,
            "name": "buffer_luggage_bag",
            "uri": "buffer_luggage_bag.bin"
        }
    ],
    "materials": [
        {
            "alphaMode": "OPAQUE",
            "doubleSided": false,
            "emissiveFactor": [
                0.0,
                0.0,
                0.0
            ],
            "name": "mat18",
            "pbrMetallicRoughness": {
                "baseColorFactor": [
                    1.0,
                    0.800000011920929,
                    0.5299999713897705,
                    1.0
                ],
                "metallicFactor": 0.0,
                "roughnessFactor": 1.0
            }
        },
        {
            "alphaMode": "OPAQUE",
            "doubleSided": false,
            "emissiveFactor": [
                0.0,
                0.0,
                0.0
            ],
            "name": "mat23",
            "pbrMetallicRoughness": {
                "baseColorFactor": [
                    0.10000000149011612,
                    0.10000000149011612,
                    0.10000000149011612,
                    1.0
                ],
                "metallicFactor": 0.0,
                "roughnessFactor": 1.0
            }
        }
    ],
    "meshes": [
        {
            "name": "model",
            "primitives": [
                {
                    "attributes": {
                        "NORMAL": 1,
                        "POSITION": 0
                    },
                    "indices": 3,
                    "material": 1,
                    "mode": 4
                },
                {
                    "attributes": {
                        "NORMAL": 1,
                        "POSITION": 0
                    },
                    "indices": 2,
                    "material": 0,
                    "mode": 4
                }
            ]
        }
    ],
    "nodes": [
        {
            "mesh": 0,
            "name": "model",
            "rotation": [
                0.0,
                0.0,
                0.0,
                1.0
            ],
            "scale": [
                1.0,
                1.0,
                1.0
            ],
            "translation": [
                0.0,
                0.0,
                0.1300382912158966
            ]
        }
    ],
    "scene": 0,
    "scenes": [
        {
            "extras": {
                "background_color": [
                    0.05087608844041824,
                    0.05087608844041824,
                    0.05087608844041824
                ],
                "frames_per_second": 24
            },
            "name": "Scene",
            "nodes": [
                0
            ]
        }
    ]
}
