{
    "accessors": [
        {
            "bufferView": 0,
            "byteOffset": 0,
            "componentType": 5126,
            "count": 2897,
            "max": [
                0.21630069613456726,
                1.0444858074188232,
                0.33279937505722046
            ],
            "min": [
                -0.19907578825950623,
                -0.03574568033218384,
                -0.1598595380783081
            ],
            "name": "accessor_buffer_model_POSITION_0",
            "type": "VEC3"
        },
        {
            "bufferView": 1,
            "byteOffset": 0,
            "componentType": 5126,
            "count": 2897,
            "max": [
                0.999975860118866,
                0.9995736479759216,
                0.999947190284729
            ],
            "min": [
                -0.9999758005142212,
                -0.9995736479759216,
                -0.999947190284729
            ],
            "name": "accessor_buffer_model_NORMAL_0",
            "type": "VEC3"
        },
        {
            "bufferView": 2,
            "byteOffset": 0,
            "componentType": 5123,
            "count": 4152,
            "max": [
                2896
            ],
            "min": [
                0
            ],
            "name": "accessor_buffer_model_0",
            "type": "SCALAR"
        }
    ],
    "asset": {
        "copyright": "",
        "generator": "blendergltf v1.2.0",
        "version": "2.0"
    },
    "bufferViews": [
        {
            "buffer": 0,
            "byteLength": 34764,
            "byteOffset": 0,
            "byteStride": 12,
            "name": "bufferView_buffer_model_POSITION_0",
            "target": 34962
        },
        {
            "buffer": 0,
            "byteLength": 34764,
            "byteOffset": 34764,
            "byteStride": 12,
            "name": "bufferView_buffer_model_NORMAL_0",
            "target": 34962
        },
        {
            "buffer": 0,
            "byteLength": 8308,
            "byteOffset": 69528,
            "name": "bufferView_buffer_model_0",
            "target": 34963
        }
    ],
    "buffers": [
        {
            "byteLength": 77836,
            "name": "buffer_chair",
            "uri": "buffer_chair.bin"
        }
    ],
    "materials": [
        {
            "alphaMode": "OPAQUE",
            "doubleSided": false,
            "emissiveFactor": [
                0.0,
                0.0,
                0.0
            ],
            "name": "mat15",
            "pbrMetallicRoughness": {
                "baseColorFactor": [
                    0.6480000019073486,
                    0.6800000071525574,
                    0.6880000233650208,
                    1.0
                ],
                "metallicFactor": 0.0,
                "roughnessFactor": 1.0
            }
        },
        {
            "alphaMode": "OPAQUE",
            "doubleSided": false,
            "emissiveFactor": [
                0.0,
                0.0,
                0.0
            ],
            "name": "mat17",
            "pbrMetallicRoughness": {
                "baseColorFactor": [
                    0.2160000056028366,
                    0.2800000011920929,
                    0.31200000643730164,
                    1.0
                ],
                "metallicFactor": 0.0,
                "roughnessFactor": 1.0
            }
        },
        {
            "alphaMode": "OPAQUE",
            "doubleSided": false,
            "emissiveFactor": [
                0.0,
                0.0,
                0.0
            ],
            "name": "mat20",
            "pbrMetallicRoughness": {
                "baseColorFactor": [
                    0.3760000169277191,
                    0.2640000283718109,
                    0.2240000069141388,
                    1.0
                ],
                "metallicFactor": 0.0,
                "roughnessFactor": 1.0
            }
        },
        {
            "alphaMode": "OPAQUE",
            "doubleSided": false,
            "emissiveFactor": [
                0.0,
                0.0,
                0.0
            ],
            "name": "mat21",
            "pbrMetallicRoughness": {
                "baseColorFactor": [
                    0.800000011920929,
                    0.800000011920929,
                    0.800000011920929,
                    1.0
                ],
                "metallicFactor": 0.0,
                "roughnessFactor": 1.0
            }
        },
        {
            "alphaMode": "OPAQUE",
            "doubleSided": false,
            "emissiveFactor": [
                0.0,
                0.0,
                0.0
            ],
            "name": "mat22",
            "pbrMetallicRoughness": {
                "baseColorFactor": [
                    0.4960000216960907,
                    0.4960000216960907,
                    0.4960000216960907,
                    1.0
                ],
                "metallicFactor": 0.0,
                "roughnessFactor": 1.0
            }
        },
        {
            "alphaMode": "OPAQUE",
            "doubleSided": false,
            "emissiveFactor": [
                0.0,
                0.0,
                0.0
            ],
            "name": "mat23",
            "pbrMetallicRoughness": {
                "baseColorFactor": [
                    0.08000000566244125,
                    0.08000000566244125,
                    0.08000000566244125,
                    1.0
                ],
                "metallicFactor": 0.0,
                "roughnessFactor": 1.0
            }
        },
        {
            "alphaMode": "OPAQUE",
            "doubleSided": false,
            "emissiveFactor": [
                0.0,
                0.0,
                0.0
            ],
            "name": "mat3",
            "pbrMetallicRoughness": {
                "baseColorFactor": [
                    0.4000000059604645,
                    0.6960000395774841,
                    0.7360000014305115,
                    1.0
                ],
                "metallicFactor": 0.0,
                "roughnessFactor": 1.0
            }
        },
        {
            "alphaMode": "OPAQUE",
            "doubleSided": false,
            "emissiveFactor": [
                0.0,
                0.0,
                0.0
            ],
            "name": "mat8",
            "pbrMetallicRoughness": {
                "baseColorFactor": [
                    0.7680000066757202,
                    0.20799998939037323,
                    0.1679999977350235,
                    1.0
                ],
                "metallicFactor": 0.0,
                "roughnessFactor": 1.0
            }
        }
    ],
    "meshes": [
        {
            "name": "model",
            "primitives": [
                {
                    "attributes": {
                        "NORMAL": 1,
                        "POSITION": 0
                    },
                    "indices": 2,
                    "material": 5,
                    "mode": 4
                }
            ]
        }
    ],
    "nodes": [
        {
            "mesh": 0,
            "name": "model",
            "rotation": [
                0.0,
                0.0,
                0.0,
                1.0
            ],
            "scale": [
                1.0,
                1.0,
                1.0
            ],
            "translation": [
                0.0,
                0.0,
                0.0
            ]
        }
    ],
    "scene": 0,
    "scenes": [
        {
            "extras": {
                "background_color": [
                    0.05087608844041824,
                    0.05087608844041824,
                    0.05087608844041824
                ],
                "frames_per_second": 24
            },
            "name": "Scene",
            "nodes": [
                0
            ]
        }
    ]
}
