{
    "accessors": [
        {
            "bufferView": 7,
            "byteOffset": 0,
            "componentType": 5123,
            "count": 4992,
            "max": [
                14349
            ],
            "min": [
                1
            ],
            "name": "accessor_buffer_buffer-0-mesh-0_4",
            "type": "SCALAR"
        },
        {
            "bufferView": 0,
            "byteOffset": 0,
            "componentType": 5126,
            "count": 14352,
            "max": [
                0.12915408611297607,
                0.10368768125772476,
                0.5567376017570496
            ],
            "min": [
                -0.1283951997756958,
                -0.09582143276929855,
                -0.012125279754400253
            ],
            "name": "accessor_buffer_buffer-0-mesh-0_POSITION_0",
            "type": "VEC3"
        },
        {
            "bufferView": 4,
            "byteOffset": 0,
            "componentType": 5123,
            "count": 12,
            "max": [
                14247
            ],
            "min": [
                828
            ],
            "name": "accessor_buffer_buffer-0-mesh-0_1",
            "type": "SCALAR"
        },
        {
            "bufferView": 5,
            "byteOffset": 0,
            "componentType": 5123,
            "count": 156,
            "max": [
                14183
            ],
            "min": [
                69
            ],
            "name": "accessor_buffer_buffer-0-mesh-0_2",
            "type": "SCALAR"
        },
        {
            "bufferView": 8,
            "byteOffset": 0,
            "componentType": 5123,
            "count": 5088,
            "max": [
                14350
            ],
            "min": [
                0
            ],
            "name": "accessor_buffer_buffer-0-mesh-0_5",
            "type": "SCALAR"
        },
        {
            "bufferView": 1,
            "byteOffset": 0,
            "componentType": 5126,
            "count": 14352,
            "max": [
                0.9965419769287109,
                0.9998248219490051,
                0.9997080564498901
            ],
            "min": [
                -0.9968147277832031,
                -0.9992149472236633,
                -0.9995800852775574
            ],
            "name": "accessor_buffer_buffer-0-mesh-0_NORMAL_0",
            "type": "VEC3"
        },
        {
            "bufferView": 2,
            "byteOffset": 0,
            "componentType": 5126,
            "count": 14352,
            "max": [
                13.706600189208984,
                22.663400650024414
            ],
            "min": [
                -17.291900634765625,
                -15.123001098632812
            ],
            "name": "accessor_buffer_buffer-0-mesh-0_TEXCOORD_0_0",
            "type": "VEC2"
        },
        {
            "bufferView": 3,
            "byteOffset": 0,
            "componentType": 5123,
            "count": 4164,
            "max": [
                14351
            ],
            "min": [
                6
            ],
            "name": "accessor_buffer_buffer-0-mesh-0_0",
            "type": "SCALAR"
        },
        {
            "bufferView": 6,
            "byteOffset": 0,
            "componentType": 5123,
            "count": 366,
            "max": [
                14295
            ],
            "min": [
                107
            ],
            "name": "accessor_buffer_buffer-0-mesh-0_3",
            "type": "SCALAR"
        }
    ],
    "asset": {
        "copyright": "",
        "generator": "blendergltf v1.2.0",
        "version": "2.0"
    },
    "bufferViews": [
        {
            "buffer": 0,
            "byteLength": 172224,
            "byteOffset": 0,
            "byteStride": 12,
            "name": "bufferView_buffer_buffer-0-mesh-0_POSITION_0",
            "target": 34962
        },
        {
            "buffer": 0,
            "byteLength": 172224,
            "byteOffset": 172224,
            "byteStride": 12,
            "name": "bufferView_buffer_buffer-0-mesh-0_NORMAL_0",
            "target": 34962
        },
        {
            "buffer": 0,
            "byteLength": 114816,
            "byteOffset": 344448,
            "byteStride": 8,
            "name": "bufferView_buffer_buffer-0-mesh-0_TEXCOORD_0_0",
            "target": 34962
        },
        {
            "buffer": 0,
            "byteLength": 8332,
            "byteOffset": 459264,
            "name": "bufferView_buffer_buffer-0-mesh-0_0",
            "target": 34963
        },
        {
            "buffer": 0,
            "byteLength": 28,
            "byteOffset": 467596,
            "name": "bufferView_buffer_buffer-0-mesh-0_1",
            "target": 34963
        },
        {
            "buffer": 0,
            "byteLength": 316,
            "byteOffset": 467624,
            "name": "bufferView_buffer_buffer-0-mesh-0_2",
            "target": 34963
        },
        {
            "buffer": 0,
            "byteLength": 736,
            "byteOffset": 467940,
            "name": "bufferView_buffer_buffer-0-mesh-0_3",
            "target": 34963
        },
        {
            "buffer": 0,
            "byteLength": 9988,
            "byteOffset": 468676,
            "name": "bufferView_buffer_buffer-0-mesh-0_4",
            "target": 34963
        },
        {
            "buffer": 0,
            "byteLength": 10180,
            "byteOffset": 478664,
            "name": "bufferView_buffer_buffer-0-mesh-0_5",
            "target": 34963
        }
    ],
    "buffers": [
        {
            "byteLength": 488844,
            "name": "buffer_orchid",
            "uri": "buffer_orchid.bin"
        }
    ],
    "materials": [
        {
            "alphaMode": "OPAQUE",
            "doubleSided": false,
            "emissiveFactor": [
                0.0,
                0.0,
                0.0
            ],
            "name": "02___Default",
            "pbrMetallicRoughness": {
                "baseColorFactor": [
                    0.34534403681755066,
                    0.23490560054779053,
                    0.31723520159721375,
                    1.0
                ],
                "metallicFactor": 0.0,
                "roughnessFactor": 1.0
            }
        },
        {
            "alphaMode": "OPAQUE",
            "doubleSided": false,
            "emissiveFactor": [
                0.0,
                0.0,
                0.0
            ],
            "name": "03___Default",
            "pbrMetallicRoughness": {
                "baseColorFactor": [
                    0.16061440110206604,
                    0.028108803555369377,
                    0.03614720329642296,
                    1.0
                ],
                "metallicFactor": 0.0,
                "roughnessFactor": 1.0
            }
        },
        {
            "alphaMode": "OPAQUE",
            "doubleSided": false,
            "emissiveFactor": [
                0.0,
                0.0,
                0.0
            ],
            "name": "04___Default",
            "pbrMetallicRoughness": {
                "baseColorFactor": [
                    0.01408000010997057,
                    0.05821440368890762,
                    0.008038400672376156,
                    1.0
                ],
                "metallicFactor": 0.0,
                "roughnessFactor": 1.0
            }
        },
        {
            "alphaMode": "OPAQUE",
            "doubleSided": false,
            "emissiveFactor": [
                0.0,
                0.0,
                0.0
            ],
            "name": "05___Default",
            "pbrMetallicRoughness": {
                "baseColorFactor": [
                    0.010035200975835323,
                    0.03210240229964256,
                    0.0,
                    1.0
                ],
                "metallicFactor": 0.0,
                "roughnessFactor": 1.0
            }
        },
        {
            "alphaMode": "OPAQUE",
            "doubleSided": false,
            "emissiveFactor": [
                0.0,
                0.0,
                0.0
            ],
            "name": "07___Default",
            "pbrMetallicRoughness": {
                "baseColorFactor": [
                    0.07828480005264282,
                    0.01607680134475231,
                    0.0,
                    1.0
                ],
                "metallicFactor": 0.0,
                "roughnessFactor": 1.0
            }
        },
        {
            "alphaMode": "OPAQUE",
            "doubleSided": false,
            "emissiveFactor": [
                0.0,
                0.0,
                0.0
            ],
            "name": "Material__289",
            "pbrMetallicRoughness": {
                "baseColorFactor": [
                    0.23698857426643372,
                    0.037711016833782196,
                    0.0,
                    1.0
                ],
                "metallicFactor": 0.0,
                "roughnessFactor": 1.0
            }
        }
    ],
    "meshes": [
        {
            "name": "buffer-0-mesh-0",
            "primitives": [
                {
                    "attributes": {
                        "NORMAL": 5,
                        "POSITION": 1,
                        "TEXCOORD_0": 6
                    },
                    "indices": 7,
                    "material": 1,
                    "mode": 4
                },
                {
                    "attributes": {
                        "NORMAL": 5,
                        "POSITION": 1,
                        "TEXCOORD_0": 6
                    },
                    "indices": 2,
                    "material": 4,
                    "mode": 4
                },
                {
                    "attributes": {
                        "NORMAL": 5,
                        "POSITION": 1,
                        "TEXCOORD_0": 6
                    },
                    "indices": 3,
                    "material": 5,
                    "mode": 4
                },
                {
                    "attributes": {
                        "NORMAL": 5,
                        "POSITION": 1,
                        "TEXCOORD_0": 6
                    },
                    "indices": 8,
                    "material": 2,
                    "mode": 4
                },
                {
                    "attributes": {
                        "NORMAL": 5,
                        "POSITION": 1,
                        "TEXCOORD_0": 6
                    },
                    "indices": 0,
                    "material": 0,
                    "mode": 4
                },
                {
                    "attributes": {
                        "NORMAL": 5,
                        "POSITION": 1,
                        "TEXCOORD_0": 6
                    },
                    "indices": 4,
                    "material": 3,
                    "mode": 4
                }
            ]
        }
    ],
    "nodes": [
        {
            "mesh": 0,
            "name": "node-0",
            "rotation": [
                -0.7071068286895752,
                0.0,
                0.0,
                0.7071067094802856
            ],
            "scale": [
                1.0,
                1.0,
                1.0
            ],
            "translation": [
                0.0,
                0.0,
                0.0
            ]
        }
    ],
    "scene": 0,
    "scenes": [
        {
            "extras": {
                "background_color": [
                    0.05087608844041824,
                    0.05087608844041824,
                    0.05087608844041824
                ],
                "frames_per_second": 24
            },
            "name": "Scene",
            "nodes": [
                0
            ]
        }
    ]
}
