{
    "accessors": [
        {
            "bufferView": 1,
            "byteOffset": 0,
            "componentType": 5126,
            "count": 204,
            "max": [
                1.0,
                0.999999463558197,
                0.999999463558197
            ],
            "min": [
                -0.9999999403953552,
                -0.999999463558197,
                -0.9999995231628418
            ],
            "name": "accessor_buffer_pCube27-Mesh_NORMAL_0",
            "type": "VEC3"
        },
        {
            "bufferView": 3,
            "byteOffset": 0,
            "componentType": 5123,
            "count": 240,
            "max": [
                203
            ],
            "min": [
                0
            ],
            "name": "accessor_buffer_pCube27-Mesh_0",
            "type": "SCALAR"
        },
        {
            "bufferView": 2,
            "byteOffset": 0,
            "componentType": 5126,
            "count": 204,
            "max": [
                0.861965000629425,
                1.0
            ],
            "min": [
                0.13803499937057495,
                0.0
            ],
            "name": "accessor_buffer_pCube27-Mesh_TEXCOORD_0_0",
            "type": "VEC2"
        },
        {
            "bufferView": 0,
            "byteOffset": 0,
            "componentType": 5126,
            "count": 204,
            "max": [
                0.7297520041465759,
                0.37122899293899536,
                0.6185269951820374
            ],
            "min": [
                -0.7598059773445129,
                -0.368353009223938,
                -0.0007379999733529985
            ],
            "name": "accessor_buffer_pCube27-Mesh_POSITION_0",
            "type": "VEC3"
        }
    ],
    "asset": {
        "copyright": "",
        "generator": "blendergltf v1.2.0",
        "version": "2.0"
    },
    "bufferViews": [
        {
            "buffer": 0,
            "byteLength": 2448,
            "byteOffset": 0,
            "byteStride": 12,
            "name": "bufferView_buffer_pCube27-Mesh_POSITION_0",
            "target": 34962
        },
        {
            "buffer": 0,
            "byteLength": 2448,
            "byteOffset": 2448,
            "byteStride": 12,
            "name": "bufferView_buffer_pCube27-Mesh_NORMAL_0",
            "target": 34962
        },
        {
            "buffer": 0,
            "byteLength": 1632,
            "byteOffset": 4896,
            "byteStride": 8,
            "name": "bufferView_buffer_pCube27-Mesh_TEXCOORD_0_0",
            "target": 34962
        },
        {
            "buffer": 0,
            "byteLength": 484,
            "byteOffset": 6528,
            "name": "bufferView_buffer_pCube27-Mesh_0",
            "target": 34963
        }
    ],
    "buffers": [
        {
            "byteLength": 7012,
            "name": "buffer_table",
            "uri": "buffer_table.bin"
        }
    ],
    "materials": [
        {
            "alphaMode": "OPAQUE",
            "doubleSided": false,
            "emissiveFactor": [
                0.0,
                0.0,
                0.0
            ],
            "name": "blinn10SG",
            "pbrMetallicRoughness": {
                "baseColorFactor": [
                    0.15199999511241913,
                    0.07200000435113907,
                    0.04800000041723251,
                    1.0
                ],
                "metallicFactor": 0.0,
                "roughnessFactor": 1.0
            }
        }
    ],
    "meshes": [
        {
            "name": "pCube27-Mesh",
            "primitives": [
                {
                    "attributes": {
                        "NORMAL": 0,
                        "POSITION": 3,
                        "TEXCOORD_0": 2
                    },
                    "indices": 1,
                    "material": 0,
                    "mode": 4
                }
            ]
        }
    ],
    "nodes": [
        {
            "mesh": 0,
            "name": "pCube27",
            "rotation": [
                -0.7071068286895752,
                0.0,
                0.0,
                0.7071067094802856
            ],
            "scale": [
                1.0,
                1.0,
                1.0
            ],
            "translation": [
                0.0,
                0.0,
                0.0
            ]
        }
    ],
    "scene": 0,
    "scenes": [
        {
            "extras": {
                "background_color": [
                    0.05087608844041824,
                    0.05087608844041824,
                    0.05087608844041824
                ],
                "frames_per_second": 24
            },
            "name": "Scene",
            "nodes": [
                0
            ]
        }
    ]
}
