{
    "accessors": [
        {
            "bufferView": 0,
            "byteOffset": 0,
            "componentType": 5126,
            "count": 13071,
            "max": [
                1.8658329248428345,
                2.0279488563537598,
                0.6988309621810913
            ],
            "min": [
                -0.08596283942461014,
                -0.014290297403931618,
                -0.6988309621810913
            ],
            "name": "accessor_buffer_CUPIC_SWING_POSITION_0",
            "type": "VEC3"
        },
        {
            "bufferView": 2,
            "byteOffset": 0,
            "componentType": 5126,
            "count": 13071,
            "max": [
                0.9923700094223022,
                0.9923800001852214
            ],
            "min": [
                0.0076299998909235,
                0.007619976997375488
            ],
            "name": "accessor_buffer_CUPIC_SWING_TEXCOORD_0_0",
            "type": "VEC2"
        },
        {
            "bufferView": 1,
            "byteOffset": 0,
            "componentType": 5126,
            "count": 13071,
            "max": [
                1.0,
                1.0,
                1.0
            ],
            "min": [
                -1.0,
                -1.0,
                -1.0
            ],
            "name": "accessor_buffer_CUPIC_SWING_NORMAL_0",
            "type": "VEC3"
        },
        {
            "bufferView": 3,
            "byteOffset": 0,
            "componentType": 5123,
            "count": 16188,
            "max": [
                13070
            ],
            "min": [
                0
            ],
            "name": "accessor_buffer_CUPIC_SWING_0",
            "type": "SCALAR"
        }
    ],
    "asset": {
        "copyright": "",
        "generator": "blendergltf v1.2.0",
        "version": "2.0"
    },
    "bufferViews": [
        {
            "buffer": 0,
            "byteLength": 156852,
            "byteOffset": 0,
            "byteStride": 12,
            "name": "bufferView_buffer_CUPIC_SWING_POSITION_0",
            "target": 34962
        },
        {
            "buffer": 0,
            "byteLength": 156852,
            "byteOffset": 156852,
            "byteStride": 12,
            "name": "bufferView_buffer_CUPIC_SWING_NORMAL_0",
            "target": 34962
        },
        {
            "buffer": 0,
            "byteLength": 104568,
            "byteOffset": 313704,
            "byteStride": 8,
            "name": "bufferView_buffer_CUPIC_SWING_TEXCOORD_0_0",
            "target": 34962
        },
        {
            "buffer": 0,
            "byteLength": 32380,
            "byteOffset": 418272,
            "name": "bufferView_buffer_CUPIC_SWING_0",
            "target": 34963
        }
    ],
    "buffers": [
        {
            "byteLength": 450652,
            "name": "buffer_swing",
            "uri": "buffer_swing.bin"
        }
    ],
    "images": [
        {
            "name": "SwingSurface_Color.png",
            "uri": "SwingSurface_Color.png"
        }
    ],
    "materials": [
        {
            "alphaMode": "OPAQUE",
            "doubleSided": false,
            "emissiveFactor": [
                0.0,
                0.0,
                0.0
            ],
            "name": "Cube",
            "pbrMetallicRoughness": {
                "baseColorFactor": [
                    0.800000011920929,
                    0.800000011920929,
                    0.800000011920929,
                    1.0
                ],
                "baseColorTexture": {
                    "index": 0,
                    "texCoord": 0
                },
                "metallicFactor": 0.0,
                "roughnessFactor": 1.0
            }
        }
    ],
    "meshes": [
        {
            "name": "CUPIC_SWING",
            "primitives": [
                {
                    "attributes": {
                        "NORMAL": 2,
                        "POSITION": 0,
                        "TEXCOORD_0": 1
                    },
                    "indices": 3,
                    "material": 0,
                    "mode": 4
                }
            ]
        }
    ],
    "nodes": [
        {
            "mesh": 0,
            "name": "CUPIC_SWING",
            "rotation": [
                0.0,
                0.0,
                0.0,
                1.0
            ],
            "scale": [
                1.0,
                1.0,
                1.0
            ],
            "translation": [
                -0.8871867060661316,
                0.0,
                0.0
            ]
        }
    ],
    "samplers": [
        {
            "magFilter": 9729,
            "minFilter": 9987,
            "name": "Kd",
            "wrapS": 10497,
            "wrapT": 10497
        }
    ],
    "scene": 0,
    "scenes": [
        {
            "extras": {
                "background_color": [
                    0.05087608844041824,
                    0.05087608844041824,
                    0.05087608844041824
                ],
                "frames_per_second": 24
            },
            "name": "Scene",
            "nodes": [
                0
            ]
        }
    ],
    "textures": [
        {
            "name": "Kd",
            "sampler": 0,
            "source": 0
        }
    ]
}
