{
    "asset" : {
        "generator" : "Khronos glTF Blender I/O v1.1.46",
        "version" : "2.0"
    },
    "scene" : 0,
    "scenes" : [
        {
            "name" : "Scene",
            "nodes" : [
                0,
                1,
                2,
                13
            ]
        }
    ],
    "nodes" : [
        {
            "name" : "Light",
            "rotation" : [
                0.16907575726509094,
                0.7558803558349609,
                -0.27217137813568115,
                0.570947527885437
            ],
            "translation" : [
                4.076245307922363,
                5.903861999511719,
                -1.0054539442062378
            ]
        },
        {
            "name" : "Camera",
            "rotation" : [
                0.483536034822464,
                0.33687159419059753,
                -0.20870360732078552,
                0.7804827094078064
            ],
            "translation" : [
                7.358891487121582,
                4.958309173583984,
                6.925790786743164
            ]
        },
        {
            "name" : "Particle View 01",
            "scale" : [
                0.0010000000474974513,
                0.0010000000474974513,
                0.0010000000474974513
            ]
        },
        {
            "mesh" : 0,
            "name" : "pin",
            "rotation" : [
                0,
                -0.709058940410614,
                0,
                0.705149233341217
            ],
            "scale" : [
                0.22978590428829193,
                0.22978588938713074,
                0.05275726318359375
            ],
            "translation" : [
                -222.61961364746094,
                29.14178466796875,
                -5.701419830322266
            ]
        },
        {
            "mesh" : 1,
            "name" : "pin1",
            "scale" : [
                0.22978588938713074,
                0.22978588938713074,
                0.05275725945830345
            ],
            "translation" : [
                -1.4243135452270508,
                29.14178466796875,
                221.72764587402344
            ]
        },
        {
            "mesh" : 2,
            "name" : "pin2",
            "rotation" : [
                0,
                -0.709058940410614,
                0,
                0.705149233341217
            ],
            "scale" : [
                0.22978590428829193,
                0.22978588938713074,
                0.05275726318359375
            ],
            "translation" : [
                221.40135192871094,
                29.14178466796875,
                -5.701419830322266
            ]
        },
        {
            "mesh" : 3,
            "name" : "pin3",
            "scale" : [
                0.22978588938713074,
                0.22978588938713074,
                0.05275725945830345
            ],
            "translation" : [
                -1.424321174621582,
                29.14178466796875,
                -223.92454528808594
            ]
        },
        {
            "mesh" : 4,
            "name" : "table.001",
            "translation" : [
                0.0004881620407104492,
                225.74517822265625,
                0
            ]
        },
        {
            "mesh" : 5,
            "name" : "table1",
            "scale" : [
                0.6783915758132935,
                1.022190809249878,
                0.6783915758132935
            ],
            "translation" : [
                0.0004881620407104492,
                16.05584716796875,
                0
            ]
        },
        {
            "mesh" : 6,
            "name" : "table2",
            "rotation" : [
                0,
                -0.7113901376724243,
                0,
                0.7027972936630249
            ],
            "translation" : [
                -2.731930732727051,
                -245.7451629638672,
                211.0771484375
            ]
        },
        {
            "mesh" : 7,
            "name" : "table3",
            "translation" : [
                210.58595275878906,
                -245.7451629638672,
                -4.840938568115234
            ]
        },
        {
            "mesh" : 8,
            "name" : "table4",
            "rotation" : [
                0,
                -0.7113901376724243,
                0,
                0.7027972936630249
            ],
            "translation" : [
                -2.731938362121582,
                -245.7451629638672,
                -213.91429138183594
            ]
        },
        {
            "mesh" : 9,
            "name" : "table5",
            "translation" : [
                -212.6742706298828,
                -245.7451629638672,
                -4.840930938720703
            ]
        },
        {
            "children" : [
                3,
                4,
                5,
                6,
                7,
                8,
                9,
                10,
                11,
                12
            ],
            "name" : "table",
            "rotation" : [
                0,
                0.18742749094963074,
                0,
                0.9822784662246704
            ],
            "scale" : [
                0.0010000000474974513,
                0.0010000000474974513,
                0.0010000000474974513
            ],
            "translation" : [
                0.0031179431825876236,
                0.24250398576259613,
                0.002791324397549033
            ]
        }
    ],
    "materials" : [
        {
            "doubleSided" : true,
            "emissiveFactor" : [
                0,
                0,
                0
            ],
            "name" : "pin",
            "normalTexture" : {
                "index" : 0,
                "texCoord" : 0
            },
            "pbrMetallicRoughness" : {
                "baseColorTexture" : {
                    "index" : 1,
                    "texCoord" : 0
                },
                "metallicRoughnessTexture" : {
                    "index" : 2,
                    "texCoord" : 0
                },
                "roughnessFactor" : 0.5527864098548889
            }
        },
        {
            "doubleSided" : true,
            "emissiveFactor" : [
                0,
                0,
                0
            ],
            "name" : "wood",
            "normalTexture" : {
                "index" : 3,
                "texCoord" : 0
            },
            "pbrMetallicRoughness" : {
                "baseColorTexture" : {
                    "index" : 4,
                    "texCoord" : 0
                },
                "metallicRoughnessTexture" : {
                    "index" : 5,
                    "texCoord" : 0
                },
                "roughnessFactor" : 0.5527864098548889
            }
        }
    ],
    "meshes" : [
        {
            "name" : "Mesh.007",
            "primitives" : [
                {
                    "attributes" : {
                        "POSITION" : 0,
                        "NORMAL" : 1,
                        "TEXCOORD_0" : 2
                    },
                    "indices" : 3,
                    "material" : 0
                }
            ]
        },
        {
            "name" : "Mesh.006",
            "primitives" : [
                {
                    "attributes" : {
                        "POSITION" : 4,
                        "NORMAL" : 5,
                        "TEXCOORD_0" : 6
                    },
                    "indices" : 7,
                    "material" : 0
                }
            ]
        },
        {
            "name" : "Mesh.002",
            "primitives" : [
                {
                    "attributes" : {
                        "POSITION" : 8,
                        "NORMAL" : 9,
                        "TEXCOORD_0" : 10
                    },
                    "indices" : 7,
                    "material" : 0
                }
            ]
        },
        {
            "name" : "Mesh",
            "primitives" : [
                {
                    "attributes" : {
                        "POSITION" : 11,
                        "NORMAL" : 12,
                        "TEXCOORD_0" : 13
                    },
                    "indices" : 14,
                    "material" : 0
                }
            ]
        },
        {
            "name" : "Mesh.008",
            "primitives" : [
                {
                    "attributes" : {
                        "POSITION" : 15,
                        "NORMAL" : 16,
                        "TEXCOORD_0" : 17
                    },
                    "indices" : 18,
                    "material" : 1
                }
            ]
        },
        {
            "name" : "Mesh.005",
            "primitives" : [
                {
                    "attributes" : {
                        "POSITION" : 19,
                        "NORMAL" : 20,
                        "TEXCOORD_0" : 21
                    },
                    "indices" : 18,
                    "material" : 1
                }
            ]
        },
        {
            "name" : "Mesh.004",
            "primitives" : [
                {
                    "attributes" : {
                        "POSITION" : 22,
                        "NORMAL" : 23,
                        "TEXCOORD_0" : 24
                    },
                    "indices" : 25,
                    "material" : 1
                }
            ]
        },
        {
            "name" : "Mesh.001",
            "primitives" : [
                {
                    "attributes" : {
                        "POSITION" : 26,
                        "NORMAL" : 27,
                        "TEXCOORD_0" : 28
                    },
                    "indices" : 25,
                    "material" : 1
                }
            ]
        },
        {
            "name" : "Mesh.003",
            "primitives" : [
                {
                    "attributes" : {
                        "POSITION" : 29,
                        "NORMAL" : 30,
                        "TEXCOORD_0" : 31
                    },
                    "indices" : 25,
                    "material" : 1
                }
            ]
        },
        {
            "name" : "Mesh.009",
            "primitives" : [
                {
                    "attributes" : {
                        "POSITION" : 32,
                        "NORMAL" : 33,
                        "TEXCOORD_0" : 34
                    },
                    "indices" : 35,
                    "material" : 1
                }
            ]
        }
    ],
    "textures" : [
        {
            "source" : 0
        },
        {
            "source" : 1
        },
        {
            "source" : 2
        },
        {
            "source" : 3
        },
        {
            "source" : 4
        },
        {
            "source" : 5
        }
    ],
    "images" : [
        {
            "mimeType" : "image/jpeg",
            "name" : "pin_bw",
            "uri" : "pin_bw.jpg"
        },
        {
            "mimeType" : "image/jpeg",
            "name" : "pin",
            "uri" : "pin.jpg"
        },
        {
            "mimeType" : "image/jpeg",
            "name" : "pin_bw",
            "uri" : "pin_bw-1.jpg"
        },
        {
            "mimeType" : "image/jpeg",
            "name" : "wood1",
            "uri" : "wood1.jpg"
        },
        {
            "mimeType" : "image/jpeg",
            "name" : "wood_med1",
            "uri" : "wood_med1.jpg"
        },
        {
            "mimeType" : "image/jpeg",
            "name" : "wood1",
            "uri" : "wood1-1.jpg"
        }
    ],
    "accessors" : [
        {
            "bufferView" : 0,
            "componentType" : 5126,
            "count" : 598,
            "max" : [
                24.630306243896484,
                24.630306243896484,
                24.630306243896484
            ],
            "min" : [
                -24.630306243896484,
                -24.630306243896484,
                -24.630306243896484
            ],
            "type" : "VEC3"
        },
        {
            "bufferView" : 1,
            "componentType" : 5126,
            "count" : 598,
            "type" : "VEC3"
        },
        {
            "bufferView" : 2,
            "componentType" : 5126,
            "count" : 598,
            "type" : "VEC2"
        },
        {
            "bufferView" : 3,
            "componentType" : 5123,
            "count" : 2880,
            "type" : "SCALAR"
        },
        {
            "bufferView" : 4,
            "componentType" : 5126,
            "count" : 598,
            "max" : [
                24.630306243896484,
                24.630306243896484,
                24.630306243896484
            ],
            "min" : [
                -24.630306243896484,
                -24.630306243896484,
                -24.630306243896484
            ],
            "type" : "VEC3"
        },
        {
            "bufferView" : 5,
            "componentType" : 5126,
            "count" : 598,
            "type" : "VEC3"
        },
        {
            "bufferView" : 6,
            "componentType" : 5126,
            "count" : 598,
            "type" : "VEC2"
        },
        {
            "bufferView" : 7,
            "componentType" : 5123,
            "count" : 2880,
            "type" : "SCALAR"
        },
        {
            "bufferView" : 8,
            "componentType" : 5126,
            "count" : 598,
            "max" : [
                24.630306243896484,
                24.630306243896484,
                24.630306243896484
            ],
            "min" : [
                -24.630306243896484,
                -24.630306243896484,
                -24.630306243896484
            ],
            "type" : "VEC3"
        },
        {
            "bufferView" : 9,
            "componentType" : 5126,
            "count" : 598,
            "type" : "VEC3"
        },
        {
            "bufferView" : 10,
            "componentType" : 5126,
            "count" : 598,
            "type" : "VEC2"
        },
        {
            "bufferView" : 11,
            "componentType" : 5126,
            "count" : 606,
            "max" : [
                24.630306243896484,
                24.630306243896484,
                24.630306243896484
            ],
            "min" : [
                -24.630306243896484,
                -24.630306243896484,
                -24.630306243896484
            ],
            "type" : "VEC3"
        },
        {
            "bufferView" : 12,
            "componentType" : 5126,
            "count" : 606,
            "type" : "VEC3"
        },
        {
            "bufferView" : 13,
            "componentType" : 5126,
            "count" : 606,
            "type" : "VEC2"
        },
        {
            "bufferView" : 14,
            "componentType" : 5123,
            "count" : 2880,
            "type" : "SCALAR"
        },
        {
            "bufferView" : 15,
            "componentType" : 5126,
            "count" : 2162,
            "max" : [
                300,
                20,
                300
            ],
            "min" : [
                -300,
                0,
                -300
            ],
            "type" : "VEC3"
        },
        {
            "bufferView" : 16,
            "componentType" : 5126,
            "count" : 2162,
            "type" : "VEC3"
        },
        {
            "bufferView" : 17,
            "componentType" : 5126,
            "count" : 2162,
            "type" : "VEC2"
        },
        {
            "bufferView" : 18,
            "componentType" : 5123,
            "count" : 3588,
            "type" : "SCALAR"
        },
        {
            "bufferView" : 19,
            "componentType" : 5126,
            "count" : 2162,
            "max" : [
                300,
                20,
                300
            ],
            "min" : [
                -300,
                0,
                -300
            ],
            "type" : "VEC3"
        },
        {
            "bufferView" : 20,
            "componentType" : 5126,
            "count" : 2162,
            "type" : "VEC3"
        },
        {
            "bufferView" : 21,
            "componentType" : 5126,
            "count" : 2162,
            "type" : "VEC2"
        },
        {
            "bufferView" : 22,
            "componentType" : 5126,
            "count" : 120,
            "max" : [
                10,
                484,
                30
            ],
            "min" : [
                -10,
                0,
                -30
            ],
            "type" : "VEC3"
        },
        {
            "bufferView" : 23,
            "componentType" : 5126,
            "count" : 120,
            "type" : "VEC3"
        },
        {
            "bufferView" : 24,
            "componentType" : 5126,
            "count" : 120,
            "type" : "VEC2"
        },
        {
            "bufferView" : 25,
            "componentType" : 5123,
            "count" : 228,
            "type" : "SCALAR"
        },
        {
            "bufferView" : 26,
            "componentType" : 5126,
            "count" : 120,
            "max" : [
                10,
                484,
                30
            ],
            "min" : [
                -10,
                0,
                -30
            ],
            "type" : "VEC3"
        },
        {
            "bufferView" : 27,
            "componentType" : 5126,
            "count" : 120,
            "type" : "VEC3"
        },
        {
            "bufferView" : 28,
            "componentType" : 5126,
            "count" : 120,
            "type" : "VEC2"
        },
        {
            "bufferView" : 29,
            "componentType" : 5126,
            "count" : 120,
            "max" : [
                10,
                484,
                30
            ],
            "min" : [
                -10,
                0,
                -30
            ],
            "type" : "VEC3"
        },
        {
            "bufferView" : 30,
            "componentType" : 5126,
            "count" : 120,
            "type" : "VEC3"
        },
        {
            "bufferView" : 31,
            "componentType" : 5126,
            "count" : 120,
            "type" : "VEC2"
        },
        {
            "bufferView" : 32,
            "componentType" : 5126,
            "count" : 24,
            "max" : [
                10,
                484,
                30
            ],
            "min" : [
                -10,
                0,
                -30
            ],
            "type" : "VEC3"
        },
        {
            "bufferView" : 33,
            "componentType" : 5126,
            "count" : 24,
            "type" : "VEC3"
        },
        {
            "bufferView" : 34,
            "componentType" : 5126,
            "count" : 24,
            "type" : "VEC2"
        },
        {
            "bufferView" : 35,
            "componentType" : 5123,
            "count" : 36,
            "type" : "SCALAR"
        }
    ],
    "bufferViews" : [
        {
            "buffer" : 0,
            "byteLength" : 7176,
            "byteOffset" : 0
        },
        {
            "buffer" : 0,
            "byteLength" : 7176,
            "byteOffset" : 7176
        },
        {
            "buffer" : 0,
            "byteLength" : 4784,
            "byteOffset" : 14352
        },
        {
            "buffer" : 0,
            "byteLength" : 5760,
            "byteOffset" : 19136
        },
        {
            "buffer" : 0,
            "byteLength" : 7176,
            "byteOffset" : 24896
        },
        {
            "buffer" : 0,
            "byteLength" : 7176,
            "byteOffset" : 32072
        },
        {
            "buffer" : 0,
            "byteLength" : 4784,
            "byteOffset" : 39248
        },
        {
            "buffer" : 0,
            "byteLength" : 5760,
            "byteOffset" : 44032
        },
        {
            "buffer" : 0,
            "byteLength" : 7176,
            "byteOffset" : 49792
        },
        {
            "buffer" : 0,
            "byteLength" : 7176,
            "byteOffset" : 56968
        },
        {
            "buffer" : 0,
            "byteLength" : 4784,
            "byteOffset" : 64144
        },
        {
            "buffer" : 0,
            "byteLength" : 7272,
            "byteOffset" : 68928
        },
        {
            "buffer" : 0,
            "byteLength" : 7272,
            "byteOffset" : 76200
        },
        {
            "buffer" : 0,
            "byteLength" : 4848,
            "byteOffset" : 83472
        },
        {
            "buffer" : 0,
            "byteLength" : 5760,
            "byteOffset" : 88320
        },
        {
            "buffer" : 0,
            "byteLength" : 25944,
            "byteOffset" : 94080
        },
        {
            "buffer" : 0,
            "byteLength" : 25944,
            "byteOffset" : 120024
        },
        {
            "buffer" : 0,
            "byteLength" : 17296,
            "byteOffset" : 145968
        },
        {
            "buffer" : 0,
            "byteLength" : 7176,
            "byteOffset" : 163264
        },
        {
            "buffer" : 0,
            "byteLength" : 25944,
            "byteOffset" : 170440
        },
        {
            "buffer" : 0,
            "byteLength" : 25944,
            "byteOffset" : 196384
        },
        {
            "buffer" : 0,
            "byteLength" : 17296,
            "byteOffset" : 222328
        },
        {
            "buffer" : 0,
            "byteLength" : 1440,
            "byteOffset" : 239624
        },
        {
            "buffer" : 0,
            "byteLength" : 1440,
            "byteOffset" : 241064
        },
        {
            "buffer" : 0,
            "byteLength" : 960,
            "byteOffset" : 242504
        },
        {
            "buffer" : 0,
            "byteLength" : 456,
            "byteOffset" : 243464
        },
        {
            "buffer" : 0,
            "byteLength" : 1440,
            "byteOffset" : 243920
        },
        {
            "buffer" : 0,
            "byteLength" : 1440,
            "byteOffset" : 245360
        },
        {
            "buffer" : 0,
            "byteLength" : 960,
            "byteOffset" : 246800
        },
        {
            "buffer" : 0,
            "byteLength" : 1440,
            "byteOffset" : 247760
        },
        {
            "buffer" : 0,
            "byteLength" : 1440,
            "byteOffset" : 249200
        },
        {
            "buffer" : 0,
            "byteLength" : 960,
            "byteOffset" : 250640
        },
        {
            "buffer" : 0,
            "byteLength" : 288,
            "byteOffset" : 251600
        },
        {
            "buffer" : 0,
            "byteLength" : 288,
            "byteOffset" : 251888
        },
        {
            "buffer" : 0,
            "byteLength" : 192,
            "byteOffset" : 252176
        },
        {
            "buffer" : 0,
            "byteLength" : 72,
            "byteOffset" : 252368
        }
    ],
    "buffers" : [
        {
            "byteLength" : 252440,
            "uri" : "table1.bin"
        }
    ]
}
