{
    "accessors": [
        {
            "bufferView": 0,
            "byteOffset": 0,
            "componentType": 5126,
            "count": 12584,
            "max": [
                0.3687830865383148,
                1.1561198234558105,
                1.1131725311279297
            ],
            "min": [
                -0.3687830865383148,
                -4.85531586491561e-07,
                -1.0808430910110474
            ],
            "name": "accessor_buffer_Motorcycle_POSITION_0",
            "type": "VEC3"
        },
        {
            "bufferView": 2,
            "byteOffset": 0,
            "componentType": 5126,
            "count": 12584,
            "max": [
                0.9692479968070984,
                0.8069269955158234
            ],
            "min": [
                0.18238399922847748,
                0.22159498929977417
            ],
            "name": "accessor_buffer_Motorcycle_TEXCOORD_0_0",
            "type": "VEC2"
        },
        {
            "bufferView": 1,
            "byteOffset": 0,
            "componentType": 5126,
            "count": 12584,
            "max": [
                1.0,
                1.0,
                0.9948161840438843
            ],
            "min": [
                -1.0,
                -1.0,
                -0.9996143579483032
            ],
            "name": "accessor_buffer_Motorcycle_NORMAL_0",
            "type": "VEC3"
        },
        {
            "bufferView": 3,
            "byteOffset": 0,
            "componentType": 5123,
            "count": 19089,
            "max": [
                12583
            ],
            "min": [
                0
            ],
            "name": "accessor_buffer_Motorcycle_0",
            "type": "SCALAR"
        }
    ],
    "asset": {
        "copyright": "",
        "generator": "blendergltf v1.2.0",
        "version": "2.0"
    },
    "bufferViews": [
        {
            "buffer": 0,
            "byteLength": 151008,
            "byteOffset": 0,
            "byteStride": 12,
            "name": "bufferView_buffer_Motorcycle_POSITION_0",
            "target": 34962
        },
        {
            "buffer": 0,
            "byteLength": 151008,
            "byteOffset": 151008,
            "byteStride": 12,
            "name": "bufferView_buffer_Motorcycle_NORMAL_0",
            "target": 34962
        },
        {
            "buffer": 0,
            "byteLength": 100672,
            "byteOffset": 302016,
            "byteStride": 8,
            "name": "bufferView_buffer_Motorcycle_TEXCOORD_0_0",
            "target": 34962
        },
        {
            "buffer": 0,
            "byteLength": 38180,
            "byteOffset": 402688,
            "name": "bufferView_buffer_Motorcycle_0",
            "target": 34963
        }
    ],
    "buffers": [
        {
            "byteLength": 440868,
            "name": "buffer_sports_bike",
            "uri": "buffer_sports_bike.bin"
        }
    ],
    "images": [
        {
            "name": "1388 Motorcycle.png",
            "uri": "1388 Motorcycle.png"
        }
    ],
    "materials": [
        {
            "alphaMode": "OPAQUE",
            "doubleSided": false,
            "emissiveFactor": [
                0.0,
                0.0,
                0.0
            ],
            "name": "Mat",
            "pbrMetallicRoughness": {
                "baseColorFactor": [
                    0.64000004529953,
                    0.64000004529953,
                    0.64000004529953,
                    1.0
                ],
                "baseColorTexture": {
                    "index": 0,
                    "texCoord": 0
                },
                "metallicFactor": 0.0,
                "roughnessFactor": 1.0
            }
        }
    ],
    "meshes": [
        {
            "name": "Motorcycle",
            "primitives": [
                {
                    "attributes": {
                        "NORMAL": 2,
                        "POSITION": 0,
                        "TEXCOORD_0": 1
                    },
                    "indices": 3,
                    "material": 0,
                    "mode": 4
                }
            ]
        }
    ],
    "nodes": [
        {
            "mesh": 0,
            "name": "Motorcycle",
            "rotation": [
                0.0,
                0.0,
                0.0,
                1.0
            ],
            "scale": [
                1.0,
                1.0,
                1.0
            ],
            "translation": [
                0.0,
                0.0,
                0.0
            ]
        }
    ],
    "samplers": [
        {
            "magFilter": 9729,
            "minFilter": 9987,
            "name": "Kd",
            "wrapS": 10497,
            "wrapT": 10497
        }
    ],
    "scene": 0,
    "scenes": [
        {
            "extras": {
                "background_color": [
                    0.05087608844041824,
                    0.05087608844041824,
                    0.05087608844041824
                ],
                "frames_per_second": 24
            },
            "name": "Scene",
            "nodes": [
                0
            ]
        }
    ],
    "textures": [
        {
            "name": "Kd",
            "sampler": 0,
            "source": 0
        }
    ]
}
