{
    "asset" : {
        "generator" : "Khronos glTF Blender I/O v1.1.46",
        "version" : "2.0"
    },
    "scene" : 0,
    "scenes" : [
        {
            "name" : "Scene",
            "nodes" : [
                0,
                1,
                2
            ]
        }
    ],
    "nodes" : [
        {
            "name" : "Light",
            "rotation" : [
                0.16907575726509094,
                0.7558803558349609,
                -0.27217137813568115,
                0.570947527885437
            ],
            "translation" : [
                4.076245307922363,
                5.903861999511719,
                -1.0054539442062378
            ]
        },
        {
            "name" : "Camera",
            "rotation" : [
                0.483536034822464,
                0.33687159419059753,
                -0.20870360732078552,
                0.7804827094078064
            ],
            "translation" : [
                7.358891487121582,
                4.958309173583984,
                6.925790786743164
            ]
        },
        {
            "mesh" : 0,
            "name" : "Cylinder.004",
            "rotation" : [
                0.7071067690849304,
                0,
                0,
                0.7071067690849304
            ]
        }
    ],
    "materials" : [
        {
            "doubleSided" : true,
            "emissiveFactor" : [
                0,
                0,
                0
            ],
            "name" : "white",
            "pbrMetallicRoughness" : {
                "baseColorFactor" : [
                    1,
                    1,
                    1,
                    1
                ],
                "metallicFactor" : 0,
                "roughnessFactor" : 0.5
            }
        },
        {
            "doubleSided" : true,
            "emissiveFactor" : [
                0,
                0,
                0
            ],
            "name" : "brown",
            "pbrMetallicRoughness" : {
                "baseColorFactor" : [
                    0.23469500243663788,
                    0.08668400347232819,
                    0.04160900041460991,
                    1
                ],
                "metallicFactor" : 0,
                "roughnessFactor" : 0.5
            }
        },
        {
            "doubleSided" : true,
            "emissiveFactor" : [
                0,
                0,
                0
            ],
            "name" : "silver",
            "pbrMetallicRoughness" : {
                "baseColorFactor" : [
                    0.800000011920929,
                    0.800000011920929,
                    0.800000011920929,
                    1
                ],
                "metallicFactor" : 0,
                "roughnessFactor" : 0.5
            }
        },
        {
            "doubleSided" : true,
            "emissiveFactor" : [
                0,
                0,
                0
            ],
            "name" : "grey",
            "pbrMetallicRoughness" : {
                "baseColorFactor" : [
                    0.054969001561403275,
                    0.054969001561403275,
                    0.054969001561403275,
                    1
                ],
                "metallicFactor" : 0,
                "roughnessFactor" : 0.5
            }
        }
    ],
    "meshes" : [
        {
            "name" : "Cylinder.004",
            "primitives" : [
                {
                    "attributes" : {
                        "POSITION" : 0,
                        "NORMAL" : 1
                    },
                    "indices" : 2,
                    "material" : 0
                },
                {
                    "attributes" : {
                        "POSITION" : 3,
                        "NORMAL" : 4
                    },
                    "indices" : 5,
                    "material" : 1
                },
                {
                    "attributes" : {
                        "POSITION" : 6,
                        "NORMAL" : 7
                    },
                    "indices" : 8,
                    "material" : 2
                },
                {
                    "attributes" : {
                        "POSITION" : 9,
                        "NORMAL" : 10
                    },
                    "indices" : 11,
                    "material" : 3
                }
            ]
        }
    ],
    "accessors" : [
        {
            "bufferView" : 0,
            "componentType" : 5126,
            "count" : 452,
            "max" : [
                0.2577599883079529,
                0.883857011795044,
                -0.3670929968357086
            ],
            "min" : [
                -0.30003198981285095,
                0.22129899263381958,
                -0.9266110062599182
            ],
            "type" : "VEC3"
        },
        {
            "bufferView" : 1,
            "componentType" : 5126,
            "count" : 452,
            "type" : "VEC3"
        },
        {
            "bufferView" : 2,
            "componentType" : 5123,
            "count" : 2628,
            "type" : "SCALAR"
        },
        {
            "bufferView" : 3,
            "componentType" : 5126,
            "count" : 32,
            "max" : [
                0.24084800481796265,
                0.7637519836425781,
                -0.9009310007095337
            ],
            "min" : [
                -0.2833920121192932,
                0.23951099812984467,
                -0.9009310007095337
            ],
            "type" : "VEC3"
        },
        {
            "bufferView" : 4,
            "componentType" : 5126,
            "count" : 32,
            "type" : "VEC3"
        },
        {
            "bufferView" : 5,
            "componentType" : 5123,
            "count" : 90,
            "type" : "SCALAR"
        },
        {
            "bufferView" : 6,
            "componentType" : 5126,
            "count" : 3672,
            "max" : [
                1.1510679721832275,
                1.0373350381851196,
                -0.23923200368881226
            ],
            "min" : [
                -0.9933980107307434,
                -0.22353899478912354,
                -2.416604995727539
            ],
            "type" : "VEC3"
        },
        {
            "bufferView" : 7,
            "componentType" : 5126,
            "count" : 3672,
            "type" : "VEC3"
        },
        {
            "bufferView" : 8,
            "componentType" : 5123,
            "count" : 6222,
            "type" : "SCALAR"
        },
        {
            "bufferView" : 9,
            "componentType" : 5126,
            "count" : 412,
            "max" : [
                1.1751879453659058,
                1,
                0
            ],
            "min" : [
                -1.0454130172729492,
                -1,
                -2.5449509620666504
            ],
            "type" : "VEC3"
        },
        {
            "bufferView" : 10,
            "componentType" : 5126,
            "count" : 412,
            "type" : "VEC3"
        },
        {
            "bufferView" : 11,
            "componentType" : 5123,
            "count" : 666,
            "type" : "SCALAR"
        }
    ],
    "bufferViews" : [
        {
            "buffer" : 0,
            "byteLength" : 5424,
            "byteOffset" : 0
        },
        {
            "buffer" : 0,
            "byteLength" : 5424,
            "byteOffset" : 5424
        },
        {
            "buffer" : 0,
            "byteLength" : 5256,
            "byteOffset" : 10848
        },
        {
            "buffer" : 0,
            "byteLength" : 384,
            "byteOffset" : 16104
        },
        {
            "buffer" : 0,
            "byteLength" : 384,
            "byteOffset" : 16488
        },
        {
            "buffer" : 0,
            "byteLength" : 180,
            "byteOffset" : 16872
        },
        {
            "buffer" : 0,
            "byteLength" : 44064,
            "byteOffset" : 17052
        },
        {
            "buffer" : 0,
            "byteLength" : 44064,
            "byteOffset" : 61116
        },
        {
            "buffer" : 0,
            "byteLength" : 12444,
            "byteOffset" : 105180
        },
        {
            "buffer" : 0,
            "byteLength" : 4944,
            "byteOffset" : 117624
        },
        {
            "buffer" : 0,
            "byteLength" : 4944,
            "byteOffset" : 122568
        },
        {
            "buffer" : 0,
            "byteLength" : 1332,
            "byteOffset" : 127512
        }
    ],
    "buffers" : [
        {
            "byteLength" : 128844,
            "uri" : "espresso.bin"
        }
    ]
}
